<?xml version="1.0" encoding="utf-8"?>
<!-- Generator: Adobe Illustrator 28.0.0, SVG Export Plug-In . SVG Version: 6.00 Build 0)  -->
<svg version="1.1" xmlns="http://www.w3.org/2000/svg" xmlns:xlink="http://www.w3.org/1999/xlink" x="0px" y="0px"
	 viewBox="0 0 600 600" style="enable-background:new 0 0 600 600;" xml:space="preserve">
<style type="text/css">
	.st0{fill:#1AD6B4;}
	.st1{fill:#165EFE;}
	.st2{fill:#F7F7F7;}
	.st3{fill:#C6F7ED;}
	.st4{fill:#061027;}
	.st5{fill:#F7F6F5;}
	.st6{display:none;fill:#061027;}
	.st7{display:none;fill:#165EFE;}
	.st8{display:none;fill:#F7F7F7;}
	.st9{display:none;fill:#C6F7ED;}
	.st10{display:none;}
	.st11{display:inline;fill:#061027;}
	.st12{display:inline;}
</style>
<g id="Logos">
	<g>
		<text transform="matrix(1 0 0 1 -3932.0112 3872.6406)"><tspan x="0" y="0" class="st2" style="font-family:'Nunito-Black'; font-size:398.7893px;">PLANIFICA </tspan><tspan x="2281.84" y="0" class="st2" style="font-family:'Nunito-Bold'; font-size:398.7893px;">MEJOR</tspan></text>
		<g>
			<g>
				<path class="st0" d="M-4065.48,3435.58c0-49.74-40.32-90.07-90.07-90.07h-157.12v45.82c0,37.22,30.17,67.39,67.39,67.39h66.59
					v49.89c0,41.23,33.43,74.66,74.66,74.66h38.55v-136.89c0-2.46-0.12-4.89-0.29-7.31
					C-4065.59,3437.93-4065.48,3436.77-4065.48,3435.58L-4065.48,3435.58z"/>
			</g>
			<path class="st1" d="M-4483.77,3486.35c-127.86,0-231.51,103.15-231.51,230.39c0,1.82,0.02,3.63,0.07,5.44
				c-0.04,0.48-0.07,0.96-0.07,1.45v379.9h24.31c65.38,0,118.38-52.75,118.38-117.81l0.75-54.09l-0.35-1.89
				c27.24,11.21,57.1,17.4,88.41,17.4c127.86,0,231.51-103.15,231.51-230.39S-4355.91,3486.35-4483.77,3486.35z M-4483.77,3840.72
				c-68.8,0-124.58-55.51-124.58-123.98c0-68.47,55.78-123.98,124.58-123.98s124.58,55.51,124.58,123.98
				C-4359.19,3785.21-4414.97,3840.72-4483.77,3840.72z"/>
		</g>
	</g>
	<g>
		<g>
			<path class="st2" d="M-4549.38-89.34c-7.24,0-12.83-2.02-16.77-6.04c-3.95-4.03-5.92-9.66-5.92-16.9v-130.24
				c0-7.4,2.01-13.07,6.04-17.02c4.03-3.95,9.66-5.92,16.9-5.92h60.68c19.73,0,34.98,5.06,45.76,15.17
				c10.77,10.11,16.16,24.05,16.16,41.81c0,17.76-5.39,31.7-16.16,41.81c-10.77,10.11-26.02,15.17-45.76,15.17h-38.23v39.22
				c0,7.24-1.89,12.87-5.67,16.9C-4536.14-91.36-4541.82-89.34-4549.38-89.34z M-4526.69-186.28h30.34c8.55,0,15.13-1.85,19.73-5.55
				c4.6-3.7,6.91-9.25,6.91-16.65c0-7.56-2.3-13.15-6.91-16.77c-4.61-3.62-11.19-5.43-19.73-5.43h-30.34V-186.28z"/>
			<path class="st2" d="M-4382.39-91.56c-7.24,0-12.87-2.01-16.9-6.04c-4.03-4.03-6.04-9.66-6.04-16.9v-128.27
				c0-7.4,1.97-13.07,5.92-17.02c3.95-3.95,9.54-5.92,16.77-5.92c7.4,0,13.03,1.97,16.9,5.92c3.86,3.95,5.8,9.62,5.8,17.02v113.47
				h60.19c6.25,0,11.06,1.6,14.43,4.81c3.37,3.21,5.06,7.85,5.06,13.94c0,6.09-1.69,10.77-5.06,14.06
				c-3.37,3.29-8.18,4.93-14.43,4.93H-4382.39z"/>
			<path class="st2" d="M-4255.11-89.34c-5.1,0-9.37-1.19-12.83-3.58c-3.45-2.38-5.59-5.67-6.41-9.87
				c-0.82-4.19-0.08-8.92,2.22-14.18l61.42-132.21c2.96-6.41,6.62-11.1,10.98-14.06c4.36-2.96,9.33-4.44,14.92-4.44
				c5.59,0,10.48,1.48,14.68,4.44c4.19,2.96,7.85,7.65,10.98,14.06l61.42,132.21c2.63,5.26,3.58,10.03,2.84,14.31
				c-0.74,4.28-2.8,7.57-6.17,9.87c-3.37,2.3-7.52,3.45-12.46,3.45c-6.58,0-11.64-1.48-15.17-4.44c-3.54-2.96-6.7-7.73-9.5-14.31
				l-13.32-31.33l17.27,12.58h-101.63l17.51-12.58l-13.32,31.33c-2.96,6.58-6,11.35-9.13,14.31
				C-4243.92-90.82-4248.69-89.34-4255.11-89.34z M-4185.3-218.1l-28.61,68.33l-6.91-11.84h71.78l-6.91,11.84l-28.86-68.33H-4185.3z
				"/>
			<path class="st2" d="M-4053.83-89.34c-6.91,0-12.17-1.81-15.79-5.43c-3.62-3.62-5.43-8.96-5.43-16.03v-134.43
				c0-7.23,1.81-12.78,5.43-16.65c3.62-3.86,8.39-5.8,14.31-5.8c5.26,0,9.37,0.99,12.33,2.96s6.25,5.26,9.87,9.87l78.19,97.68h-6.91
				v-89.29c0-6.91,1.77-12.17,5.3-15.79c3.53-3.62,8.76-5.43,15.66-5.43s12.13,1.81,15.66,5.43c3.53,3.62,5.3,8.88,5.3,15.79v136.65
				c0,6.25-1.65,11.22-4.93,14.92c-3.29,3.7-7.73,5.55-13.32,5.55c-5.59,0-9.99-1.03-13.2-3.08c-3.21-2.05-6.62-5.3-10.24-9.74
				l-78.19-97.93h6.91v89.29c0,7.07-1.77,12.42-5.3,16.03C-4041.7-91.15-4046.92-89.34-4053.83-89.34z"/>
			<path class="st2" d="M-3865.37-89.34c-7.24,0-12.83-2.02-16.77-6.04c-3.95-4.03-5.92-9.74-5.92-17.14V-244.5
				c0-7.56,1.97-13.32,5.92-17.27c3.95-3.95,9.54-5.92,16.77-5.92c7.4,0,13.03,1.97,16.9,5.92c3.86,3.95,5.8,9.7,5.8,17.27v131.97
				c0,7.4-1.89,13.12-5.67,17.14C-3852.14-91.36-3857.81-89.34-3865.37-89.34z"/>
			<path class="st2" d="M-3788.17-89.34c-7.24,0-12.87-2.02-16.9-6.04c-4.03-4.03-6.04-9.82-6.04-17.39v-129.25
				c0-7.56,2.01-13.36,6.04-17.39c4.03-4.03,9.91-6.04,17.64-6.04h82.14c5.92,0,10.36,1.48,13.32,4.44
				c2.96,2.96,4.44,7.24,4.44,12.83c0,5.76-1.48,10.16-4.44,13.2c-2.96,3.04-7.4,4.56-13.32,4.56h-60.43v35.03h55.01
				c5.75,0,10.15,1.48,13.2,4.44c3.04,2.96,4.56,7.24,4.56,12.83c0,5.76-1.52,10.11-4.56,13.07c-3.04,2.96-7.44,4.44-13.2,4.44
				h-55.01v47.85C-3765.72-97.15-3773.21-89.34-3788.17-89.34z"/>
			<path class="st2" d="M-3645.6-89.34c-7.24,0-12.83-2.02-16.77-6.04c-3.95-4.03-5.92-9.74-5.92-17.14V-244.5
				c0-7.56,1.97-13.32,5.92-17.27c3.95-3.95,9.54-5.92,16.77-5.92c7.4,0,13.03,1.97,16.9,5.92c3.86,3.95,5.8,9.7,5.8,17.27v131.97
				c0,7.4-1.89,13.12-5.67,17.14C-3632.36-91.36-3638.03-89.34-3645.6-89.34z"/>
			<path class="st2" d="M-3503.52-88.85c-19.24,0-35.77-3.7-49.58-11.1c-13.81-7.4-24.38-17.84-31.7-31.33
				c-7.32-13.48-10.98-29.27-10.98-47.36c0-13.48,2.1-25.73,6.29-36.75c4.19-11.02,10.28-20.47,18.25-28.37
				c7.97-7.89,17.68-13.94,29.11-18.13c11.43-4.19,24.3-6.29,38.6-6.29c7.56,0,15.42,0.86,23.56,2.59
				c8.14,1.73,15.33,4.32,21.58,7.77c4.6,2.47,7.81,5.59,9.62,9.37c1.81,3.78,2.42,7.65,1.85,11.59c-0.58,3.95-2.02,7.48-4.32,10.61
				c-2.3,3.13-5.26,5.22-8.88,6.29c-3.62,1.07-7.57,0.54-11.84-1.6c-4.93-2.3-9.83-4.07-14.68-5.3c-4.85-1.23-9.91-1.85-15.17-1.85
				c-10.2,0-18.71,1.93-25.53,5.8c-6.83,3.87-11.96,9.5-15.42,16.9c-3.45,7.4-5.18,16.53-5.18,27.38s1.73,20.02,5.18,27.5
				c3.45,7.48,8.59,13.16,15.42,17.02c6.82,3.87,15.33,5.8,25.53,5.8c4.27,0,8.88-0.53,13.81-1.6c4.93-1.07,9.78-2.75,14.55-5.06
				c4.93-2.14,9.33-2.71,13.2-1.73c3.86,0.99,6.99,2.96,9.37,5.92c2.38,2.96,3.9,6.37,4.56,10.24c0.66,3.87,0.12,7.69-1.6,11.47
				c-1.73,3.78-4.73,6.83-9,9.13c-5.76,3.45-12.87,6.17-21.34,8.14C-3486.7-89.84-3495.13-88.85-3503.52-88.85z"/>
			<path class="st2" d="M-3416.44-89.34c-5.1,0-9.37-1.19-12.83-3.58s-5.59-5.67-6.41-9.87c-0.82-4.19-0.08-8.92,2.22-14.18
				l61.42-132.21c2.96-6.41,6.62-11.1,10.98-14.06c4.36-2.96,9.33-4.44,14.92-4.44c5.59,0,10.48,1.48,14.68,4.44
				c4.19,2.96,7.85,7.65,10.98,14.06l61.42,132.21c2.63,5.26,3.58,10.03,2.84,14.31c-0.74,4.28-2.8,7.57-6.17,9.87
				c-3.37,2.3-7.52,3.45-12.46,3.45c-6.58,0-11.64-1.48-15.17-4.44c-3.54-2.96-6.7-7.73-9.5-14.31l-13.32-31.33l17.27,12.58h-101.63
				l17.51-12.58l-13.32,31.33c-2.96,6.58-6,11.35-9.13,14.31C-3405.26-90.82-3410.03-89.34-3416.44-89.34z M-3346.64-218.1
				l-28.61,68.33l-6.91-11.84h71.78l-6.91,11.84l-28.86-68.33H-3346.64z"/>
			<path class="st2" d="M-4293.34,165.8c-4.61,0-8.14-1.32-10.61-3.95c-2.47-2.63-3.7-6.25-3.7-10.85V2.75
				c0-4.77,1.31-8.43,3.95-10.98c2.63-2.55,6.25-3.82,10.85-3.82c4.11,0,7.36,0.78,9.74,2.34c2.38,1.56,4.56,4.24,6.54,8.02
				l60.93,112.73h-7.89l60.93-112.73c1.97-3.78,4.11-6.45,6.41-8.02c2.3-1.56,5.51-2.34,9.62-2.34c4.6,0,8.14,1.28,10.61,3.82
				c2.47,2.55,3.7,6.21,3.7,10.98V151c0,4.61-1.19,8.22-3.58,10.85c-2.39,2.63-5.96,3.95-10.73,3.95c-4.61,0-8.14-1.32-10.61-3.95
				c-2.47-2.63-3.7-6.25-3.7-10.85V36.79h5.43l-51.8,94.47c-1.65,2.8-3.37,4.85-5.18,6.17c-1.81,1.32-4.28,1.97-7.4,1.97
				c-3.13,0-5.67-0.7-7.65-2.1c-1.97-1.4-3.7-3.41-5.18-6.04l-52.29-94.72h5.92V151c0,4.61-1.19,8.22-3.58,10.85
				C-4284.99,164.48-4288.57,165.8-4293.34,165.8z"/>
			<path class="st2" d="M-4077.26,163.82c-5.43,0-9.58-1.44-12.46-4.32c-2.88-2.88-4.32-7.03-4.32-12.46V6.7
				c0-5.43,1.44-9.58,4.32-12.46c2.88-2.88,7.03-4.32,12.46-4.32h88.06c4.11,0,7.28,1.07,9.5,3.21c2.22,2.14,3.33,5.18,3.33,9.13
				c0,4.11-1.11,7.28-3.33,9.5s-5.39,3.33-9.5,3.33h-74.49v47.85h69.07c4.27,0,7.48,1.07,9.62,3.21c2.14,2.14,3.21,5.26,3.21,9.37
				c0,4.11-1.07,7.24-3.21,9.37c-2.14,2.14-5.35,3.21-9.62,3.21h-69.07v50.57h74.49c4.11,0,7.28,1.07,9.5,3.21
				c2.22,2.14,3.33,5.26,3.33,9.37c0,4.11-1.11,7.24-3.33,9.37c-2.22,2.14-5.39,3.21-9.5,3.21H-4077.26z"/>
			<path class="st2" d="M-3951.71,165.55c-4.61,0.16-8.22-1.07-10.85-3.7c-2.63-2.63-3.95-6-3.95-10.11c0-3.12,0.95-5.88,2.84-8.26
				c1.89-2.38,4.64-3.66,8.26-3.82l7.4-0.49c7.23-0.49,12.7-2.75,16.4-6.78c3.7-4.03,5.55-9.82,5.55-17.39v-111
				c0-5.26,1.36-9.25,4.07-11.96s6.62-4.07,11.72-4.07c5.1,0,9,1.36,11.72,4.07s4.07,6.7,4.07,11.96v110.75
				c0,10.36-1.85,19.16-5.55,26.39c-3.7,7.24-9.17,12.87-16.4,16.9c-7.24,4.03-16.2,6.37-26.89,7.03L-3951.71,165.55z"/>
			<path class="st2" d="M-3778.8,166.29c-16.77,0-31.45-3.7-44.03-11.1c-12.58-7.4-22.32-17.8-29.23-31.2
				c-6.91-13.4-10.36-29.15-10.36-47.24c0-13.65,1.97-25.94,5.92-36.88c3.95-10.93,9.58-20.31,16.9-28.12
				c7.32-7.81,16.11-13.81,26.39-18.01c10.28-4.19,21.75-6.29,34.41-6.29c16.94,0,31.65,3.66,44.15,10.98
				c12.5,7.32,22.2,17.64,29.11,30.96c6.91,13.32,10.36,29.03,10.36,47.11c0,13.65-1.97,25.99-5.92,37
				c-3.95,11.02-9.58,20.47-16.9,28.37c-7.32,7.89-16.12,13.94-26.39,18.13C-3754.67,164.19-3766.14,166.29-3778.8,166.29z
				 M-3778.8,139.16c10.69,0,19.77-2.47,27.26-7.4c7.48-4.93,13.24-12.09,17.27-21.46c4.03-9.37,6.04-20.55,6.04-33.55
				c0-19.73-4.4-35.03-13.2-45.88c-8.8-10.85-21.26-16.28-37.37-16.28c-10.53,0-19.57,2.43-27.13,7.28
				c-7.57,4.85-13.36,11.93-17.39,21.21c-4.03,9.29-6.04,20.52-6.04,33.67c0,19.57,4.44,34.86,13.32,45.88
				C-3807.17,133.65-3794.75,139.16-3778.8,139.16z"/>
			<path class="st2" d="M-3647.33,165.8c-5.1,0-9-1.44-11.72-4.32s-4.07-6.86-4.07-11.96V5.96c0-5.26,1.4-9.25,4.19-11.96
				c2.79-2.71,6.74-4.07,11.84-4.07h59.45c19.07,0,33.79,4.56,44.15,13.69c10.36,9.13,15.54,21.92,15.54,38.36
				c0,10.69-2.34,19.9-7.03,27.63c-4.69,7.73-11.47,13.65-20.35,17.76c-8.88,4.11-19.65,6.17-32.31,6.17l2.22-3.7h8.14
				c6.74,0,12.62,1.65,17.64,4.93c5.01,3.29,9.41,8.47,13.2,15.54l18.5,34.29c1.97,3.45,2.88,6.83,2.71,10.11
				c-0.17,3.29-1.4,5.96-3.7,8.02c-2.3,2.05-5.67,3.08-10.11,3.08s-8.06-0.95-10.85-2.84c-2.8-1.89-5.26-4.81-7.4-8.76l-24.91-45.88
				c-2.96-5.59-6.46-9.33-10.48-11.22c-4.03-1.89-9.17-2.84-15.42-2.84h-23.43v55.25c0,5.1-1.32,9.09-3.95,11.96
				C-3638.12,164.36-3642.07,165.8-3647.33,165.8z M-3631.54,70.83h38.48c11.35,0,19.94-2.34,25.78-7.03
				c5.84-4.69,8.76-11.72,8.76-21.09c0-9.21-2.92-16.16-8.76-20.84c-5.84-4.69-14.43-7.03-25.78-7.03h-38.48V70.83z"/>
		</g>
		<g>
			<g>
				<path class="st0" d="M-3416.87-1300.72c0-60.18-48.78-108.96-108.96-108.96h-190.08v55.43c0,45.03,36.5,81.53,81.53,81.53h80.56
					v60.35c0,49.89,40.44,90.33,90.32,90.33h46.63v-165.6c0-2.98-0.14-5.92-0.35-8.84
					C-3417.01-1297.87-3416.87-1299.27-3416.87-1300.72L-3416.87-1300.72z"/>
			</g>
			<path class="st1" d="M-3922.91-1239.29c-154.68,0-280.07,124.79-280.07,278.72c0,2.2,0.03,4.39,0.08,6.58
				c-0.05,0.57-0.08,1.16-0.08,1.75v459.6h29.42c79.1,0,143.22-63.81,143.22-142.52l0.91-65.44l-0.42-2.29
				c32.96,13.56,69.08,21.05,106.96,21.05c154.68,0,280.07-124.79,280.07-278.72S-3768.23-1239.29-3922.91-1239.29z
				 M-3922.91-810.58c-83.24,0-150.71-67.15-150.71-149.98s67.48-149.98,150.71-149.98c83.24,0,150.71,67.15,150.71,149.98
				S-3839.68-810.58-3922.91-810.58z"/>
		</g>
	</g>
	<g>
		<g>
			<path class="st0" d="M-3377.17,1596.11c0-98.22-79.63-177.85-177.85-177.85h-310.26v90.48c0,73.49,59.58,133.07,133.08,133.07
				h131.49v98.51c0,81.43,66.01,147.44,147.44,147.44h76.12v-270.31c0-4.86-0.24-9.66-0.58-14.43
				C-3377.4,1600.76-3377.17,1598.46-3377.17,1596.11L-3377.17,1596.11z"/>
		</g>
		<path class="st1" d="M-4203.17,1696.38c-252.48,0-457.16,203.69-457.16,454.95c0,3.59,0.05,7.17,0.13,10.74
			c-0.09,0.94-0.13,1.89-0.13,2.86v750.19h48.01c129.11,0,233.77-104.16,233.77-232.64l1.48-106.82l-0.69-3.74
			c53.79,22.14,112.75,34.36,174.58,34.36c252.48,0,457.16-203.69,457.16-454.95C-3746.02,1900.06-3950.69,1696.38-4203.17,1696.38z
			 M-4203.17,2396.14c-135.86,0-246-109.61-246-244.82c0-135.21,110.14-244.82,246-244.82s246,109.61,246,244.82
			C-3957.17,2286.53-4067.31,2396.14-4203.17,2396.14z"/>
	</g>
	<g>
		<g>
			<path class="st3" d="M-2552.93,882.22h-397.84c-24.81,0-44.93-20.12-44.93-44.93V439.46c0-24.81,20.12-44.93,44.93-44.93h397.84
				c24.81,0,44.93,20.12,44.93,44.93v397.84C-2508,862.11-2528.12,882.22-2552.93,882.22z"/>
			<g>
				<g>
					<path class="st0" d="M-2585.83,507.33c0-22.5-18.24-40.73-40.73-40.73h-71.06v20.72c0,16.83,13.64,30.48,30.48,30.48h30.11
						v22.56c0,18.65,15.12,33.77,33.77,33.77h17.43v-61.91c0-1.11-0.05-2.21-0.13-3.3
						C-2585.88,508.39-2585.83,507.87-2585.83,507.33L-2585.83,507.33z"/>
				</g>
				<path class="st4" d="M-2775,530.29c-57.82,0-104.7,46.65-104.7,104.19c0,0.82,0.01,1.64,0.03,2.46
					c-0.02,0.21-0.03,0.43-0.03,0.65V809.4h11c29.57,0,53.54-23.85,53.54-53.28l0.34-24.46l-0.16-0.86
					c12.32,5.07,25.82,7.87,39.98,7.87c57.82,0,104.7-46.65,104.7-104.19S-2717.18,530.29-2775,530.29z M-2775,690.55
					c-31.12,0-56.34-25.1-56.34-56.07c0-30.96,25.22-56.07,56.34-56.07s56.34,25.1,56.34,56.07
					C-2718.66,665.45-2743.88,690.55-2775,690.55z"/>
			</g>
		</g>
		<g>
			<path class="st5" d="M-3146.64,882.22h-397.84c-24.81,0-44.93-20.12-44.93-44.93V439.46c0-24.81,20.12-44.93,44.93-44.93h397.84
				c24.81,0,44.93,20.12,44.93,44.93v397.84C-3101.71,862.11-3121.83,882.22-3146.64,882.22z"/>
			<g>
				<g>
					<path class="st0" d="M-3179.54,507.33c0-22.5-18.24-40.73-40.73-40.73h-71.06v20.72c0,16.83,13.64,30.48,30.48,30.48h30.11
						v22.56c0,18.65,15.12,33.77,33.77,33.77h17.43v-61.91c0-1.11-0.05-2.21-0.13-3.3C-3179.6,508.39-3179.54,507.87-3179.54,507.33
						L-3179.54,507.33z"/>
				</g>
				<path class="st1" d="M-3368.71,530.29c-57.82,0-104.7,46.65-104.7,104.19c0,0.82,0.01,1.64,0.03,2.46
					c-0.02,0.21-0.03,0.43-0.03,0.65V809.4h11c29.57,0,53.54-23.85,53.54-53.28l0.34-24.46l-0.16-0.86
					c12.32,5.07,25.82,7.87,39.98,7.87c57.82,0,104.7-46.65,104.7-104.19S-3310.89,530.29-3368.71,530.29z M-3368.71,690.55
					c-31.12,0-56.34-25.1-56.34-56.07c0-30.96,25.22-56.07,56.34-56.07s56.34,25.1,56.34,56.07
					C-3312.37,665.45-3337.6,690.55-3368.71,690.55z"/>
			</g>
		</g>
		<g>
			<path class="st1" d="M-3740.35,882.22h-397.84c-24.81,0-44.93-20.12-44.93-44.93V439.46c0-24.81,20.12-44.93,44.93-44.93h397.84
				c24.81,0,44.93,20.12,44.93,44.93v397.84C-3695.43,862.11-3715.54,882.22-3740.35,882.22z"/>
			<g>
				<g>
					<path class="st0" d="M-3773.26,507.33c0-22.5-18.24-40.73-40.73-40.73h-71.06v20.72c0,16.83,13.65,30.48,30.48,30.48h30.11
						v22.56c0,18.65,15.12,33.77,33.77,33.77h17.43v-61.91c0-1.11-0.05-2.21-0.13-3.3
						C-3773.31,508.39-3773.26,507.87-3773.26,507.33L-3773.26,507.33z"/>
				</g>
				<path class="st5" d="M-3962.43,530.29c-57.82,0-104.7,46.65-104.7,104.19c0,0.82,0.01,1.64,0.03,2.46
					c-0.02,0.21-0.03,0.43-0.03,0.65V809.4h11c29.57,0,53.54-23.85,53.54-53.28l0.34-24.46l-0.16-0.86
					c12.32,5.07,25.82,7.87,39.98,7.87c57.82,0,104.7-46.65,104.7-104.19S-3904.6,530.29-3962.43,530.29z M-3962.43,690.55
					c-31.12,0-56.34-25.1-56.34-56.07c0-30.96,25.22-56.07,56.34-56.07s56.34,25.1,56.34,56.07
					C-3906.09,665.45-3931.31,690.55-3962.43,690.55z"/>
			</g>
		</g>
		<g>
			<ellipse class="st4" cx="-4556.14" cy="634.48" rx="56.34" ry="56.07"/>
			<path class="st4" d="M-4334.07,394.53h-397.84c-24.81,0-44.93,20.12-44.93,44.93v397.84c0,24.81,20.12,44.93,44.93,44.93h397.84
				c24.81,0,44.93-20.12,44.93-44.93V439.46C-4289.14,414.65-4309.25,394.53-4334.07,394.53z M-4556.14,738.67
				c-14.16,0-27.66-2.8-39.98-7.87l0.16,0.86l-0.34,24.46c0,29.42-23.97,53.28-53.54,53.28h-11V637.59c0-0.22,0.01-0.44,0.03-0.65
				c-0.02-0.82-0.03-1.64-0.03-2.46c0-57.54,46.87-104.19,104.7-104.19c57.82,0,104.7,46.65,104.7,104.19
				S-4498.32,738.67-4556.14,738.67z M-4366.97,507.33c0,0.54-0.05,1.06-0.13,1.58c0.08,1.09,0.13,2.19,0.13,3.3v61.91h-17.43
				c-18.65,0-33.77-15.12-33.77-33.77v-22.56h-30.11c-16.83,0-30.48-13.65-30.48-30.48V466.6h71.06
				C-4385.2,466.6-4366.97,484.83-4366.97,507.33L-4366.97,507.33z"/>
			<path class="st0" d="M-4407.7,466.6h-71.06v20.72c0,16.83,13.65,30.48,30.48,30.48h30.11v22.56c0,18.65,15.12,33.77,33.77,33.77
				h17.43v-61.91c0-1.11-0.05-2.21-0.13-3.3c0.08-0.52,0.13-1.04,0.13-1.58v0C-4366.97,484.83-4385.2,466.6-4407.7,466.6z"/>
			<path class="st1" d="M-4556.14,530.29c-57.82,0-104.7,46.65-104.7,104.19c0,0.82,0.01,1.64,0.03,2.46
				c-0.02,0.21-0.03,0.43-0.03,0.65V809.4h11c29.57,0,53.54-23.85,53.54-53.28l0.34-24.46l-0.16-0.86
				c12.32,5.07,25.82,7.87,39.98,7.87c57.82,0,104.7-46.65,104.7-104.19S-4498.32,530.29-4556.14,530.29z M-4556.14,690.55
				c-31.12,0-56.34-25.1-56.34-56.07c0-30.96,25.22-56.07,56.34-56.07s56.34,25.1,56.34,56.07
				C-4499.8,665.45-4525.02,690.55-4556.14,690.55z"/>
		</g>
	</g>
</g>
<g id="Logos_Verticales">
	<g id="Logo_Vertical">
		<g>
			<rect x="-1952" y="-13" class="st6" width="626" height="626"/>
			<g>
				<g>
					<path class="st2" d="M-1836.54,469.93c-2.25,0-3.99-0.64-5.22-1.93c-1.23-1.29-1.84-3.08-1.84-5.39v-41.57
						c0-2.36,0.63-4.17,1.88-5.43c1.25-1.26,3-1.89,5.25-1.89h18.87c6.14,0,10.88,1.61,14.23,4.84c3.35,3.23,5.02,7.68,5.02,13.35
						s-1.68,10.12-5.02,13.35c-3.35,3.23-8.09,4.84-14.23,4.84h-11.89v12.52c0,2.31-0.59,4.11-1.76,5.39
						C-1832.42,469.28-1834.19,469.93-1836.54,469.93z M-1829.48,438.98h9.43c2.66,0,4.7-0.59,6.14-1.77
						c1.43-1.18,2.15-2.95,2.15-5.31c0-2.41-0.72-4.2-2.15-5.35c-1.43-1.15-3.48-1.73-6.14-1.73h-9.43V438.98z"/>
					<path class="st2" d="M-1784.62,469.22c-2.25,0-4-0.64-5.25-1.93c-1.25-1.29-1.88-3.08-1.88-5.39v-40.94
						c0-2.36,0.61-4.17,1.84-5.43s2.96-1.89,5.22-1.89c2.3,0,4.05,0.63,5.25,1.89c1.2,1.26,1.8,3.07,1.8,5.43v36.22h18.71
						c1.94,0,3.44,0.51,4.49,1.54c1.05,1.02,1.57,2.51,1.57,4.45c0,1.94-0.52,3.44-1.57,4.49c-1.05,1.05-2.54,1.57-4.49,1.57
						H-1784.62z"/>
					<path class="st2" d="M-1745.04,469.93c-1.59,0-2.91-0.38-3.99-1.14c-1.07-0.76-1.74-1.81-1.99-3.15
						c-0.26-1.34-0.03-2.85,0.69-4.53l19.1-42.2c0.92-2.05,2.06-3.54,3.41-4.49c1.35-0.94,2.9-1.42,4.64-1.42
						c1.74,0,3.26,0.47,4.56,1.42c1.3,0.94,2.44,2.44,3.41,4.49l19.1,42.2c0.82,1.68,1.11,3.2,0.88,4.57
						c-0.23,1.37-0.87,2.41-1.92,3.15c-1.05,0.73-2.34,1.1-3.87,1.1c-2.05,0-3.62-0.47-4.72-1.42c-1.1-0.94-2.08-2.47-2.95-4.57
						l-4.14-10l5.37,4.02h-31.6l5.45-4.02l-4.14,10c-0.92,2.1-1.87,3.62-2.84,4.57C-1741.57,469.45-1743.05,469.93-1745.04,469.93z
						 M-1723.34,428.83l-8.9,21.81l-2.15-3.78h22.32l-2.15,3.78l-8.97-21.81H-1723.34z"/>
					<path class="st2" d="M-1682.46,469.93c-2.15,0-3.78-0.58-4.91-1.73c-1.13-1.15-1.69-2.86-1.69-5.12v-42.91
						c0-2.31,0.56-4.08,1.69-5.31c1.12-1.23,2.61-1.85,4.45-1.85c1.64,0,2.91,0.31,3.83,0.94c0.92,0.63,1.94,1.68,3.07,3.15
						l24.31,31.18h-2.15v-28.5c0-2.2,0.55-3.88,1.65-5.04c1.1-1.15,2.72-1.73,4.87-1.73c2.15,0,3.77,0.58,4.87,1.73
						c1.1,1.16,1.65,2.83,1.65,5.04v43.62c0,2-0.51,3.58-1.53,4.76c-1.02,1.18-2.4,1.77-4.14,1.77c-1.74,0-3.11-0.33-4.1-0.98
						c-1-0.66-2.06-1.69-3.18-3.11l-24.31-31.26h2.15v28.5c0,2.26-0.55,3.96-1.65,5.12
						C-1678.69,469.35-1680.32,469.93-1682.46,469.93z"/>
					<path class="st2" d="M-1623.87,469.93c-2.25,0-3.99-0.64-5.22-1.93c-1.23-1.29-1.84-3.11-1.84-5.47V420.4
						c0-2.41,0.61-4.25,1.84-5.51c1.23-1.26,2.96-1.89,5.22-1.89c2.3,0,4.05,0.63,5.25,1.89c1.2,1.26,1.8,3.1,1.8,5.51v42.12
						c0,2.36-0.59,4.19-1.76,5.47C-1619.76,469.28-1621.52,469.93-1623.87,469.93z"/>
					<path class="st2" d="M-1599.87,469.93c-2.25,0-4-0.64-5.25-1.93c-1.25-1.29-1.88-3.14-1.88-5.55v-41.26
						c0-2.41,0.63-4.26,1.88-5.55c1.25-1.29,3.08-1.93,5.48-1.93h25.54c1.84,0,3.22,0.47,4.14,1.42s1.38,2.31,1.38,4.09
						c0,1.84-0.46,3.24-1.38,4.21c-0.92,0.97-2.3,1.46-4.14,1.46h-18.79v11.18h17.1c1.79,0,3.16,0.47,4.1,1.42
						c0.95,0.94,1.42,2.31,1.42,4.09c0,1.84-0.47,3.23-1.42,4.17c-0.95,0.94-2.31,1.42-4.1,1.42h-17.1v15.27
						C-1592.89,467.43-1595.22,469.93-1599.87,469.93z"/>
					<path class="st2" d="M-1555.54,469.93c-2.25,0-3.99-0.64-5.22-1.93c-1.23-1.29-1.84-3.11-1.84-5.47V420.4
						c0-2.41,0.61-4.25,1.84-5.51c1.23-1.26,2.96-1.89,5.22-1.89c2.3,0,4.05,0.63,5.25,1.89c1.2,1.26,1.8,3.1,1.8,5.51v42.12
						c0,2.36-0.59,4.19-1.76,5.47C-1551.43,469.28-1553.19,469.93-1555.54,469.93z"/>
					<path class="st2" d="M-1511.37,470.08c-5.98,0-11.12-1.18-15.42-3.54c-4.29-2.36-7.58-5.69-9.85-10
						c-2.28-4.3-3.41-9.34-3.41-15.12c0-4.3,0.65-8.21,1.96-11.73c1.3-3.52,3.19-6.54,5.68-9.05c2.48-2.52,5.5-4.45,9.05-5.79
						c3.55-1.34,7.55-2.01,12-2.01c2.35,0,4.79,0.28,7.32,0.83c2.53,0.55,4.77,1.38,6.71,2.48c1.43,0.79,2.43,1.79,2.99,2.99
						c0.56,1.21,0.75,2.44,0.58,3.7c-0.18,1.26-0.63,2.39-1.34,3.39c-0.72,1-1.64,1.67-2.76,2.01c-1.13,0.34-2.35,0.17-3.68-0.51
						c-1.53-0.73-3.06-1.3-4.56-1.69c-1.51-0.39-3.08-0.59-4.72-0.59c-3.17,0-5.82,0.62-7.94,1.85c-2.12,1.23-3.72,3.03-4.79,5.39
						s-1.61,5.28-1.61,8.74s0.54,6.39,1.61,8.78c1.07,2.39,2.67,4.2,4.79,5.43c2.12,1.23,4.77,1.85,7.94,1.85
						c1.33,0,2.76-0.17,4.29-0.51c1.53-0.34,3.04-0.88,4.52-1.61c1.53-0.68,2.9-0.87,4.1-0.55c1.2,0.31,2.17,0.94,2.91,1.89
						c0.74,0.94,1.21,2.03,1.42,3.27c0.2,1.23,0.04,2.45-0.5,3.66c-0.54,1.21-1.47,2.18-2.8,2.91c-1.79,1.1-4,1.97-6.63,2.6
						C-1506.14,469.77-1508.76,470.08-1511.37,470.08z"/>
					<path class="st2" d="M-1484.29,469.93c-1.59,0-2.91-0.38-3.99-1.14s-1.74-1.81-1.99-3.15c-0.26-1.34-0.03-2.85,0.69-4.53
						l19.1-42.2c0.92-2.05,2.06-3.54,3.41-4.49c1.35-0.94,2.9-1.42,4.64-1.42c1.74,0,3.26,0.47,4.56,1.42
						c1.3,0.94,2.44,2.44,3.41,4.49l19.1,42.2c0.82,1.68,1.11,3.2,0.88,4.57c-0.23,1.37-0.87,2.41-1.92,3.15
						c-1.05,0.73-2.34,1.1-3.87,1.1c-2.05,0-3.62-0.47-4.72-1.42c-1.1-0.94-2.08-2.47-2.95-4.57l-4.14-10l5.37,4.02h-31.6l5.45-4.02
						l-4.14,10c-0.92,2.1-1.87,3.62-2.84,4.57C-1480.82,469.45-1482.3,469.93-1484.29,469.93z M-1462.59,428.83l-8.9,21.81
						l-2.15-3.78h22.32l-2.15,3.78l-8.97-21.81H-1462.59z"/>
					<path class="st2" d="M-1756.93,551.37c-1.43,0-2.53-0.42-3.3-1.26c-0.77-0.84-1.15-1.99-1.15-3.46v-47.32
						c0-1.52,0.41-2.69,1.23-3.5c0.82-0.81,1.94-1.22,3.37-1.22c1.28,0,2.29,0.25,3.03,0.75c0.74,0.5,1.42,1.35,2.03,2.56
						l18.94,35.98h-2.45l18.94-35.98c0.61-1.21,1.28-2.06,1.99-2.56c0.72-0.5,1.71-0.75,2.99-0.75c1.43,0,2.53,0.41,3.3,1.22
						c0.77,0.81,1.15,1.98,1.15,3.5v47.32c0,1.47-0.37,2.63-1.11,3.46c-0.74,0.84-1.85,1.26-3.34,1.26c-1.43,0-2.53-0.42-3.3-1.26
						c-0.77-0.84-1.15-1.99-1.15-3.46v-36.45h1.69l-16.11,30.16c-0.51,0.89-1.05,1.55-1.61,1.97c-0.56,0.42-1.33,0.63-2.3,0.63
						c-0.97,0-1.76-0.22-2.38-0.67c-0.61-0.45-1.15-1.09-1.61-1.93l-16.26-30.23h1.84v36.53c0,1.47-0.37,2.63-1.11,3.46
						C-1754.34,550.94-1755.45,551.37-1756.93,551.37z"/>
					<path class="st2" d="M-1689.75,550.74c-1.69,0-2.98-0.46-3.87-1.38c-0.9-0.92-1.34-2.24-1.34-3.98v-44.8
						c0-1.73,0.45-3.06,1.34-3.98c0.89-0.92,2.19-1.38,3.87-1.38h27.38c1.28,0,2.26,0.34,2.95,1.02c0.69,0.68,1.04,1.65,1.04,2.91
						c0,1.31-0.35,2.32-1.04,3.03c-0.69,0.71-1.68,1.06-2.95,1.06h-23.16v15.27h21.47c1.33,0,2.33,0.34,2.99,1.02
						c0.66,0.68,1,1.68,1,2.99c0,1.31-0.33,2.31-1,2.99c-0.67,0.68-1.66,1.02-2.99,1.02h-21.47v16.14h23.16
						c1.28,0,2.26,0.34,2.95,1.02c0.69,0.68,1.04,1.68,1.04,2.99c0,1.31-0.35,2.31-1.04,2.99c-0.69,0.68-1.68,1.02-2.95,1.02
						H-1689.75z"/>
					<path class="st2" d="M-1650.71,551.29c-1.43,0.05-2.56-0.34-3.37-1.18c-0.82-0.84-1.23-1.92-1.23-3.23c0-1,0.29-1.88,0.88-2.64
						c0.59-0.76,1.44-1.17,2.57-1.22l2.3-0.16c2.25-0.16,3.95-0.88,5.1-2.17c1.15-1.29,1.73-3.14,1.73-5.55v-35.43
						c0-1.68,0.42-2.95,1.27-3.82c0.84-0.87,2.06-1.3,3.64-1.3c1.58,0,2.8,0.43,3.64,1.3c0.84,0.87,1.27,2.14,1.27,3.82v35.35
						c0,3.31-0.58,6.12-1.73,8.42c-1.15,2.31-2.85,4.11-5.1,5.39c-2.25,1.29-5.04,2.03-8.36,2.24L-1650.71,551.29z"/>
					<path class="st2" d="M-1596.95,551.52c-5.21,0-9.78-1.18-13.69-3.54c-3.91-2.36-6.94-5.68-9.09-9.96
						c-2.15-4.28-3.22-9.3-3.22-15.08c0-4.36,0.61-8.28,1.84-11.77c1.23-3.49,2.98-6.48,5.25-8.98c2.27-2.49,5.01-4.41,8.21-5.75
						c3.19-1.34,6.76-2.01,10.7-2.01c5.27,0,9.84,1.17,13.73,3.5c3.88,2.34,6.9,5.63,9.05,9.88c2.15,4.25,3.22,9.27,3.22,15.04
						c0,4.36-0.61,8.29-1.84,11.81c-1.23,3.52-2.98,6.54-5.25,9.05c-2.28,2.52-5.01,4.45-8.21,5.79
						C-1589.45,550.85-1593.02,551.52-1596.95,551.52z M-1596.95,542.86c3.32,0,6.15-0.79,8.47-2.36c2.33-1.57,4.11-3.86,5.37-6.85
						c1.25-2.99,1.88-6.56,1.88-10.71c0-6.3-1.37-11.18-4.1-14.64c-2.74-3.46-6.61-5.2-11.62-5.2c-3.27,0-6.08,0.78-8.44,2.32
						c-2.35,1.55-4.15,3.81-5.41,6.77c-1.25,2.97-1.88,6.55-1.88,10.75c0,6.25,1.38,11.13,4.14,14.64
						C-1605.77,541.1-1601.91,542.86-1596.95,542.86z"/>
					<path class="st2" d="M-1556.08,551.37c-1.59,0-2.8-0.46-3.64-1.38c-0.84-0.92-1.27-2.19-1.27-3.82v-45.82
						c0-1.68,0.43-2.95,1.3-3.82c0.87-0.87,2.1-1.3,3.68-1.3h18.48c5.93,0,10.51,1.46,13.73,4.37c3.22,2.91,4.83,7,4.83,12.24
						c0,3.41-0.73,6.35-2.19,8.82c-1.46,2.47-3.57,4.36-6.33,5.67c-2.76,1.31-6.11,1.97-10.05,1.97l0.69-1.18h2.53
						c2.1,0,3.92,0.53,5.48,1.57c1.56,1.05,2.93,2.7,4.1,4.96l5.75,10.94c0.61,1.1,0.89,2.18,0.84,3.23
						c-0.05,1.05-0.43,1.9-1.15,2.56c-0.72,0.66-1.76,0.98-3.14,0.98c-1.38,0-2.51-0.3-3.37-0.91c-0.87-0.6-1.64-1.54-2.3-2.8
						l-7.75-14.64c-0.92-1.78-2.01-2.98-3.26-3.58c-1.25-0.6-2.85-0.91-4.79-0.91h-7.29v17.64c0,1.63-0.41,2.9-1.23,3.82
						C-1553.22,550.91-1554.44,551.37-1556.08,551.37z M-1551.17,521.05h11.96c3.53,0,6.2-0.75,8.01-2.24
						c1.81-1.5,2.72-3.74,2.72-6.73c0-2.94-0.91-5.16-2.72-6.65c-1.82-1.5-4.49-2.24-8.01-2.24h-11.96V521.05z"/>
				</g>
				<g>
					<g>
						<path class="st0" d="M-1484.43,83.26c0-19.21-15.17-34.78-33.88-34.78h-59.1v17.69c0,14.37,11.35,26.02,25.35,26.02h25.05
							v19.26c0,15.92,12.57,28.83,28.08,28.83h14.5V87.43c0-0.95-0.04-1.89-0.11-2.82C-1484.47,84.17-1484.43,83.72-1484.43,83.26
							L-1484.43,83.26z"/>
					</g>
					<path class="st1" d="M-1641.76,102.87c-48.09,0-87.08,39.83-87.08,88.97c0,0.7,0.01,1.4,0.02,2.1
						c-0.02,0.18-0.02,0.37-0.02,0.56v146.7h9.15c24.59,0,44.53-20.37,44.53-45.49l0.28-20.89l-0.13-0.73
						c10.25,4.33,21.48,6.72,33.25,6.72c48.09,0,87.08-39.83,87.08-88.97S-1593.67,102.87-1641.76,102.87z M-1641.76,239.71
						c-25.88,0-46.86-21.43-46.86-47.87s20.98-47.87,46.86-47.87c25.88,0,46.86,21.43,46.86,47.87S-1615.88,239.71-1641.76,239.71z"
						/>
				</g>
			</g>
		</g>
		<g>
			<g>
				<rect x="-941" y="-13" class="st7" width="626" height="626"/>
				<g>
					<g>
						<path class="st2" d="M-825.54,469.93c-2.25,0-3.99-0.64-5.22-1.93c-1.23-1.29-1.84-3.08-1.84-5.39v-41.57
							c0-2.36,0.63-4.17,1.88-5.43c1.25-1.26,3-1.89,5.25-1.89h18.87c6.14,0,10.88,1.61,14.23,4.84c3.35,3.23,5.02,7.68,5.02,13.35
							s-1.68,10.12-5.02,13.35c-3.35,3.23-8.09,4.84-14.23,4.84h-11.89v12.52c0,2.31-0.59,4.11-1.76,5.39
							C-821.42,469.28-823.19,469.93-825.54,469.93z M-818.48,438.98h9.43c2.66,0,4.7-0.59,6.14-1.77c1.43-1.18,2.15-2.95,2.15-5.31
							c0-2.41-0.72-4.2-2.15-5.35c-1.43-1.15-3.48-1.73-6.14-1.73h-9.43V438.98z"/>
						<path class="st2" d="M-773.62,469.22c-2.25,0-4-0.64-5.25-1.93c-1.25-1.29-1.88-3.08-1.88-5.39v-40.94
							c0-2.36,0.61-4.17,1.84-5.43c1.23-1.26,2.96-1.89,5.22-1.89c2.3,0,4.05,0.63,5.25,1.89c1.2,1.26,1.8,3.07,1.8,5.43v36.22
							h18.71c1.94,0,3.44,0.51,4.49,1.54c1.05,1.02,1.57,2.51,1.57,4.45c0,1.94-0.52,3.44-1.57,4.49c-1.05,1.05-2.54,1.57-4.49,1.57
							H-773.62z"/>
						<path class="st2" d="M-734.04,469.93c-1.59,0-2.91-0.38-3.99-1.14s-1.74-1.81-1.99-3.15c-0.26-1.34-0.03-2.85,0.69-4.53
							l19.1-42.2c0.92-2.05,2.06-3.54,3.41-4.49c1.35-0.94,2.9-1.42,4.64-1.42c1.74,0,3.26,0.47,4.56,1.42
							c1.3,0.94,2.44,2.44,3.41,4.49l19.1,42.2c0.82,1.68,1.11,3.2,0.88,4.57c-0.23,1.37-0.87,2.41-1.92,3.15
							c-1.05,0.73-2.34,1.1-3.87,1.1c-2.05,0-3.62-0.47-4.72-1.42c-1.1-0.94-2.08-2.47-2.95-4.57l-4.14-10l5.37,4.02h-31.6
							l5.45-4.02l-4.14,10c-0.92,2.1-1.87,3.62-2.84,4.57C-730.57,469.45-732.05,469.93-734.04,469.93z M-712.34,428.83l-8.9,21.81
							l-2.15-3.78h22.32l-2.15,3.78l-8.97-21.81H-712.34z"/>
						<path class="st2" d="M-671.46,469.93c-2.15,0-3.78-0.58-4.91-1.73c-1.13-1.15-1.69-2.86-1.69-5.12v-42.91
							c0-2.31,0.56-4.08,1.69-5.31c1.12-1.23,2.61-1.85,4.45-1.85c1.64,0,2.91,0.31,3.83,0.94c0.92,0.63,1.94,1.68,3.07,3.15
							l24.31,31.18h-2.15v-28.5c0-2.2,0.55-3.88,1.65-5.04c1.1-1.15,2.72-1.73,4.87-1.73s3.77,0.58,4.87,1.73
							c1.1,1.16,1.65,2.83,1.65,5.04v43.62c0,2-0.51,3.58-1.53,4.76c-1.02,1.18-2.4,1.77-4.14,1.77c-1.74,0-3.11-0.33-4.1-0.98
							c-1-0.66-2.06-1.69-3.18-3.11l-24.31-31.26h2.15v28.5c0,2.26-0.55,3.96-1.65,5.12C-667.69,469.35-669.32,469.93-671.46,469.93
							z"/>
						<path class="st2" d="M-612.87,469.93c-2.25,0-3.99-0.64-5.22-1.93c-1.23-1.29-1.84-3.11-1.84-5.47V420.4
							c0-2.41,0.61-4.25,1.84-5.51c1.23-1.26,2.96-1.89,5.22-1.89c2.3,0,4.05,0.63,5.25,1.89c1.2,1.26,1.8,3.1,1.8,5.51v42.12
							c0,2.36-0.59,4.19-1.76,5.47C-608.76,469.28-610.52,469.93-612.87,469.93z"/>
						<path class="st2" d="M-588.87,469.93c-2.25,0-4-0.64-5.25-1.93c-1.25-1.29-1.88-3.14-1.88-5.55v-41.26
							c0-2.41,0.63-4.26,1.88-5.55c1.25-1.29,3.08-1.93,5.48-1.93h25.54c1.84,0,3.22,0.47,4.14,1.42c0.92,0.94,1.38,2.31,1.38,4.09
							c0,1.84-0.46,3.24-1.38,4.21c-0.92,0.97-2.3,1.46-4.14,1.46h-18.79v11.18h17.1c1.79,0,3.16,0.47,4.1,1.42
							c0.95,0.94,1.42,2.31,1.42,4.09c0,1.84-0.47,3.23-1.42,4.17c-0.95,0.94-2.31,1.42-4.1,1.42h-17.1v15.27
							C-581.89,467.43-584.22,469.93-588.87,469.93z"/>
						<path class="st2" d="M-544.54,469.93c-2.25,0-3.99-0.64-5.22-1.93c-1.23-1.29-1.84-3.11-1.84-5.47V420.4
							c0-2.41,0.61-4.25,1.84-5.51c1.23-1.26,2.96-1.89,5.22-1.89c2.3,0,4.05,0.63,5.25,1.89c1.2,1.26,1.8,3.1,1.8,5.51v42.12
							c0,2.36-0.59,4.19-1.76,5.47C-540.43,469.28-542.19,469.93-544.54,469.93z"/>
						<path class="st2" d="M-500.37,470.08c-5.98,0-11.12-1.18-15.42-3.54c-4.29-2.36-7.58-5.69-9.85-10
							c-2.28-4.3-3.41-9.34-3.41-15.12c0-4.3,0.65-8.21,1.96-11.73c1.3-3.52,3.19-6.54,5.68-9.05c2.48-2.52,5.5-4.45,9.05-5.79
							c3.55-1.34,7.55-2.01,12-2.01c2.35,0,4.79,0.28,7.32,0.83c2.53,0.55,4.77,1.38,6.71,2.48c1.43,0.79,2.43,1.79,2.99,2.99
							c0.56,1.21,0.75,2.44,0.58,3.7c-0.18,1.26-0.63,2.39-1.34,3.39c-0.72,1-1.64,1.67-2.76,2.01c-1.13,0.34-2.35,0.17-3.68-0.51
							c-1.53-0.73-3.06-1.3-4.56-1.69c-1.51-0.39-3.08-0.59-4.72-0.59c-3.17,0-5.82,0.62-7.94,1.85c-2.12,1.23-3.72,3.03-4.79,5.39
							c-1.07,2.36-1.61,5.28-1.61,8.74s0.54,6.39,1.61,8.78c1.07,2.39,2.67,4.2,4.79,5.43c2.12,1.23,4.77,1.85,7.94,1.85
							c1.33,0,2.76-0.17,4.29-0.51c1.53-0.34,3.04-0.88,4.52-1.61c1.53-0.68,2.9-0.87,4.1-0.55c1.2,0.31,2.17,0.94,2.91,1.89
							c0.74,0.94,1.21,2.03,1.42,3.27c0.2,1.23,0.04,2.45-0.5,3.66c-0.54,1.21-1.47,2.18-2.8,2.91c-1.79,1.1-4,1.97-6.63,2.6
							C-495.14,469.77-497.76,470.08-500.37,470.08z"/>
						<path class="st2" d="M-473.29,469.93c-1.59,0-2.91-0.38-3.99-1.14c-1.07-0.76-1.74-1.81-1.99-3.15
							c-0.26-1.34-0.03-2.85,0.69-4.53l19.1-42.2c0.92-2.05,2.06-3.54,3.41-4.49c1.35-0.94,2.9-1.42,4.64-1.42
							c1.74,0,3.26,0.47,4.56,1.42c1.3,0.94,2.44,2.44,3.41,4.49l19.1,42.2c0.82,1.68,1.11,3.2,0.88,4.57
							c-0.23,1.37-0.87,2.41-1.92,3.15c-1.05,0.73-2.34,1.1-3.87,1.1c-2.05,0-3.62-0.47-4.72-1.42c-1.1-0.94-2.08-2.47-2.95-4.57
							l-4.14-10l5.37,4.02h-31.6l5.45-4.02l-4.14,10c-0.92,2.1-1.87,3.62-2.84,4.57C-469.82,469.45-471.3,469.93-473.29,469.93z
							 M-451.59,428.83l-8.9,21.81l-2.15-3.78h22.32l-2.15,3.78l-8.97-21.81H-451.59z"/>
						<path class="st2" d="M-745.93,551.37c-1.43,0-2.53-0.42-3.3-1.26c-0.77-0.84-1.15-1.99-1.15-3.46v-47.32
							c0-1.52,0.41-2.69,1.23-3.5c0.82-0.81,1.94-1.22,3.37-1.22c1.28,0,2.29,0.25,3.03,0.75c0.74,0.5,1.42,1.35,2.03,2.56
							l18.94,35.98h-2.45l18.94-35.98c0.61-1.21,1.28-2.06,1.99-2.56c0.72-0.5,1.71-0.75,2.99-0.75c1.43,0,2.53,0.41,3.3,1.22
							c0.77,0.81,1.15,1.98,1.15,3.5v47.32c0,1.47-0.37,2.63-1.11,3.46c-0.74,0.84-1.85,1.26-3.34,1.26c-1.43,0-2.53-0.42-3.3-1.26
							c-0.77-0.84-1.15-1.99-1.15-3.46v-36.45h1.69l-16.11,30.16c-0.51,0.89-1.05,1.55-1.61,1.97c-0.56,0.42-1.33,0.63-2.3,0.63
							c-0.97,0-1.76-0.22-2.38-0.67c-0.61-0.45-1.15-1.09-1.61-1.93l-16.26-30.23h1.84v36.53c0,1.47-0.37,2.63-1.11,3.46
							C-743.34,550.94-744.45,551.37-745.93,551.37z"/>
						<path class="st2" d="M-678.75,550.74c-1.69,0-2.98-0.46-3.87-1.38c-0.9-0.92-1.34-2.24-1.34-3.98v-44.8
							c0-1.73,0.45-3.06,1.34-3.98c0.89-0.92,2.19-1.38,3.87-1.38h27.38c1.28,0,2.26,0.34,2.95,1.02c0.69,0.68,1.04,1.65,1.04,2.91
							c0,1.31-0.35,2.32-1.04,3.03c-0.69,0.71-1.68,1.06-2.95,1.06h-23.16v15.27h21.47c1.33,0,2.33,0.34,2.99,1.02
							c0.66,0.68,1,1.68,1,2.99c0,1.31-0.33,2.31-1,2.99c-0.67,0.68-1.66,1.02-2.99,1.02h-21.47v16.14h23.16
							c1.28,0,2.26,0.34,2.95,1.02c0.69,0.68,1.04,1.68,1.04,2.99c0,1.31-0.35,2.31-1.04,2.99c-0.69,0.68-1.68,1.02-2.95,1.02
							H-678.75z"/>
						<path class="st2" d="M-639.71,551.29c-1.43,0.05-2.56-0.34-3.37-1.18c-0.82-0.84-1.23-1.92-1.23-3.23c0-1,0.29-1.88,0.88-2.64
							c0.59-0.76,1.44-1.17,2.57-1.22l2.3-0.16c2.25-0.16,3.95-0.88,5.1-2.17c1.15-1.29,1.73-3.14,1.73-5.55v-35.43
							c0-1.68,0.42-2.95,1.27-3.82c0.84-0.87,2.06-1.3,3.64-1.3c1.58,0,2.8,0.43,3.64,1.3c0.84,0.87,1.27,2.14,1.27,3.82v35.35
							c0,3.31-0.58,6.12-1.73,8.42c-1.15,2.31-2.85,4.11-5.1,5.39c-2.25,1.29-5.04,2.03-8.36,2.24L-639.71,551.29z"/>
						<path class="st2" d="M-585.95,551.52c-5.22,0-9.78-1.18-13.69-3.54c-3.91-2.36-6.94-5.68-9.09-9.96
							c-2.15-4.28-3.22-9.3-3.22-15.08c0-4.36,0.61-8.28,1.84-11.77c1.23-3.49,2.98-6.48,5.25-8.98c2.27-2.49,5.01-4.41,8.21-5.75
							c3.19-1.34,6.76-2.01,10.7-2.01c5.27,0,9.84,1.17,13.73,3.5c3.88,2.34,6.9,5.63,9.05,9.88c2.15,4.25,3.22,9.27,3.22,15.04
							c0,4.36-0.61,8.29-1.84,11.81c-1.23,3.52-2.98,6.54-5.25,9.05c-2.28,2.52-5.01,4.45-8.21,5.79
							C-578.45,550.85-582.02,551.52-585.95,551.52z M-585.95,542.86c3.32,0,6.15-0.79,8.47-2.36c2.33-1.57,4.12-3.86,5.37-6.85
							c1.25-2.99,1.88-6.56,1.88-10.71c0-6.3-1.37-11.18-4.1-14.64c-2.74-3.46-6.61-5.2-11.62-5.2c-3.27,0-6.09,0.78-8.44,2.32
							c-2.35,1.55-4.15,3.81-5.41,6.77c-1.25,2.97-1.88,6.55-1.88,10.75c0,6.25,1.38,11.13,4.14,14.64
							C-594.77,541.1-590.91,542.86-585.95,542.86z"/>
						<path class="st2" d="M-545.08,551.37c-1.59,0-2.8-0.46-3.64-1.38s-1.27-2.19-1.27-3.82v-45.82c0-1.68,0.43-2.95,1.3-3.82
							c0.87-0.87,2.1-1.3,3.68-1.3h18.48c5.93,0,10.51,1.46,13.73,4.37c3.22,2.91,4.83,7,4.83,12.24c0,3.41-0.73,6.35-2.19,8.82
							c-1.46,2.47-3.57,4.36-6.33,5.67c-2.76,1.31-6.11,1.97-10.05,1.97l0.69-1.18h2.53c2.1,0,3.92,0.53,5.48,1.57
							c1.56,1.05,2.93,2.7,4.1,4.96l5.75,10.94c0.61,1.1,0.89,2.18,0.84,3.23c-0.05,1.05-0.43,1.9-1.15,2.56
							c-0.72,0.66-1.76,0.98-3.14,0.98c-1.38,0-2.51-0.3-3.37-0.91c-0.87-0.6-1.64-1.54-2.3-2.8l-7.75-14.64
							c-0.92-1.78-2.01-2.98-3.26-3.58c-1.25-0.6-2.85-0.91-4.79-0.91h-7.29v17.64c0,1.63-0.41,2.9-1.23,3.82
							C-542.22,550.91-543.44,551.37-545.08,551.37z M-540.17,521.05h11.96c3.53,0,6.2-0.75,8.01-2.24c1.81-1.5,2.72-3.74,2.72-6.73
							c0-2.94-0.91-5.16-2.72-6.65c-1.82-1.5-4.49-2.24-8.01-2.24h-11.96V521.05z"/>
					</g>
					<g>
						<g>
							<path class="st0" d="M-473.43,83.26c0-19.21-15.17-34.78-33.88-34.78h-59.1v17.69c0,14.37,11.35,26.02,25.35,26.02h25.05
								v19.26c0,15.92,12.57,28.83,28.08,28.83h14.5V87.43c0-0.95-0.04-1.89-0.11-2.82C-473.47,84.17-473.43,83.72-473.43,83.26
								L-473.43,83.26z"/>
						</g>
						<path class="st2" d="M-630.76,102.87c-48.09,0-87.08,39.83-87.08,88.97c0,0.7,0.01,1.4,0.02,2.1
							c-0.02,0.18-0.02,0.37-0.02,0.56v146.7h9.15c24.59,0,44.53-20.37,44.53-45.49l0.28-20.89l-0.13-0.73
							c10.25,4.33,21.48,6.72,33.25,6.72c48.09,0,87.08-39.83,87.08-88.97S-582.67,102.87-630.76,102.87z M-630.76,239.71
							c-25.88,0-46.86-21.43-46.86-47.87s20.98-47.87,46.86-47.87c25.88,0,46.86,21.43,46.86,47.87S-604.88,239.71-630.76,239.71z"
							/>
					</g>
				</g>
			</g>
		</g>
		<g>
			<g>
				<rect x="-13" y="-13" class="st8" width="626" height="626"/>
				<g>
					<g>
						<path class="st4" d="M102.46,469.93c-2.25,0-3.99-0.64-5.22-1.93c-1.23-1.29-1.84-3.08-1.84-5.39v-41.57
							c0-2.36,0.63-4.17,1.88-5.43c1.25-1.26,3-1.89,5.25-1.89h18.87c6.14,0,10.88,1.61,14.23,4.84c3.35,3.23,5.02,7.68,5.02,13.35
							s-1.68,10.12-5.02,13.35c-3.35,3.23-8.09,4.84-14.23,4.84h-11.89v12.52c0,2.31-0.59,4.11-1.76,5.39
							C106.58,469.28,104.81,469.93,102.46,469.93z M109.52,438.98h9.43c2.66,0,4.7-0.59,6.14-1.77c1.43-1.18,2.15-2.95,2.15-5.31
							c0-2.41-0.72-4.2-2.15-5.35c-1.43-1.15-3.48-1.73-6.14-1.73h-9.43V438.98z"/>
						<path class="st4" d="M154.38,469.22c-2.25,0-4-0.64-5.25-1.93c-1.25-1.29-1.88-3.08-1.88-5.39v-40.94
							c0-2.36,0.61-4.17,1.84-5.43c1.23-1.26,2.96-1.89,5.22-1.89c2.3,0,4.05,0.63,5.25,1.89c1.2,1.26,1.8,3.07,1.8,5.43v36.22
							h18.71c1.94,0,3.44,0.51,4.49,1.54c1.05,1.02,1.57,2.51,1.57,4.45c0,1.94-0.52,3.44-1.57,4.49c-1.05,1.05-2.54,1.57-4.49,1.57
							H154.38z"/>
						<path class="st4" d="M193.96,469.93c-1.59,0-2.91-0.38-3.99-1.14c-1.07-0.76-1.74-1.81-1.99-3.15
							c-0.26-1.34-0.03-2.85,0.69-4.53l19.1-42.2c0.92-2.05,2.06-3.54,3.41-4.49c1.35-0.94,2.9-1.42,4.64-1.42
							c1.74,0,3.26,0.47,4.56,1.42c1.3,0.94,2.44,2.44,3.41,4.49l19.1,42.2c0.82,1.68,1.11,3.2,0.88,4.57
							c-0.23,1.37-0.87,2.41-1.92,3.15c-1.05,0.73-2.34,1.1-3.87,1.1c-2.05,0-3.62-0.47-4.72-1.42c-1.1-0.94-2.08-2.47-2.95-4.57
							l-4.14-10l5.37,4.02h-31.6l5.45-4.02l-4.14,10c-0.92,2.1-1.87,3.62-2.84,4.57C197.43,469.45,195.95,469.93,193.96,469.93z
							 M215.66,428.83l-8.9,21.81l-2.15-3.78h22.32l-2.15,3.78l-8.97-21.81H215.66z"/>
						<path class="st4" d="M256.54,469.93c-2.15,0-3.78-0.58-4.91-1.73c-1.13-1.15-1.69-2.86-1.69-5.12v-42.91
							c0-2.31,0.56-4.08,1.69-5.31c1.12-1.23,2.61-1.85,4.45-1.85c1.64,0,2.91,0.31,3.83,0.94c0.92,0.63,1.94,1.68,3.07,3.15
							l24.31,31.18h-2.15v-28.5c0-2.2,0.55-3.88,1.65-5.04c1.1-1.15,2.72-1.73,4.87-1.73c2.15,0,3.77,0.58,4.87,1.73
							c1.1,1.16,1.65,2.83,1.65,5.04v43.62c0,2-0.51,3.58-1.53,4.76c-1.02,1.18-2.4,1.77-4.14,1.77c-1.74,0-3.11-0.33-4.1-0.98
							c-1-0.66-2.06-1.69-3.18-3.11l-24.31-31.26h2.15v28.5c0,2.26-0.55,3.96-1.65,5.12C260.31,469.35,258.68,469.93,256.54,469.93z
							"/>
						<path class="st4" d="M315.13,469.93c-2.25,0-3.99-0.64-5.22-1.93c-1.23-1.29-1.84-3.11-1.84-5.47V420.4
							c0-2.41,0.61-4.25,1.84-5.51c1.23-1.26,2.96-1.89,5.22-1.89c2.3,0,4.05,0.63,5.25,1.89c1.2,1.26,1.8,3.1,1.8,5.51v42.12
							c0,2.36-0.59,4.19-1.76,5.47C319.24,469.28,317.48,469.93,315.13,469.93z"/>
						<path class="st4" d="M339.13,469.93c-2.25,0-4-0.64-5.25-1.93c-1.25-1.29-1.88-3.14-1.88-5.55v-41.26
							c0-2.41,0.63-4.26,1.88-5.55c1.25-1.29,3.08-1.93,5.48-1.93h25.54c1.84,0,3.22,0.47,4.14,1.42c0.92,0.94,1.38,2.31,1.38,4.09
							c0,1.84-0.46,3.24-1.38,4.21c-0.92,0.97-2.3,1.46-4.14,1.46h-18.79v11.18h17.1c1.79,0,3.16,0.47,4.1,1.42
							c0.95,0.94,1.42,2.31,1.42,4.09c0,1.84-0.47,3.23-1.42,4.17c-0.95,0.94-2.31,1.42-4.1,1.42h-17.1v15.27
							C346.11,467.43,343.78,469.93,339.13,469.93z"/>
						<path class="st4" d="M383.46,469.93c-2.25,0-3.99-0.64-5.22-1.93c-1.23-1.29-1.84-3.11-1.84-5.47V420.4
							c0-2.41,0.61-4.25,1.84-5.51c1.23-1.26,2.96-1.89,5.22-1.89c2.3,0,4.05,0.63,5.25,1.89c1.2,1.26,1.8,3.1,1.8,5.51v42.12
							c0,2.36-0.59,4.19-1.76,5.47C387.57,469.28,385.81,469.93,383.46,469.93z"/>
						<path class="st4" d="M427.63,470.08c-5.98,0-11.12-1.18-15.42-3.54c-4.29-2.36-7.58-5.69-9.85-10
							c-2.28-4.3-3.41-9.34-3.41-15.12c0-4.3,0.65-8.21,1.96-11.73c1.3-3.52,3.19-6.54,5.68-9.05c2.48-2.52,5.5-4.45,9.05-5.79
							c3.55-1.34,7.55-2.01,12-2.01c2.35,0,4.79,0.28,7.32,0.83c2.53,0.55,4.77,1.38,6.71,2.48c1.43,0.79,2.43,1.79,2.99,2.99
							c0.56,1.21,0.75,2.44,0.58,3.7c-0.18,1.26-0.63,2.39-1.34,3.39c-0.72,1-1.64,1.67-2.76,2.01c-1.13,0.34-2.35,0.17-3.68-0.51
							c-1.53-0.73-3.06-1.3-4.56-1.69c-1.51-0.39-3.08-0.59-4.72-0.59c-3.17,0-5.82,0.62-7.94,1.85c-2.12,1.23-3.72,3.03-4.79,5.39
							s-1.61,5.28-1.61,8.74s0.54,6.39,1.61,8.78c1.07,2.39,2.67,4.2,4.79,5.43c2.12,1.23,4.77,1.85,7.94,1.85
							c1.33,0,2.76-0.17,4.29-0.51c1.53-0.34,3.04-0.88,4.52-1.61c1.53-0.68,2.9-0.87,4.1-0.55c1.2,0.31,2.17,0.94,2.91,1.89
							c0.74,0.94,1.21,2.03,1.42,3.27c0.2,1.23,0.04,2.45-0.5,3.66c-0.54,1.21-1.47,2.18-2.8,2.91c-1.79,1.1-4,1.97-6.63,2.6
							C432.86,469.77,430.24,470.08,427.63,470.08z"/>
						<path class="st4" d="M454.71,469.93c-1.59,0-2.91-0.38-3.99-1.14c-1.07-0.76-1.74-1.81-1.99-3.15
							c-0.26-1.34-0.03-2.85,0.69-4.53l19.1-42.2c0.92-2.05,2.06-3.54,3.41-4.49c1.35-0.94,2.9-1.42,4.64-1.42
							c1.74,0,3.26,0.47,4.56,1.42c1.3,0.94,2.44,2.44,3.41,4.49l19.1,42.2c0.82,1.68,1.11,3.2,0.88,4.57
							c-0.23,1.37-0.87,2.41-1.92,3.15c-1.05,0.73-2.34,1.1-3.87,1.1c-2.05,0-3.62-0.47-4.72-1.42c-1.1-0.94-2.08-2.47-2.95-4.57
							l-4.14-10l5.37,4.02h-31.6l5.45-4.02l-4.14,10c-0.92,2.1-1.87,3.62-2.84,4.57C458.18,469.45,456.7,469.93,454.71,469.93z
							 M476.41,428.83l-8.9,21.81l-2.15-3.78h22.32l-2.15,3.78l-8.97-21.81H476.41z"/>
						<path class="st4" d="M182.07,551.37c-1.43,0-2.53-0.42-3.3-1.26c-0.77-0.84-1.15-1.99-1.15-3.46v-47.32
							c0-1.52,0.41-2.69,1.23-3.5c0.82-0.81,1.94-1.22,3.37-1.22c1.28,0,2.29,0.25,3.03,0.75c0.74,0.5,1.42,1.35,2.03,2.56
							l18.94,35.98h-2.45l18.94-35.98c0.61-1.21,1.28-2.06,1.99-2.56c0.72-0.5,1.71-0.75,2.99-0.75c1.43,0,2.53,0.41,3.3,1.22
							c0.77,0.81,1.15,1.98,1.15,3.5v47.32c0,1.47-0.37,2.63-1.11,3.46c-0.74,0.84-1.85,1.26-3.34,1.26c-1.43,0-2.53-0.42-3.3-1.26
							c-0.77-0.84-1.15-1.99-1.15-3.46v-36.45h1.69l-16.11,30.16c-0.51,0.89-1.05,1.55-1.61,1.97c-0.56,0.42-1.33,0.63-2.3,0.63
							c-0.97,0-1.76-0.22-2.38-0.67c-0.61-0.45-1.15-1.09-1.61-1.93l-16.26-30.23h1.84v36.53c0,1.47-0.37,2.63-1.11,3.46
							C184.66,550.94,183.55,551.37,182.07,551.37z"/>
						<path class="st4" d="M249.25,550.74c-1.69,0-2.98-0.46-3.87-1.38c-0.9-0.92-1.34-2.24-1.34-3.98v-44.8
							c0-1.73,0.45-3.06,1.34-3.98c0.89-0.92,2.19-1.38,3.87-1.38h27.38c1.28,0,2.26,0.34,2.95,1.02c0.69,0.68,1.04,1.65,1.04,2.91
							c0,1.31-0.35,2.32-1.04,3.03c-0.69,0.71-1.68,1.06-2.95,1.06h-23.16v15.27h21.47c1.33,0,2.33,0.34,2.99,1.02
							c0.66,0.68,1,1.68,1,2.99c0,1.31-0.33,2.31-1,2.99c-0.67,0.68-1.66,1.02-2.99,1.02h-21.47v16.14h23.16
							c1.28,0,2.26,0.34,2.95,1.02c0.69,0.68,1.04,1.68,1.04,2.99c0,1.31-0.35,2.31-1.04,2.99c-0.69,0.68-1.68,1.02-2.95,1.02
							H249.25z"/>
						<path class="st4" d="M288.29,551.29c-1.43,0.05-2.56-0.34-3.37-1.18c-0.82-0.84-1.23-1.92-1.23-3.23c0-1,0.29-1.88,0.88-2.64
							c0.59-0.76,1.44-1.17,2.57-1.22l2.3-0.16c2.25-0.16,3.95-0.88,5.1-2.17c1.15-1.29,1.73-3.14,1.73-5.55v-35.43
							c0-1.68,0.42-2.95,1.27-3.82c0.84-0.87,2.06-1.3,3.64-1.3c1.58,0,2.8,0.43,3.64,1.3c0.84,0.87,1.27,2.14,1.27,3.82v35.35
							c0,3.31-0.58,6.12-1.73,8.42c-1.15,2.31-2.85,4.11-5.1,5.39c-2.25,1.29-5.04,2.03-8.36,2.24L288.29,551.29z"/>
						<path class="st4" d="M342.05,551.52c-5.22,0-9.78-1.18-13.69-3.54c-3.91-2.36-6.94-5.68-9.09-9.96
							c-2.15-4.28-3.22-9.3-3.22-15.08c0-4.36,0.61-8.28,1.84-11.77c1.23-3.49,2.98-6.48,5.25-8.98c2.27-2.49,5.01-4.41,8.21-5.75
							c3.19-1.34,6.76-2.01,10.7-2.01c5.27,0,9.84,1.17,13.73,3.5c3.88,2.34,6.9,5.63,9.05,9.88c2.15,4.25,3.22,9.27,3.22,15.04
							c0,4.36-0.61,8.29-1.84,11.81c-1.23,3.52-2.98,6.54-5.25,9.05c-2.28,2.52-5.01,4.45-8.21,5.79
							C349.55,550.85,345.98,551.52,342.05,551.52z M342.05,542.86c3.32,0,6.15-0.79,8.47-2.36c2.33-1.57,4.12-3.86,5.37-6.85
							c1.25-2.99,1.88-6.56,1.88-10.71c0-6.3-1.37-11.18-4.1-14.64c-2.74-3.46-6.61-5.2-11.62-5.2c-3.27,0-6.09,0.78-8.44,2.32
							c-2.35,1.55-4.15,3.81-5.41,6.77c-1.25,2.97-1.88,6.55-1.88,10.75c0,6.25,1.38,11.13,4.14,14.64
							C333.23,541.1,337.09,542.86,342.05,542.86z"/>
						<path class="st4" d="M382.92,551.37c-1.59,0-2.8-0.46-3.64-1.38s-1.27-2.19-1.27-3.82v-45.82c0-1.68,0.43-2.95,1.3-3.82
							c0.87-0.87,2.1-1.3,3.68-1.3h18.48c5.93,0,10.51,1.46,13.73,4.37c3.22,2.91,4.83,7,4.83,12.24c0,3.41-0.73,6.35-2.19,8.82
							c-1.46,2.47-3.57,4.36-6.33,5.67c-2.76,1.31-6.11,1.97-10.05,1.97l0.69-1.18h2.53c2.1,0,3.92,0.53,5.48,1.57
							c1.56,1.05,2.93,2.7,4.1,4.96l5.75,10.94c0.61,1.1,0.89,2.18,0.84,3.23c-0.05,1.05-0.43,1.9-1.15,2.56
							c-0.72,0.66-1.76,0.98-3.14,0.98c-1.38,0-2.51-0.3-3.37-0.91c-0.87-0.6-1.64-1.54-2.3-2.8l-7.75-14.64
							c-0.92-1.78-2.01-2.98-3.26-3.58c-1.25-0.6-2.85-0.91-4.79-0.91h-7.29v17.64c0,1.63-0.41,2.9-1.23,3.82
							C385.78,550.91,384.56,551.37,382.92,551.37z M387.83,521.05h11.96c3.53,0,6.2-0.75,8.01-2.24c1.81-1.5,2.72-3.74,2.72-6.73
							c0-2.94-0.91-5.16-2.72-6.65c-1.82-1.5-4.49-2.24-8.01-2.24h-11.96V521.05z"/>
					</g>
					<g>
						<g>
							<path class="st0" d="M454.57,83.26c0-19.21-15.17-34.78-33.88-34.78h-59.1v17.69c0,14.37,11.35,26.02,25.35,26.02h25.05
								v19.26c0,15.92,12.57,28.83,28.08,28.83h14.5V87.43c0-0.95-0.04-1.89-0.11-2.82C454.53,84.17,454.57,83.72,454.57,83.26
								L454.57,83.26z"/>
						</g>
						<path class="st1" d="M297.24,102.87c-48.09,0-87.08,39.83-87.08,88.97c0,0.7,0.01,1.4,0.02,2.1
							c-0.02,0.18-0.02,0.37-0.02,0.56v146.7h9.15c24.59,0,44.53-20.37,44.53-45.49l0.28-20.89l-0.13-0.73
							c10.25,4.33,21.48,6.72,33.25,6.72c48.09,0,87.08-39.83,87.08-88.97S345.33,102.87,297.24,102.87z M297.24,239.71
							c-25.88,0-46.86-21.43-46.86-47.87s20.98-47.87,46.86-47.87s46.86,21.43,46.86,47.87S323.12,239.71,297.24,239.71z"/>
					</g>
				</g>
			</g>
		</g>
		<g>
			<rect x="907" y="-13" class="st9" width="626" height="626"/>
			<g>
				<g>
					<g>
						<path class="st4" d="M1022.46,469.93c-2.25,0-3.99-0.64-5.22-1.93c-1.23-1.29-1.84-3.08-1.84-5.39v-41.57
							c0-2.36,0.63-4.17,1.88-5.43c1.25-1.26,3-1.89,5.25-1.89h18.87c6.14,0,10.88,1.61,14.23,4.84c3.35,3.23,5.02,7.68,5.02,13.35
							s-1.68,10.12-5.02,13.35c-3.35,3.23-8.09,4.84-14.23,4.84h-11.89v12.52c0,2.31-0.59,4.11-1.76,5.39
							C1026.58,469.28,1024.81,469.93,1022.46,469.93z M1029.52,438.98h9.43c2.66,0,4.7-0.59,6.14-1.77
							c1.43-1.18,2.15-2.95,2.15-5.31c0-2.41-0.72-4.2-2.15-5.35c-1.43-1.15-3.48-1.73-6.14-1.73h-9.43V438.98z"/>
						<path class="st4" d="M1074.38,469.22c-2.25,0-4-0.64-5.25-1.93c-1.25-1.29-1.88-3.08-1.88-5.39v-40.94
							c0-2.36,0.61-4.17,1.84-5.43s2.96-1.89,5.22-1.89c2.3,0,4.05,0.63,5.25,1.89c1.2,1.26,1.8,3.07,1.8,5.43v36.22h18.71
							c1.94,0,3.44,0.51,4.49,1.54c1.05,1.02,1.57,2.51,1.57,4.45c0,1.94-0.52,3.44-1.57,4.49c-1.05,1.05-2.54,1.57-4.49,1.57
							H1074.38z"/>
						<path class="st4" d="M1113.96,469.93c-1.59,0-2.91-0.38-3.99-1.14c-1.07-0.76-1.74-1.81-1.99-3.15
							c-0.26-1.34-0.03-2.85,0.69-4.53l19.1-42.2c0.92-2.05,2.06-3.54,3.41-4.49c1.35-0.94,2.9-1.42,4.64-1.42
							c1.74,0,3.26,0.47,4.56,1.42c1.3,0.94,2.44,2.44,3.41,4.49l19.1,42.2c0.82,1.68,1.11,3.2,0.88,4.57
							c-0.23,1.37-0.87,2.41-1.92,3.15c-1.05,0.73-2.34,1.1-3.87,1.1c-2.05,0-3.62-0.47-4.72-1.42c-1.1-0.94-2.08-2.47-2.95-4.57
							l-4.14-10l5.37,4.02h-31.6l5.45-4.02l-4.14,10c-0.92,2.1-1.87,3.62-2.84,4.57C1117.43,469.45,1115.95,469.93,1113.96,469.93z
							 M1135.66,428.83l-8.9,21.81l-2.15-3.78h22.32l-2.15,3.78l-8.97-21.81H1135.66z"/>
						<path class="st4" d="M1176.54,469.93c-2.15,0-3.78-0.58-4.91-1.73c-1.13-1.15-1.69-2.86-1.69-5.12v-42.91
							c0-2.31,0.56-4.08,1.69-5.31c1.12-1.23,2.61-1.85,4.45-1.85c1.64,0,2.91,0.31,3.83,0.94c0.92,0.63,1.94,1.68,3.07,3.15
							l24.31,31.18h-2.15v-28.5c0-2.2,0.55-3.88,1.65-5.04c1.1-1.15,2.72-1.73,4.87-1.73c2.15,0,3.77,0.58,4.87,1.73
							c1.1,1.16,1.65,2.83,1.65,5.04v43.62c0,2-0.51,3.58-1.53,4.76c-1.02,1.18-2.4,1.77-4.14,1.77c-1.74,0-3.11-0.33-4.1-0.98
							c-1-0.66-2.06-1.69-3.18-3.11l-24.31-31.26h2.15v28.5c0,2.26-0.55,3.96-1.65,5.12
							C1180.31,469.35,1178.68,469.93,1176.54,469.93z"/>
						<path class="st4" d="M1235.13,469.93c-2.25,0-3.99-0.64-5.22-1.93c-1.23-1.29-1.84-3.11-1.84-5.47V420.4
							c0-2.41,0.61-4.25,1.84-5.51c1.23-1.26,2.96-1.89,5.22-1.89c2.3,0,4.05,0.63,5.25,1.89c1.2,1.26,1.8,3.1,1.8,5.51v42.12
							c0,2.36-0.59,4.19-1.76,5.47C1239.24,469.28,1237.48,469.93,1235.13,469.93z"/>
						<path class="st4" d="M1259.13,469.93c-2.25,0-4-0.64-5.25-1.93c-1.25-1.29-1.88-3.14-1.88-5.55v-41.26
							c0-2.41,0.63-4.26,1.88-5.55c1.25-1.29,3.08-1.93,5.48-1.93h25.54c1.84,0,3.22,0.47,4.14,1.42s1.38,2.31,1.38,4.09
							c0,1.84-0.46,3.24-1.38,4.21c-0.92,0.97-2.3,1.46-4.14,1.46h-18.79v11.18h17.1c1.79,0,3.16,0.47,4.1,1.42
							c0.95,0.94,1.42,2.31,1.42,4.09c0,1.84-0.47,3.23-1.42,4.17c-0.95,0.94-2.31,1.42-4.1,1.42h-17.1v15.27
							C1266.11,467.43,1263.78,469.93,1259.13,469.93z"/>
						<path class="st4" d="M1303.46,469.93c-2.25,0-3.99-0.64-5.22-1.93c-1.23-1.29-1.84-3.11-1.84-5.47V420.4
							c0-2.41,0.61-4.25,1.84-5.51c1.23-1.26,2.96-1.89,5.22-1.89c2.3,0,4.05,0.63,5.25,1.89c1.2,1.26,1.8,3.1,1.8,5.51v42.12
							c0,2.36-0.59,4.19-1.76,5.47C1307.57,469.28,1305.81,469.93,1303.46,469.93z"/>
						<path class="st4" d="M1347.63,470.08c-5.98,0-11.12-1.18-15.42-3.54c-4.29-2.36-7.58-5.69-9.85-10
							c-2.28-4.3-3.41-9.34-3.41-15.12c0-4.3,0.65-8.21,1.96-11.73c1.3-3.52,3.19-6.54,5.68-9.05c2.48-2.52,5.5-4.45,9.05-5.79
							c3.55-1.34,7.55-2.01,12-2.01c2.35,0,4.79,0.28,7.32,0.83c2.53,0.55,4.77,1.38,6.71,2.48c1.43,0.79,2.43,1.79,2.99,2.99
							c0.56,1.21,0.75,2.44,0.58,3.7c-0.18,1.26-0.63,2.39-1.34,3.39c-0.72,1-1.64,1.67-2.76,2.01c-1.13,0.34-2.35,0.17-3.68-0.51
							c-1.53-0.73-3.06-1.3-4.56-1.69c-1.51-0.39-3.08-0.59-4.72-0.59c-3.17,0-5.82,0.62-7.94,1.85c-2.12,1.23-3.72,3.03-4.79,5.39
							s-1.61,5.28-1.61,8.74s0.54,6.39,1.61,8.78c1.07,2.39,2.67,4.2,4.79,5.43c2.12,1.23,4.77,1.85,7.94,1.85
							c1.33,0,2.76-0.17,4.29-0.51c1.53-0.34,3.04-0.88,4.52-1.61c1.53-0.68,2.9-0.87,4.1-0.55c1.2,0.31,2.17,0.94,2.91,1.89
							c0.74,0.94,1.21,2.03,1.42,3.27c0.2,1.23,0.04,2.45-0.5,3.66c-0.54,1.21-1.47,2.18-2.8,2.91c-1.79,1.1-4,1.97-6.63,2.6
							C1352.86,469.77,1350.24,470.08,1347.63,470.08z"/>
						<path class="st4" d="M1374.71,469.93c-1.59,0-2.91-0.38-3.99-1.14s-1.74-1.81-1.99-3.15c-0.26-1.34-0.03-2.85,0.69-4.53
							l19.1-42.2c0.92-2.05,2.06-3.54,3.41-4.49c1.35-0.94,2.9-1.42,4.64-1.42c1.74,0,3.26,0.47,4.56,1.42
							c1.3,0.94,2.44,2.44,3.41,4.49l19.1,42.2c0.82,1.68,1.11,3.2,0.88,4.57c-0.23,1.37-0.87,2.41-1.92,3.15
							c-1.05,0.73-2.34,1.1-3.87,1.1c-2.05,0-3.62-0.47-4.72-1.42c-1.1-0.94-2.08-2.47-2.95-4.57l-4.14-10l5.37,4.02h-31.6
							l5.45-4.02l-4.14,10c-0.92,2.1-1.87,3.62-2.84,4.57C1378.18,469.45,1376.7,469.93,1374.71,469.93z M1396.41,428.83l-8.9,21.81
							l-2.15-3.78h22.32l-2.15,3.78l-8.97-21.81H1396.41z"/>
						<path class="st4" d="M1102.07,551.37c-1.43,0-2.53-0.42-3.3-1.26c-0.77-0.84-1.15-1.99-1.15-3.46v-47.32
							c0-1.52,0.41-2.69,1.23-3.5c0.82-0.81,1.94-1.22,3.37-1.22c1.28,0,2.29,0.25,3.03,0.75c0.74,0.5,1.42,1.35,2.03,2.56
							l18.94,35.98h-2.45l18.94-35.98c0.61-1.21,1.28-2.06,1.99-2.56c0.72-0.5,1.71-0.75,2.99-0.75c1.43,0,2.53,0.41,3.3,1.22
							c0.77,0.81,1.15,1.98,1.15,3.5v47.32c0,1.47-0.37,2.63-1.11,3.46c-0.74,0.84-1.85,1.26-3.34,1.26c-1.43,0-2.53-0.42-3.3-1.26
							c-0.77-0.84-1.15-1.99-1.15-3.46v-36.45h1.69l-16.11,30.16c-0.51,0.89-1.05,1.55-1.61,1.97c-0.56,0.42-1.33,0.63-2.3,0.63
							c-0.97,0-1.76-0.22-2.38-0.67c-0.61-0.45-1.15-1.09-1.61-1.93l-16.26-30.23h1.84v36.53c0,1.47-0.37,2.63-1.11,3.46
							C1104.66,550.94,1103.55,551.37,1102.07,551.37z"/>
						<path class="st4" d="M1169.25,550.74c-1.69,0-2.98-0.46-3.87-1.38c-0.9-0.92-1.34-2.24-1.34-3.98v-44.8
							c0-1.73,0.45-3.06,1.34-3.98c0.89-0.92,2.19-1.38,3.87-1.38h27.38c1.28,0,2.26,0.34,2.95,1.02c0.69,0.68,1.04,1.65,1.04,2.91
							c0,1.31-0.35,2.32-1.04,3.03c-0.69,0.71-1.68,1.06-2.95,1.06h-23.16v15.27h21.47c1.33,0,2.33,0.34,2.99,1.02
							c0.66,0.68,1,1.68,1,2.99c0,1.31-0.33,2.31-1,2.99c-0.67,0.68-1.66,1.02-2.99,1.02h-21.47v16.14h23.16
							c1.28,0,2.26,0.34,2.95,1.02c0.69,0.68,1.04,1.68,1.04,2.99c0,1.31-0.35,2.31-1.04,2.99c-0.69,0.68-1.68,1.02-2.95,1.02
							H1169.25z"/>
						<path class="st4" d="M1208.29,551.29c-1.43,0.05-2.56-0.34-3.37-1.18c-0.82-0.84-1.23-1.92-1.23-3.23c0-1,0.29-1.88,0.88-2.64
							c0.59-0.76,1.44-1.17,2.57-1.22l2.3-0.16c2.25-0.16,3.95-0.88,5.1-2.17c1.15-1.29,1.73-3.14,1.73-5.55v-35.43
							c0-1.68,0.42-2.95,1.27-3.82c0.84-0.87,2.06-1.3,3.64-1.3c1.58,0,2.8,0.43,3.64,1.3c0.84,0.87,1.27,2.14,1.27,3.82v35.35
							c0,3.31-0.58,6.12-1.73,8.42c-1.15,2.31-2.85,4.11-5.1,5.39c-2.25,1.29-5.04,2.03-8.36,2.24L1208.29,551.29z"/>
						<path class="st4" d="M1262.05,551.52c-5.21,0-9.78-1.18-13.69-3.54c-3.91-2.36-6.94-5.68-9.09-9.96
							c-2.15-4.28-3.22-9.3-3.22-15.08c0-4.36,0.61-8.28,1.84-11.77c1.23-3.49,2.98-6.48,5.25-8.98c2.27-2.49,5.01-4.41,8.21-5.75
							c3.19-1.34,6.76-2.01,10.7-2.01c5.27,0,9.84,1.17,13.73,3.5c3.88,2.34,6.9,5.63,9.05,9.88c2.15,4.25,3.22,9.27,3.22,15.04
							c0,4.36-0.61,8.29-1.84,11.81c-1.23,3.52-2.98,6.54-5.25,9.05c-2.28,2.52-5.01,4.45-8.21,5.79
							C1269.55,550.85,1265.98,551.52,1262.05,551.52z M1262.05,542.86c3.32,0,6.15-0.79,8.47-2.36c2.33-1.57,4.11-3.86,5.37-6.85
							c1.25-2.99,1.88-6.56,1.88-10.71c0-6.3-1.37-11.18-4.1-14.64c-2.74-3.46-6.61-5.2-11.62-5.2c-3.27,0-6.08,0.78-8.44,2.32
							c-2.35,1.55-4.15,3.81-5.41,6.77c-1.25,2.97-1.88,6.55-1.88,10.75c0,6.25,1.38,11.13,4.14,14.64
							C1253.23,541.1,1257.09,542.86,1262.05,542.86z"/>
						<path class="st4" d="M1302.92,551.37c-1.59,0-2.8-0.46-3.64-1.38c-0.84-0.92-1.27-2.19-1.27-3.82v-45.82
							c0-1.68,0.43-2.95,1.3-3.82c0.87-0.87,2.1-1.3,3.68-1.3h18.48c5.93,0,10.51,1.46,13.73,4.37c3.22,2.91,4.83,7,4.83,12.24
							c0,3.41-0.73,6.35-2.19,8.82c-1.46,2.47-3.57,4.36-6.33,5.67c-2.76,1.31-6.11,1.97-10.05,1.97l0.69-1.18h2.53
							c2.1,0,3.92,0.53,5.48,1.57c1.56,1.05,2.93,2.7,4.1,4.96l5.75,10.94c0.61,1.1,0.89,2.18,0.84,3.23
							c-0.05,1.05-0.43,1.9-1.15,2.56c-0.72,0.66-1.76,0.98-3.14,0.98c-1.38,0-2.51-0.3-3.37-0.91c-0.87-0.6-1.64-1.54-2.3-2.8
							l-7.75-14.64c-0.92-1.78-2.01-2.98-3.26-3.58c-1.25-0.6-2.85-0.91-4.79-0.91h-7.29v17.64c0,1.63-0.41,2.9-1.23,3.82
							C1305.78,550.91,1304.56,551.37,1302.92,551.37z M1307.83,521.05h11.96c3.53,0,6.2-0.75,8.01-2.24
							c1.81-1.5,2.72-3.74,2.72-6.73c0-2.94-0.91-5.16-2.72-6.65c-1.82-1.5-4.49-2.24-8.01-2.24h-11.96V521.05z"/>
					</g>
					<g>
						<g>
							<path class="st0" d="M1374.57,83.26c0-19.21-15.17-34.78-33.88-34.78h-59.1v17.69c0,14.37,11.35,26.02,25.35,26.02h25.05
								v19.26c0,15.92,12.57,28.83,28.08,28.83h14.5V87.43c0-0.95-0.04-1.89-0.11-2.82C1374.53,84.17,1374.57,83.72,1374.57,83.26
								L1374.57,83.26z"/>
						</g>
						<path class="st4" d="M1217.24,102.87c-48.09,0-87.08,39.83-87.08,88.97c0,0.7,0.01,1.4,0.02,2.1
							c-0.02,0.18-0.02,0.37-0.02,0.56v146.7h9.15c24.59,0,44.53-20.37,44.53-45.49l0.28-20.89l-0.13-0.73
							c10.25,4.33,21.48,6.72,33.25,6.72c48.09,0,87.08-39.83,87.08-88.97S1265.33,102.87,1217.24,102.87z M1217.24,239.71
							c-25.88,0-46.86-21.43-46.86-47.87s20.98-47.87,46.86-47.87c25.88,0,46.86,21.43,46.86,47.87S1243.12,239.71,1217.24,239.71z"
							/>
					</g>
				</g>
			</g>
		</g>
	</g>
</g>
<g id="Logos_Horizontales">
	<g id="_x30_1">
		<rect x="2328.62" y="-136.44" class="st4" width="2094.25" height="665.75"/>
		<g>
			<text transform="matrix(1.0626 0 0 1 2778.3386 255.7424)"><tspan x="0" y="0" class="st2" style="font-family:'Nunito-Black'; font-size:159.6642px;">PLANIFICA </tspan><tspan x="913.59" y="0" class="st2" style="font-family:'Nunito-Bold'; font-size:159.6642px;">MEJOR</tspan></text>
			<g>
				<g>
					<path class="st0" d="M2721.56,80.75c0-19.92-17.15-36.06-38.32-36.06h-66.84v18.34c0,14.9,12.84,26.98,28.67,26.98h28.33v19.97
						c0,16.51,14.22,29.89,31.76,29.89h16.4V85.08c0-0.99-0.05-1.96-0.12-2.93C2721.51,81.7,2721.56,81.23,2721.56,80.75
						L2721.56,80.75z"/>
				</g>
				<path class="st1" d="M2543.61,101.08c-54.39,0-98.49,41.3-98.49,92.24c0,0.73,0.01,1.45,0.03,2.18
					c-0.02,0.19-0.03,0.38-0.03,0.58v152.1h10.34c27.81,0,50.36-21.12,50.36-47.17l0.32-21.66l-0.15-0.76
					c11.59,4.49,24.29,6.97,37.61,6.97c54.39,0,98.49-41.3,98.49-92.24S2598,101.08,2543.61,101.08z M2543.61,242.96
					c-29.27,0-53-22.22-53-49.64s23.73-49.64,53-49.64s53,22.22,53,49.64S2572.88,242.96,2543.61,242.96z"/>
			</g>
		</g>
	</g>
	<g id="_x30_2">
		<g id="_x30_1_00000157270833964798446680000014776926047589348992_">
			<rect x="4504.5" y="-136.44" class="st1" width="2094.25" height="665.75"/>
			<g>
				<text transform="matrix(1.0626 0 0 1 4954.2139 255.7424)"><tspan x="0" y="0" class="st2" style="font-family:'Nunito-Black'; font-size:159.6642px;">PLANIFICA </tspan><tspan x="913.59" y="0" class="st2" style="font-family:'Nunito-Bold'; font-size:159.6642px;">MEJOR</tspan></text>
				<g>
					<g>
						<path class="st0" d="M4897.43,80.75c0-19.92-17.15-36.06-38.32-36.06h-66.84v18.34c0,14.9,12.84,26.98,28.67,26.98h28.33
							v19.97c0,16.51,14.22,29.89,31.76,29.89h16.4V85.08c0-0.99-0.05-1.96-0.12-2.93C4897.38,81.7,4897.43,81.23,4897.43,80.75
							L4897.43,80.75z"/>
					</g>
					<path class="st5" d="M4719.48,101.08c-54.39,0-98.49,41.3-98.49,92.24c0,0.73,0.01,1.45,0.03,2.18
						c-0.02,0.19-0.03,0.38-0.03,0.58v152.1h10.34c27.81,0,50.36-21.12,50.36-47.17l0.32-21.66l-0.15-0.76
						c11.59,4.49,24.29,6.97,37.61,6.97c54.39,0,98.49-41.3,98.49-92.24S4773.88,101.08,4719.48,101.08z M4719.48,242.96
						c-29.27,0-53-22.22-53-49.64s23.73-49.64,53-49.64c29.27,0,53,22.22,53,49.64S4748.75,242.96,4719.48,242.96z"/>
				</g>
			</g>
		</g>
	</g>
	<g id="_x30_3">
		<rect x="2328.38" y="739.44" class="st5" width="2094.25" height="665.75"/>
		<g>
			<text transform="matrix(1.0626 0 0 1 2778.0884 1131.6174)"><tspan x="0" y="0" class="st4" style="font-family:'Nunito-Black'; font-size:159.6642px;">PLANIFICA </tspan><tspan x="913.59" y="0" class="st4" style="font-family:'Nunito-Bold'; font-size:159.6642px;">MEJOR</tspan></text>
			<g>
				<g>
					<path class="st0" d="M2721.31,956.63c0-19.92-17.15-36.06-38.32-36.06h-66.84v18.34c0,14.9,12.84,26.98,28.67,26.98h28.33
						v19.97c0,16.51,14.22,29.89,31.76,29.89h16.4v-54.81c0-0.99-0.05-1.96-0.12-2.93C2721.26,957.57,2721.31,957.11,2721.31,956.63
						L2721.31,956.63z"/>
				</g>
				<path class="st1" d="M2543.36,976.96c-54.39,0-98.49,41.3-98.49,92.24c0,0.73,0.01,1.45,0.03,2.18
					c-0.02,0.19-0.03,0.38-0.03,0.58v152.1h10.34c27.81,0,50.36-21.12,50.36-47.17l0.32-21.66l-0.15-0.76
					c11.59,4.49,24.29,6.97,37.61,6.97c54.39,0,98.49-41.3,98.49-92.24C2641.85,1018.26,2597.75,976.96,2543.36,976.96z
					 M2543.36,1118.84c-29.27,0-53-22.22-53-49.64s23.73-49.64,53-49.64c29.27,0,53,22.22,53,49.64S2572.63,1118.84,2543.36,1118.84
					z"/>
			</g>
		</g>
	</g>
	<g id="_x30_4">
		<g id="_x30_1_00000116209881387471965270000017543486559563154845_">
			<rect x="4504.25" y="739.44" class="st3" width="2094.25" height="665.75"/>
		</g>
		<g>
			<text transform="matrix(1.0626 0 0 1 4953.9634 1131.6174)"><tspan x="0" y="0" class="st4" style="font-family:'Nunito-Black'; font-size:159.6642px;">PLANIFICA </tspan><tspan x="913.59" y="0" class="st4" style="font-family:'Nunito-Bold'; font-size:159.6642px;">MEJOR</tspan></text>
			<g>
				<g>
					<path class="st0" d="M4897.18,956.63c0-19.92-17.15-36.06-38.32-36.06h-66.84v18.34c0,14.9,12.84,26.98,28.67,26.98h28.33
						v19.97c0,16.51,14.22,29.89,31.76,29.89h16.4v-54.81c0-0.99-0.05-1.96-0.12-2.93C4897.13,957.57,4897.18,957.11,4897.18,956.63
						L4897.18,956.63z"/>
				</g>
				<path class="st4" d="M4719.23,976.96c-54.39,0-98.49,41.3-98.49,92.24c0,0.73,0.01,1.45,0.03,2.18
					c-0.02,0.19-0.03,0.38-0.03,0.58v152.1h10.34c27.81,0,50.36-21.12,50.36-47.17l0.32-21.66l-0.15-0.76
					c11.59,4.49,24.29,6.97,37.61,6.97c54.39,0,98.49-41.3,98.49-92.24C4817.72,1018.26,4773.63,976.96,4719.23,976.96z
					 M4719.23,1118.84c-29.27,0-53-22.22-53-49.64s23.73-49.64,53-49.64c29.27,0,53,22.22,53,49.64S4748.5,1118.84,4719.23,1118.84z
					"/>
			</g>
		</g>
	</g>
	<g id="T01">
		<g>
			<text transform="matrix(1.0626 0 0 1 2779.0884 2039.4924)"><tspan x="0" y="0" class="st2" style="font-family:'Nunito-Black'; font-size:159.6642px;">PLANIFICA </tspan><tspan x="913.59" y="0" class="st2" style="font-family:'Nunito-Bold'; font-size:159.6642px;">MEJOR</tspan></text>
			<g>
				<g>
					<path class="st0" d="M2722.31,1864.5c0-19.92-17.15-36.06-38.32-36.06h-66.84v18.34c0,14.9,12.84,26.98,28.67,26.98h28.33
						v19.97c0,16.51,14.22,29.89,31.76,29.89h16.4v-54.81c0-0.99-0.05-1.96-0.12-2.93
						C2722.26,1865.45,2722.31,1864.98,2722.31,1864.5L2722.31,1864.5z"/>
				</g>
				<path class="st1" d="M2544.36,1884.83c-54.39,0-98.49,41.3-98.49,92.24c0,0.73,0.01,1.45,0.03,2.18
					c-0.02,0.19-0.03,0.38-0.03,0.58v152.1h10.34c27.81,0,50.36-21.12,50.36-47.17l0.32-21.66l-0.15-0.76
					c11.59,4.49,24.29,6.97,37.61,6.97c54.39,0,98.49-41.3,98.49-92.24C2642.85,1926.13,2598.75,1884.83,2544.36,1884.83z
					 M2544.36,2026.71c-29.27,0-53-22.22-53-49.64s23.73-49.64,53-49.64s53,22.22,53,49.64S2573.63,2026.71,2544.36,2026.71z"/>
			</g>
		</g>
	</g>
	<g id="T02">
		<g>
			<text transform="matrix(1.0626 0 0 1 4954.9634 2039.4924)"><tspan x="0" y="0" class="st2" style="font-family:'Nunito-Black'; font-size:159.6642px;">PLANIFICA </tspan><tspan x="913.59" y="0" class="st2" style="font-family:'Nunito-Bold'; font-size:159.6642px;">MEJOR</tspan></text>
			<g>
				<g>
					<path class="st0" d="M4898.18,1864.5c0-19.92-17.15-36.06-38.32-36.06h-66.84v18.34c0,14.9,12.84,26.98,28.67,26.98h28.33
						v19.97c0,16.51,14.22,29.89,31.76,29.89h16.4v-54.81c0-0.99-0.05-1.96-0.12-2.93
						C4898.13,1865.45,4898.18,1864.98,4898.18,1864.5L4898.18,1864.5z"/>
				</g>
				<path class="st5" d="M4720.23,1884.83c-54.39,0-98.49,41.3-98.49,92.24c0,0.73,0.01,1.45,0.03,2.18
					c-0.02,0.19-0.03,0.38-0.03,0.58v152.1h10.34c27.81,0,50.36-21.12,50.36-47.17l0.32-21.66l-0.15-0.76
					c11.59,4.49,24.29,6.97,37.61,6.97c54.39,0,98.49-41.3,98.49-92.24C4818.72,1926.13,4774.63,1884.83,4720.23,1884.83z
					 M4720.23,2026.71c-29.27,0-53-22.22-53-49.64s23.73-49.64,53-49.64c29.27,0,53,22.22,53,49.64S4749.5,2026.71,4720.23,2026.71z
					"/>
			</g>
		</g>
	</g>
	<g id="T03">
		<g>
			<text transform="matrix(1.0626 0 0 1 2778.8384 2915.3674)"><tspan x="0" y="0" class="st4" style="font-family:'Nunito-Black'; font-size:159.6642px;">PLANIFICA </tspan><tspan x="913.59" y="0" class="st4" style="font-family:'Nunito-Bold'; font-size:159.6642px;">MEJOR</tspan></text>
			<g>
				<g>
					<path class="st0" d="M2722.06,2740.38c0-19.92-17.15-36.06-38.32-36.06h-66.84v18.34c0,14.9,12.84,26.98,28.67,26.98h28.33
						v19.97c0,16.51,14.22,29.89,31.76,29.89h16.4v-54.81c0-0.99-0.05-1.96-0.12-2.93
						C2722.01,2741.32,2722.06,2740.86,2722.06,2740.38L2722.06,2740.38z"/>
				</g>
				<path class="st1" d="M2544.11,2760.71c-54.39,0-98.49,41.3-98.49,92.24c0,0.73,0.01,1.45,0.03,2.18
					c-0.02,0.19-0.03,0.38-0.03,0.58v152.1h10.34c27.81,0,50.36-21.12,50.36-47.17l0.32-21.66l-0.15-0.76
					c11.59,4.49,24.29,6.97,37.61,6.97c54.39,0,98.49-41.3,98.49-92.24C2642.6,2802.01,2598.5,2760.71,2544.11,2760.71z
					 M2544.11,2902.59c-29.27,0-53-22.22-53-49.64c0-27.41,23.73-49.64,53-49.64s53,22.22,53,49.64
					C2597.11,2880.36,2573.38,2902.59,2544.11,2902.59z"/>
			</g>
		</g>
	</g>
	<g id="T04">
		<g>
			
				<text transform="matrix(1.0626 0 0 1 4945.2954 2915.3674)" class="st4" style="font-family:'Nunito-Black'; font-size:159.6642px;">PLANIFICA MEJOR</text>
		</g>
		<g>
			<g>
				<path class="st0" d="M4897.93,2740.38c0-19.92-17.15-36.06-38.32-36.06h-66.84v18.34c0,14.9,12.84,26.98,28.67,26.98h28.33
					v19.97c0,16.51,14.22,29.89,31.76,29.89h16.4v-54.81c0-0.99-0.05-1.96-0.12-2.93
					C4897.88,2741.32,4897.93,2740.86,4897.93,2740.38L4897.93,2740.38z"/>
			</g>
			<path class="st4" d="M4719.98,2760.71c-54.39,0-98.49,41.3-98.49,92.24c0,0.73,0.01,1.45,0.03,2.18
				c-0.02,0.19-0.03,0.38-0.03,0.58v152.1h10.34c27.81,0,50.36-21.12,50.36-47.17l0.32-21.66l-0.15-0.76
				c11.59,4.49,24.29,6.97,37.61,6.97c54.39,0,98.49-41.3,98.49-92.24C4818.47,2802.01,4774.38,2760.71,4719.98,2760.71z
				 M4719.98,2902.59c-29.27,0-53-22.22-53-49.64c0-27.41,23.73-49.64,53-49.64c29.27,0,53,22.22,53,49.64
				C4772.98,2880.36,4749.25,2902.59,4719.98,2902.59z"/>
		</g>
	</g>
</g>
<g id="Isologo">
	<g id="Isologo_00000078748698906579778680000015350171299426761638_">
		<g class="st10">
			<path class="st11" d="M-1440.08,1489.85h-397.84c-24.81,0-44.93-20.12-44.93-44.93v-397.84c0-24.81,20.12-44.93,44.93-44.93
				h397.84c24.81,0,44.93,20.12,44.93,44.93v397.84C-1395.15,1469.73-1415.27,1489.85-1440.08,1489.85z"/>
			<g class="st12">
				<g>
					<path class="st0" d="M-1483.45,1125.42h-70.84c-16.83,0-30.48-13.64-30.48-30.48v-20.72h71.06c22.5,0,40.73,18.24,40.73,40.73
						l0,0C-1472.98,1120.73-1477.67,1125.42-1483.45,1125.42z"/>
					<path class="st0" d="M-1524.18,1074.24v66.09c0,22.87,18.54,41.41,41.41,41.41h9.79v-56.31
						C-1472.98,1097.16-1495.91,1074.24-1524.18,1074.24L-1524.18,1074.24z"/>
				</g>
				<path class="st1" d="M-1662.15,1137.91c-57.82,0-104.7,46.65-104.7,104.19c0,0.82,0.01,1.64,0.03,2.46
					c-0.02,0.21-0.03,0.43-0.03,0.65v171.81h11c29.57,0,53.54-23.85,53.54-53.28l0.34-24.46l-0.16-0.86
					c12.32,5.07,25.82,7.87,39.98,7.87c57.82,0,104.7-46.65,104.7-104.19S-1604.33,1137.91-1662.15,1137.91z M-1662.15,1298.17
					c-31.12,0-56.34-25.1-56.34-56.07s25.22-56.07,56.34-56.07c31.12,0,56.34,25.1,56.34,56.07S-1631.04,1298.17-1662.15,1298.17z"
					/>
			</g>
		</g>
		<g>
			<path class="st4" d="M-1440.08,1489.85h-397.84c-24.81,0-44.93-20.12-44.93-44.93v-397.84c0-24.81,20.12-44.93,44.93-44.93
				h397.84c24.81,0,44.93,20.12,44.93,44.93v397.84C-1395.15,1469.73-1415.27,1489.85-1440.08,1489.85z"/>
			<g>
				<g>
					<path class="st0" d="M-1472.98,1114.95c0-22.49-18.24-40.73-40.73-40.73h-71.06v20.72c0,16.83,13.64,30.48,30.48,30.48h30.11
						v22.56c0,18.65,15.12,33.77,33.77,33.77h17.43v-61.91c0-1.11-0.05-2.21-0.13-3.3
						C-1473.04,1116.02-1472.98,1115.49-1472.98,1114.95L-1472.98,1114.95z"/>
				</g>
				<path class="st1" d="M-1662.15,1137.91c-57.82,0-104.7,46.65-104.7,104.19c0,0.82,0.01,1.64,0.03,2.46
					c-0.02,0.21-0.03,0.43-0.03,0.65v171.81h11c29.57,0,53.54-23.85,53.54-53.28l0.34-24.46l-0.16-0.86
					c12.32,5.07,25.82,7.87,39.98,7.87c57.82,0,104.7-46.65,104.7-104.19S-1604.33,1137.91-1662.15,1137.91z M-1662.15,1298.17
					c-31.12,0-56.34-25.1-56.34-56.07c0-30.96,25.22-56.07,56.34-56.07c31.12,0,56.34,25.1,56.34,56.07
					C-1605.81,1273.07-1631.04,1298.17-1662.15,1298.17z"/>
			</g>
		</g>
		<g>
			<path class="st1" d="M-429.08,1489.85h-397.84c-24.81,0-44.93-20.12-44.93-44.93v-397.84c0-24.81,20.12-44.93,44.93-44.93h397.84
				c24.81,0,44.93,20.12,44.93,44.93v397.84C-384.15,1469.73-404.27,1489.85-429.08,1489.85z"/>
			<g>
				<g>
					<path class="st0" d="M-461.98,1114.95c0-22.49-18.24-40.73-40.73-40.73h-71.06v20.72c0,16.83,13.64,30.48,30.48,30.48h30.11
						v22.56c0,18.65,15.12,33.77,33.77,33.77h17.43v-61.91c0-1.11-0.05-2.21-0.13-3.3
						C-462.04,1116.02-461.98,1115.49-461.98,1114.95L-461.98,1114.95z"/>
				</g>
				<path class="st2" d="M-651.15,1137.91c-57.82,0-104.7,46.65-104.7,104.19c0,0.82,0.01,1.64,0.03,2.46
					c-0.02,0.21-0.03,0.43-0.03,0.65v171.81h11c29.57,0,53.54-23.85,53.54-53.28l0.34-24.46l-0.16-0.86
					c12.32,5.07,25.82,7.87,39.98,7.87c57.82,0,104.7-46.65,104.7-104.19S-593.33,1137.91-651.15,1137.91z M-651.15,1298.17
					c-31.12,0-56.34-25.1-56.34-56.07c0-30.96,25.22-56.07,56.34-56.07c31.12,0,56.34,25.1,56.34,56.07
					C-594.81,1273.07-620.04,1298.17-651.15,1298.17z"/>
			</g>
		</g>
		<g>
			<path class="st2" d="M498.92,1489.85H101.08c-24.81,0-44.93-20.12-44.93-44.93v-397.84c0-24.81,20.12-44.93,44.93-44.93h397.84
				c24.81,0,44.93,20.12,44.93,44.93v397.84C543.85,1469.73,523.73,1489.85,498.92,1489.85z"/>
			<g>
				<g>
					<path class="st0" d="M466.02,1114.95c0-22.49-18.24-40.73-40.73-40.73h-71.06v20.72c0,16.83,13.64,30.48,30.48,30.48h30.11
						v22.56c0,18.65,15.12,33.77,33.77,33.77h17.43v-61.91c0-1.11-0.05-2.21-0.13-3.3C465.96,1116.02,466.02,1115.49,466.02,1114.95
						L466.02,1114.95z"/>
				</g>
				<path class="st1" d="M276.85,1137.91c-57.82,0-104.7,46.65-104.7,104.19c0,0.82,0.01,1.64,0.03,2.46
					c-0.02,0.21-0.03,0.43-0.03,0.65v171.81h11c29.57,0,53.54-23.85,53.54-53.28l0.34-24.46l-0.16-0.86
					c12.32,5.07,25.82,7.87,39.98,7.87c57.82,0,104.7-46.65,104.7-104.19S334.67,1137.91,276.85,1137.91z M276.85,1298.17
					c-31.12,0-56.34-25.1-56.34-56.07c0-30.96,25.22-56.07,56.34-56.07c31.12,0,56.34,25.1,56.34,56.07
					C333.19,1273.07,307.96,1298.17,276.85,1298.17z"/>
			</g>
		</g>
		<g>
			<path class="st3" d="M1418.92,1489.85h-397.84c-24.81,0-44.93-20.12-44.93-44.93v-397.84c0-24.81,20.12-44.93,44.93-44.93h397.84
				c24.81,0,44.93,20.12,44.93,44.93v397.84C1463.85,1469.73,1443.73,1489.85,1418.92,1489.85z"/>
			<g>
				<g>
					<path class="st0" d="M1386.02,1114.95c0-22.49-18.24-40.73-40.73-40.73h-71.06v20.72c0,16.83,13.64,30.48,30.48,30.48h30.11
						v22.56c0,18.65,15.12,33.77,33.77,33.77h17.43v-61.91c0-1.11-0.05-2.21-0.13-3.3
						C1385.96,1116.02,1386.02,1115.49,1386.02,1114.95L1386.02,1114.95z"/>
				</g>
				<path class="st4" d="M1196.85,1137.91c-57.82,0-104.7,46.65-104.7,104.19c0,0.82,0.01,1.64,0.03,2.46
					c-0.02,0.21-0.03,0.43-0.03,0.65v171.81h11c29.57,0,53.54-23.85,53.54-53.28l0.34-24.46l-0.16-0.86
					c12.32,5.07,25.82,7.87,39.98,7.87c57.82,0,104.7-46.65,104.7-104.19S1254.67,1137.91,1196.85,1137.91z M1196.85,1298.17
					c-31.12,0-56.34-25.1-56.34-56.07c0-30.96,25.22-56.07,56.34-56.07c31.12,0,56.34,25.1,56.34,56.07
					C1253.19,1273.07,1227.96,1298.17,1196.85,1298.17z"/>
			</g>
		</g>
	</g>
	<g>
		<g>
			<g>
				<path class="st0" d="M-1413.02,1961.78c0-32.75-26.55-59.29-59.29-59.29h-103.44v30.16c0,24.5,19.86,44.36,44.36,44.36h43.84
					v32.84c0,27.15,22.01,49.15,49.15,49.15h25.38v-90.12c0-1.62-0.08-3.22-0.19-4.81
					C-1413.1,1963.33-1413.02,1962.57-1413.02,1961.78L-1413.02,1961.78z"/>
			</g>
			<path class="st1" d="M-1688.4,1995.21c-84.17,0-152.41,67.91-152.41,151.67c0,1.2,0.02,2.39,0.04,3.58
				c-0.03,0.31-0.04,0.63-0.04,0.95v250.1h16.01c43.04,0,77.93-34.72,77.93-77.56l0.49-35.61l-0.23-1.25
				c17.93,7.38,37.59,11.46,58.2,11.46c84.17,0,152.41-67.91,152.41-151.67C-1535.99,2063.12-1604.23,1995.21-1688.4,1995.21z
				 M-1688.4,2228.5c-45.29,0-82.01-36.54-82.01-81.62s36.72-81.62,82.01-81.62s82.01,36.54,82.01,81.62
				S-1643.11,2228.5-1688.4,2228.5z"/>
		</g>
		<g>
			<g>
				<path class="st0" d="M-414.11,1961.78c0-32.75-26.55-59.29-59.29-59.29h-103.44v30.16c0,24.5,19.86,44.36,44.36,44.36h43.84
					v32.84c0,27.15,22.01,49.15,49.15,49.15h25.38v-90.12c0-1.62-0.08-3.22-0.19-4.81
					C-414.19,1963.33-414.11,1962.57-414.11,1961.78L-414.11,1961.78z"/>
			</g>
			<path class="st2" d="M-689.48,1995.21c-84.17,0-152.41,67.91-152.41,151.67c0,1.2,0.02,2.39,0.04,3.58
				c-0.03,0.31-0.04,0.63-0.04,0.95v250.1h16.01c43.04,0,77.93-34.72,77.93-77.56l0.49-35.61l-0.23-1.25
				c17.93,7.38,37.59,11.46,58.2,11.46c84.17,0,152.41-67.91,152.41-151.67C-537.08,2063.12-605.31,1995.21-689.48,1995.21z
				 M-689.48,2228.5c-45.29,0-82.01-36.54-82.01-81.62s36.72-81.62,82.01-81.62s82.01,36.54,82.01,81.62
				S-644.19,2228.5-689.48,2228.5z"/>
		</g>
		<g>
			<g>
				<path class="st0" d="M514.89,1961.78c0-32.75-26.55-59.29-59.29-59.29H352.16v30.16c0,24.5,19.86,44.36,44.36,44.36h43.84v32.84
					c0,27.15,22.01,49.15,49.15,49.15h25.38v-90.12c0-1.62-0.08-3.22-0.19-4.81C514.81,1963.33,514.89,1962.57,514.89,1961.78
					L514.89,1961.78z"/>
			</g>
			<path class="st4" d="M239.52,1995.21c-84.17,0-152.41,67.91-152.41,151.67c0,1.2,0.02,2.39,0.04,3.58
				c-0.03,0.31-0.04,0.63-0.04,0.95v250.1h16.01c43.04,0,77.93-34.72,77.93-77.56l0.49-35.61l-0.23-1.25
				c17.93,7.38,37.59,11.46,58.2,11.46c84.17,0,152.41-67.91,152.41-151.67C391.92,2063.12,323.69,1995.21,239.52,1995.21z
				 M239.52,2228.5c-45.29,0-82.01-36.54-82.01-81.62s36.72-81.62,82.01-81.62s82.01,36.54,82.01,81.62S284.81,2228.5,239.52,2228.5
				z"/>
		</g>
	</g>
</g>
</svg>
