<?xml version="1.0" encoding="utf-8"?>
<!-- Generator: Adobe Illustrator 28.0.0, SVG Export Plug-In . SVG Version: 6.00 Build 0)  -->
<svg version="1.1" xmlns="http://www.w3.org/2000/svg" xmlns:xlink="http://www.w3.org/1999/xlink" x="0px" y="0px"
	 viewBox="0 0 600 600" style="enable-background:new 0 0 600 600;" xml:space="preserve">
<style type="text/css">
	.st0{fill:#1AD6B4;}
	.st1{fill:#165EFE;}
	.st2{fill:#F7F7F7;}
	.st3{fill:#C6F7ED;}
	.st4{fill:#061027;}
	.st5{fill:#F7F6F5;}
	.st6{display:none;fill:#061027;}
	.st7{display:none;fill:#165EFE;}
	.st8{display:none;fill:#F7F7F7;}
	.st9{display:none;fill:#C6F7ED;}
	.st10{display:none;}
	.st11{display:inline;fill:#061027;}
	.st12{display:inline;}
</style>
<g id="Logos">
	<g>
		<text transform="matrix(1 0 0 1 -1986.0112 2020.6406)"><tspan x="0" y="0" class="st2" style="font-family:'Nunito-Black'; font-size:398.7893px;">PLANIFICA </tspan><tspan x="2281.84" y="0" class="st2" style="font-family:'Nunito-Bold'; font-size:398.7893px;">MEJOR</tspan></text>
		<g>
			<g>
				<path class="st0" d="M-2119.48,1583.58c0-49.74-40.32-90.07-90.07-90.07h-157.12v45.82c0,37.22,30.17,67.39,67.39,67.39h66.59
					v49.89c0,41.23,33.43,74.66,74.66,74.66h38.55v-136.89c0-2.46-0.12-4.89-0.29-7.31
					C-2119.59,1585.93-2119.48,1584.77-2119.48,1583.58L-2119.48,1583.58z"/>
			</g>
			<path class="st1" d="M-2537.77,1634.35c-127.86,0-231.51,103.15-231.51,230.39c0,1.82,0.02,3.63,0.07,5.44
				c-0.04,0.48-0.07,0.96-0.07,1.45v379.9h24.31c65.38,0,118.38-52.75,118.38-117.81l0.75-54.09l-0.35-1.89
				c27.24,11.21,57.1,17.4,88.41,17.4c127.86,0,231.51-103.15,231.51-230.39S-2409.91,1634.35-2537.77,1634.35z M-2537.77,1988.72
				c-68.8,0-124.58-55.51-124.58-123.98c0-68.47,55.78-123.98,124.58-123.98c68.8,0,124.58,55.51,124.58,123.98
				C-2413.19,1933.21-2468.97,1988.72-2537.77,1988.72z"/>
		</g>
	</g>
	<g>
		<g>
			<path class="st2" d="M-2603.38-1941.34c-7.24,0-12.83-2.02-16.77-6.04c-3.95-4.03-5.92-9.66-5.92-16.9v-130.24
				c0-7.4,2.01-13.07,6.04-17.02c4.03-3.95,9.66-5.92,16.9-5.92h60.68c19.73,0,34.98,5.06,45.76,15.17
				c10.77,10.11,16.16,24.05,16.16,41.81c0,17.76-5.39,31.7-16.16,41.81c-10.77,10.11-26.02,15.17-45.76,15.17h-38.23v39.22
				c0,7.24-1.89,12.87-5.67,16.9C-2590.14-1943.36-2595.82-1941.34-2603.38-1941.34z M-2580.69-2038.28h30.34
				c8.55,0,15.13-1.85,19.73-5.55c4.6-3.7,6.91-9.25,6.91-16.65c0-7.56-2.3-13.15-6.91-16.77c-4.61-3.62-11.18-5.43-19.73-5.43
				h-30.34V-2038.28z"/>
			<path class="st2" d="M-2436.39-1943.56c-7.24,0-12.87-2.01-16.9-6.04c-4.03-4.03-6.04-9.66-6.04-16.9v-128.27
				c0-7.4,1.97-13.07,5.92-17.02c3.95-3.95,9.54-5.92,16.77-5.92c7.4,0,13.03,1.97,16.9,5.92c3.86,3.95,5.8,9.62,5.8,17.02v113.47
				h60.19c6.25,0,11.06,1.6,14.43,4.81c3.37,3.21,5.06,7.85,5.06,13.94c0,6.09-1.69,10.77-5.06,14.06
				c-3.37,3.29-8.18,4.93-14.43,4.93H-2436.39z"/>
			<path class="st2" d="M-2309.11-1941.34c-5.1,0-9.37-1.19-12.83-3.58c-3.45-2.38-5.59-5.67-6.41-9.87
				c-0.82-4.19-0.08-8.92,2.22-14.18l61.42-132.21c2.96-6.41,6.62-11.1,10.98-14.06c4.36-2.96,9.33-4.44,14.92-4.44
				c5.59,0,10.48,1.48,14.68,4.44s7.85,7.65,10.98,14.06l61.42,132.21c2.63,5.26,3.58,10.03,2.84,14.31
				c-0.74,4.28-2.8,7.57-6.17,9.87c-3.37,2.3-7.52,3.45-12.46,3.45c-6.58,0-11.64-1.48-15.17-4.44c-3.54-2.96-6.7-7.73-9.5-14.31
				l-13.32-31.33l17.27,12.58h-101.63l17.51-12.58l-13.32,31.33c-2.96,6.58-6,11.35-9.13,14.31
				C-2297.92-1942.82-2302.69-1941.34-2309.11-1941.34z M-2239.3-2070.1l-28.61,68.33l-6.91-11.84h71.78l-6.91,11.84l-28.86-68.33
				H-2239.3z"/>
			<path class="st2" d="M-2107.83-1941.34c-6.91,0-12.17-1.81-15.79-5.43c-3.62-3.62-5.43-8.96-5.43-16.03v-134.43
				c0-7.23,1.81-12.78,5.43-16.65c3.62-3.86,8.39-5.8,14.31-5.8c5.26,0,9.37,0.99,12.33,2.96s6.25,5.26,9.87,9.87l78.19,97.68h-6.91
				v-89.29c0-6.91,1.77-12.17,5.3-15.79c3.53-3.62,8.76-5.43,15.66-5.43s12.13,1.81,15.66,5.43c3.53,3.62,5.3,8.88,5.3,15.79v136.65
				c0,6.25-1.65,11.22-4.93,14.92c-3.29,3.7-7.73,5.55-13.32,5.55c-5.59,0-9.99-1.03-13.2-3.08c-3.21-2.05-6.62-5.3-10.24-9.74
				l-78.19-97.93h6.91v89.29c0,7.07-1.77,12.42-5.3,16.03C-2095.7-1943.15-2100.92-1941.34-2107.83-1941.34z"/>
			<path class="st2" d="M-1919.37-1941.34c-7.24,0-12.83-2.02-16.77-6.04c-3.95-4.03-5.92-9.74-5.92-17.14v-131.97
				c0-7.56,1.97-13.32,5.92-17.27s9.54-5.92,16.77-5.92c7.4,0,13.03,1.97,16.9,5.92c3.86,3.95,5.8,9.7,5.8,17.27v131.97
				c0,7.4-1.89,13.12-5.67,17.14C-1906.14-1943.36-1911.81-1941.34-1919.37-1941.34z"/>
			<path class="st2" d="M-1842.17-1941.34c-7.24,0-12.87-2.02-16.9-6.04c-4.03-4.03-6.04-9.82-6.04-17.39v-129.25
				c0-7.56,2.01-13.36,6.04-17.39c4.03-4.03,9.91-6.04,17.64-6.04h82.14c5.92,0,10.36,1.48,13.32,4.44
				c2.96,2.96,4.44,7.24,4.44,12.83c0,5.76-1.48,10.16-4.44,13.2c-2.96,3.04-7.4,4.56-13.32,4.56h-60.43v35.03h55.01
				c5.75,0,10.15,1.48,13.2,4.44c3.04,2.96,4.56,7.24,4.56,12.83c0,5.76-1.52,10.11-4.56,13.07c-3.04,2.96-7.44,4.44-13.2,4.44
				h-55.01v47.85C-1819.72-1949.15-1827.21-1941.34-1842.17-1941.34z"/>
			<path class="st2" d="M-1699.6-1941.34c-7.24,0-12.83-2.02-16.77-6.04c-3.95-4.03-5.92-9.74-5.92-17.14v-131.97
				c0-7.56,1.97-13.32,5.92-17.27s9.54-5.92,16.77-5.92c7.4,0,13.03,1.97,16.9,5.92c3.86,3.95,5.8,9.7,5.8,17.27v131.97
				c0,7.4-1.89,13.12-5.67,17.14C-1686.36-1943.36-1692.03-1941.34-1699.6-1941.34z"/>
			<path class="st2" d="M-1557.52-1940.85c-19.24,0-35.77-3.7-49.58-11.1c-13.81-7.4-24.38-17.84-31.7-31.33
				c-7.32-13.48-10.98-29.27-10.98-47.36c0-13.48,2.1-25.73,6.29-36.75c4.19-11.02,10.28-20.47,18.25-28.37
				c7.97-7.89,17.68-13.94,29.11-18.13c11.43-4.19,24.3-6.29,38.6-6.29c7.56,0,15.42,0.86,23.56,2.59s15.33,4.32,21.58,7.77
				c4.6,2.47,7.81,5.59,9.62,9.37c1.81,3.78,2.42,7.65,1.85,11.59c-0.58,3.95-2.02,7.48-4.32,10.61c-2.3,3.13-5.26,5.22-8.88,6.29
				c-3.62,1.07-7.57,0.54-11.84-1.6c-4.93-2.3-9.83-4.07-14.68-5.3c-4.85-1.23-9.91-1.85-15.17-1.85c-10.2,0-18.71,1.93-25.53,5.8
				c-6.83,3.87-11.96,9.5-15.42,16.9c-3.45,7.4-5.18,16.53-5.18,27.38s1.73,20.02,5.18,27.5c3.45,7.48,8.59,13.16,15.42,17.02
				c6.82,3.87,15.33,5.8,25.53,5.8c4.27,0,8.88-0.53,13.81-1.6c4.93-1.07,9.78-2.75,14.55-5.06c4.93-2.14,9.33-2.71,13.2-1.73
				c3.86,0.99,6.99,2.96,9.37,5.92c2.38,2.96,3.9,6.37,4.56,10.24c0.66,3.87,0.12,7.69-1.6,11.47c-1.73,3.78-4.73,6.83-9,9.13
				c-5.76,3.45-12.87,6.17-21.34,8.14C-1540.7-1941.84-1549.13-1940.85-1557.52-1940.85z"/>
			<path class="st2" d="M-1470.44-1941.34c-5.1,0-9.37-1.19-12.83-3.58s-5.59-5.67-6.41-9.87c-0.82-4.19-0.08-8.92,2.22-14.18
				l61.42-132.21c2.96-6.41,6.62-11.1,10.98-14.06c4.36-2.96,9.33-4.44,14.92-4.44c5.59,0,10.48,1.48,14.68,4.44
				s7.85,7.65,10.98,14.06l61.42,132.21c2.63,5.26,3.58,10.03,2.84,14.31c-0.74,4.28-2.8,7.57-6.17,9.87
				c-3.37,2.3-7.52,3.45-12.46,3.45c-6.58,0-11.64-1.48-15.17-4.44c-3.54-2.96-6.7-7.73-9.5-14.31l-13.32-31.33l17.27,12.58h-101.63
				l17.51-12.58l-13.32,31.33c-2.96,6.58-6,11.35-9.13,14.31C-1459.26-1942.82-1464.03-1941.34-1470.44-1941.34z M-1400.64-2070.1
				l-28.61,68.33l-6.91-11.84h71.78l-6.91,11.84l-28.86-68.33H-1400.64z"/>
			<path class="st2" d="M-2347.34-1686.2c-4.61,0-8.14-1.32-10.61-3.95c-2.47-2.63-3.7-6.25-3.7-10.85v-148.25
				c0-4.77,1.31-8.43,3.95-10.98c2.63-2.55,6.25-3.82,10.85-3.82c4.11,0,7.36,0.78,9.74,2.34c2.38,1.56,4.56,4.24,6.54,8.02
				l60.93,112.73h-7.89l60.93-112.73c1.97-3.78,4.11-6.45,6.41-8.02c2.3-1.56,5.51-2.34,9.62-2.34c4.6,0,8.14,1.28,10.61,3.82
				c2.47,2.55,3.7,6.21,3.7,10.98V-1701c0,4.61-1.19,8.22-3.58,10.85c-2.39,2.63-5.96,3.95-10.73,3.95c-4.61,0-8.14-1.32-10.61-3.95
				c-2.47-2.63-3.7-6.25-3.7-10.85v-114.21h5.43l-51.8,94.47c-1.65,2.8-3.37,4.85-5.18,6.17c-1.81,1.32-4.28,1.97-7.4,1.97
				c-3.13,0-5.67-0.7-7.65-2.1c-1.97-1.4-3.7-3.41-5.18-6.04l-52.29-94.72h5.92V-1701c0,4.61-1.19,8.22-3.58,10.85
				C-2338.99-1687.52-2342.57-1686.2-2347.34-1686.2z"/>
			<path class="st2" d="M-2131.26-1688.18c-5.43,0-9.58-1.44-12.46-4.32c-2.88-2.88-4.32-7.03-4.32-12.46v-140.35
				c0-5.43,1.44-9.58,4.32-12.46c2.88-2.88,7.03-4.32,12.46-4.32h88.06c4.11,0,7.28,1.07,9.5,3.21c2.22,2.14,3.33,5.18,3.33,9.13
				c0,4.11-1.11,7.28-3.33,9.5c-2.22,2.22-5.39,3.33-9.5,3.33h-74.49v47.85h69.07c4.27,0,7.48,1.07,9.62,3.21
				c2.14,2.14,3.21,5.26,3.21,9.37c0,4.11-1.07,7.24-3.21,9.37c-2.14,2.14-5.35,3.21-9.62,3.21h-69.07v50.57h74.49
				c4.11,0,7.28,1.07,9.5,3.21c2.22,2.14,3.33,5.26,3.33,9.37c0,4.11-1.11,7.24-3.33,9.37c-2.22,2.14-5.39,3.21-9.5,3.21H-2131.26z"
				/>
			<path class="st2" d="M-2005.71-1686.45c-4.61,0.16-8.22-1.07-10.85-3.7c-2.63-2.63-3.95-6-3.95-10.11c0-3.12,0.95-5.88,2.84-8.26
				c1.89-2.38,4.64-3.66,8.26-3.82l7.4-0.49c7.23-0.49,12.7-2.75,16.4-6.78c3.7-4.03,5.55-9.82,5.55-17.39v-111
				c0-5.26,1.36-9.25,4.07-11.96s6.62-4.07,11.72-4.07c5.1,0,9,1.36,11.72,4.07s4.07,6.7,4.07,11.96v110.75
				c0,10.36-1.85,19.16-5.55,26.39c-3.7,7.24-9.17,12.87-16.4,16.9c-7.24,4.03-16.2,6.37-26.89,7.03L-2005.71-1686.45z"/>
			<path class="st2" d="M-1832.8-1685.71c-16.77,0-31.45-3.7-44.03-11.1c-12.58-7.4-22.32-17.8-29.23-31.2
				c-6.91-13.4-10.36-29.15-10.36-47.24c0-13.65,1.97-25.94,5.92-36.88c3.95-10.93,9.58-20.31,16.9-28.12
				c7.32-7.81,16.11-13.81,26.39-18.01c10.28-4.19,21.75-6.29,34.41-6.29c16.94,0,31.65,3.66,44.15,10.98
				c12.5,7.32,22.2,17.64,29.11,30.96c6.91,13.32,10.36,29.03,10.36,47.11c0,13.65-1.97,25.99-5.92,37
				c-3.95,11.02-9.58,20.47-16.9,28.37c-7.32,7.89-16.12,13.94-26.39,18.13C-1808.67-1687.81-1820.14-1685.71-1832.8-1685.71z
				 M-1832.8-1712.84c10.69,0,19.77-2.47,27.26-7.4c7.48-4.93,13.24-12.09,17.27-21.46c4.03-9.37,6.04-20.55,6.04-33.55
				c0-19.73-4.4-35.03-13.2-45.88c-8.8-10.85-21.26-16.28-37.37-16.28c-10.53,0-19.57,2.43-27.13,7.28
				c-7.57,4.85-13.36,11.93-17.39,21.21c-4.03,9.29-6.04,20.52-6.04,33.67c0,19.57,4.44,34.86,13.32,45.88
				C-1861.17-1718.35-1848.75-1712.84-1832.8-1712.84z"/>
			<path class="st2" d="M-1701.33-1686.2c-5.1,0-9-1.44-11.72-4.32s-4.07-6.86-4.07-11.96v-143.56c0-5.26,1.4-9.25,4.19-11.96
				c2.79-2.71,6.74-4.07,11.84-4.07h59.45c19.07,0,33.79,4.56,44.15,13.69c10.36,9.13,15.54,21.92,15.54,38.36
				c0,10.69-2.34,19.9-7.03,27.63c-4.69,7.73-11.47,13.65-20.35,17.76c-8.88,4.11-19.65,6.17-32.31,6.17l2.22-3.7h8.14
				c6.74,0,12.62,1.65,17.64,4.93c5.01,3.29,9.41,8.47,13.2,15.54l18.5,34.29c1.97,3.45,2.88,6.83,2.71,10.11
				c-0.17,3.29-1.4,5.96-3.7,8.02c-2.3,2.05-5.67,3.08-10.11,3.08c-4.44,0-8.06-0.95-10.85-2.84c-2.8-1.89-5.26-4.81-7.4-8.76
				l-24.91-45.88c-2.96-5.59-6.46-9.33-10.48-11.22c-4.03-1.89-9.17-2.84-15.42-2.84h-23.43v55.25c0,5.1-1.32,9.09-3.95,11.96
				C-1692.12-1687.64-1696.07-1686.2-1701.33-1686.2z M-1685.54-1781.17h38.48c11.35,0,19.94-2.34,25.78-7.03
				c5.84-4.69,8.76-11.72,8.76-21.09c0-9.21-2.92-16.16-8.76-20.84c-5.84-4.69-14.43-7.03-25.78-7.03h-38.48V-1781.17z"/>
		</g>
		<g>
			<g>
				<path class="st0" d="M-1470.87-3152.72c0-60.18-48.78-108.96-108.96-108.96h-190.08v55.43c0,45.03,36.5,81.53,81.53,81.53h80.56
					v60.35c0,49.89,40.44,90.33,90.32,90.33h46.63v-165.6c0-2.98-0.14-5.92-0.35-8.84
					C-1471.01-3149.87-1470.87-3151.27-1470.87-3152.72L-1470.87-3152.72z"/>
			</g>
			<path class="st1" d="M-1976.91-3091.29c-154.68,0-280.07,124.79-280.07,278.72c0,2.2,0.03,4.39,0.08,6.58
				c-0.05,0.57-0.08,1.16-0.08,1.75v459.6h29.42c79.1,0,143.22-63.81,143.22-142.52l0.91-65.44l-0.42-2.29
				c32.96,13.56,69.08,21.05,106.96,21.05c154.68,0,280.07-124.79,280.07-278.72C-1696.84-2966.5-1822.23-3091.29-1976.91-3091.29z
				 M-1976.91-2662.58c-83.24,0-150.71-67.15-150.71-149.98s67.48-149.98,150.71-149.98s150.71,67.15,150.71,149.98
				S-1893.68-2662.58-1976.91-2662.58z"/>
		</g>
	</g>
	<g>
		<g>
			<path class="st0" d="M-1431.17-255.89c0-98.22-79.63-177.85-177.85-177.85h-310.26v90.48c0,73.49,59.58,133.07,133.08,133.07
				h131.49v98.51c0,81.43,66.01,147.44,147.43,147.44h76.12v-270.31c0-4.86-0.24-9.66-0.58-14.43
				C-1431.4-251.24-1431.17-253.54-1431.17-255.89L-1431.17-255.89z"/>
		</g>
		<path class="st1" d="M-2257.17-155.62c-252.48,0-457.16,203.69-457.16,454.95c0,3.59,0.05,7.17,0.13,10.74
			c-0.09,0.94-0.13,1.89-0.13,2.86v750.19h48.01c129.11,0,233.77-104.16,233.77-232.64l1.48-106.82l-0.69-3.74
			c53.79,22.14,112.75,34.36,174.58,34.36c252.48,0,457.16-203.69,457.16-454.95S-2004.69-155.62-2257.17-155.62z M-2257.17,544.14
			c-135.86,0-246-109.61-246-244.82s110.14-244.82,246-244.82s246,109.61,246,244.82S-2121.31,544.14-2257.17,544.14z"/>
	</g>
	<g>
		<g>
			<path class="st3" d="M-606.93-969.78h-397.84c-24.81,0-44.93-20.12-44.93-44.93v-397.84c0-24.81,20.12-44.93,44.93-44.93h397.84
				c24.81,0,44.93,20.12,44.93,44.93v397.84C-562-989.89-582.12-969.78-606.93-969.78z"/>
			<g>
				<g>
					<path class="st0" d="M-639.83-1344.67c0-22.5-18.24-40.73-40.73-40.73h-71.06v20.72c0,16.83,13.64,30.48,30.48,30.48h30.11
						v22.56c0,18.65,15.12,33.77,33.77,33.77h17.43v-61.91c0-1.11-0.05-2.21-0.13-3.3
						C-639.88-1343.61-639.83-1344.13-639.83-1344.67L-639.83-1344.67z"/>
				</g>
				<path class="st4" d="M-829-1321.71c-57.82,0-104.7,46.65-104.7,104.19c0,0.82,0.01,1.64,0.03,2.46
					c-0.02,0.21-0.03,0.43-0.03,0.65v171.81h11c29.57,0,53.54-23.85,53.54-53.28l0.34-24.46l-0.16-0.86
					c12.32,5.07,25.82,7.87,39.98,7.87c57.82,0,104.7-46.65,104.7-104.19S-771.18-1321.71-829-1321.71z M-829-1161.45
					c-31.12,0-56.34-25.1-56.34-56.07s25.22-56.07,56.34-56.07c31.12,0,56.34,25.1,56.34,56.07S-797.88-1161.45-829-1161.45z"/>
			</g>
		</g>
		<g>
			<path class="st5" d="M-1200.64-969.78h-397.84c-24.81,0-44.93-20.12-44.93-44.93v-397.84c0-24.81,20.12-44.93,44.93-44.93h397.84
				c24.81,0,44.93,20.12,44.93,44.93v397.84C-1155.71-989.89-1175.83-969.78-1200.64-969.78z"/>
			<g>
				<g>
					<path class="st0" d="M-1233.54-1344.67c0-22.5-18.24-40.73-40.73-40.73h-71.06v20.72c0,16.83,13.64,30.48,30.48,30.48h30.11
						v22.56c0,18.65,15.12,33.77,33.77,33.77h17.43v-61.91c0-1.11-0.05-2.21-0.13-3.3
						C-1233.6-1343.61-1233.54-1344.13-1233.54-1344.67L-1233.54-1344.67z"/>
				</g>
				<path class="st1" d="M-1422.71-1321.71c-57.82,0-104.7,46.65-104.7,104.19c0,0.82,0.01,1.64,0.03,2.46
					c-0.02,0.21-0.03,0.43-0.03,0.65v171.81h11c29.57,0,53.54-23.85,53.54-53.28l0.34-24.46l-0.16-0.86
					c12.32,5.07,25.82,7.87,39.98,7.87c57.82,0,104.7-46.65,104.7-104.19S-1364.89-1321.71-1422.71-1321.71z M-1422.71-1161.45
					c-31.12,0-56.34-25.1-56.34-56.07s25.22-56.07,56.34-56.07s56.34,25.1,56.34,56.07S-1391.6-1161.45-1422.71-1161.45z"/>
			</g>
		</g>
		<g>
			<path class="st1" d="M-1794.35-969.78h-397.84c-24.81,0-44.93-20.12-44.93-44.93v-397.84c0-24.81,20.12-44.93,44.93-44.93h397.84
				c24.81,0,44.93,20.12,44.93,44.93v397.84C-1749.43-989.89-1769.54-969.78-1794.35-969.78z"/>
			<g>
				<g>
					<path class="st0" d="M-1827.26-1344.67c0-22.5-18.24-40.73-40.73-40.73h-71.06v20.72c0,16.83,13.64,30.48,30.48,30.48h30.11
						v22.56c0,18.65,15.12,33.77,33.77,33.77h17.43v-61.91c0-1.11-0.05-2.21-0.13-3.3
						C-1827.31-1343.61-1827.26-1344.13-1827.26-1344.67L-1827.26-1344.67z"/>
				</g>
				<path class="st5" d="M-2016.43-1321.71c-57.82,0-104.7,46.65-104.7,104.19c0,0.82,0.01,1.64,0.03,2.46
					c-0.02,0.21-0.03,0.43-0.03,0.65v171.81h11c29.57,0,53.54-23.85,53.54-53.28l0.34-24.46l-0.16-0.86
					c12.32,5.07,25.82,7.87,39.98,7.87c57.82,0,104.7-46.65,104.7-104.19S-1958.6-1321.71-2016.43-1321.71z M-2016.43-1161.45
					c-31.12,0-56.34-25.1-56.34-56.07s25.22-56.07,56.34-56.07c31.12,0,56.34,25.1,56.34,56.07S-1985.31-1161.45-2016.43-1161.45z"
					/>
			</g>
		</g>
		<g>
			<ellipse class="st4" cx="-2610.14" cy="-1217.52" rx="56.34" ry="56.07"/>
			<path class="st4" d="M-2388.07-1457.47h-397.84c-24.81,0-44.93,20.12-44.93,44.93v397.84c0,24.81,20.12,44.93,44.93,44.93h397.84
				c24.81,0,44.93-20.12,44.93-44.93v-397.84C-2343.14-1437.35-2363.25-1457.47-2388.07-1457.47z M-2610.14-1113.33
				c-14.16,0-27.66-2.8-39.98-7.87l0.16,0.86l-0.34,24.46c0,29.42-23.97,53.28-53.54,53.28h-11v-171.81c0-0.22,0.01-0.44,0.03-0.65
				c-0.02-0.82-0.03-1.64-0.03-2.46c0-57.54,46.87-104.19,104.7-104.19c57.82,0,104.7,46.65,104.7,104.19
				S-2552.32-1113.33-2610.14-1113.33z M-2420.97-1344.67c0,0.54-0.05,1.06-0.13,1.58c0.08,1.09,0.13,2.19,0.13,3.3v61.91h-17.43
				c-18.65,0-33.77-15.12-33.77-33.77v-22.56h-30.11c-16.83,0-30.48-13.65-30.48-30.48v-20.72h71.06
				C-2439.2-1385.4-2420.97-1367.17-2420.97-1344.67L-2420.97-1344.67z"/>
			<path class="st0" d="M-2461.7-1385.4h-71.06v20.72c0,16.83,13.65,30.48,30.48,30.48h30.11v22.56c0,18.65,15.12,33.77,33.77,33.77
				h17.43v-61.91c0-1.11-0.05-2.21-0.13-3.3c0.08-0.52,0.13-1.04,0.13-1.58v0C-2420.97-1367.17-2439.2-1385.4-2461.7-1385.4z"/>
			<path class="st1" d="M-2610.14-1321.71c-57.82,0-104.7,46.65-104.7,104.19c0,0.82,0.01,1.64,0.03,2.46
				c-0.02,0.21-0.03,0.43-0.03,0.65v171.81h11c29.57,0,53.54-23.85,53.54-53.28l0.34-24.46l-0.16-0.86
				c12.32,5.07,25.82,7.87,39.98,7.87c57.82,0,104.7-46.65,104.7-104.19S-2552.32-1321.71-2610.14-1321.71z M-2610.14-1161.45
				c-31.12,0-56.34-25.1-56.34-56.07c0-30.96,25.22-56.07,56.34-56.07s56.34,25.1,56.34,56.07
				C-2553.8-1186.55-2579.02-1161.45-2610.14-1161.45z"/>
		</g>
	</g>
</g>
<g id="Logos_Verticales">
	<g id="Logo_Vertical">
		<g>
			<rect x="-6" y="-1865" class="st6" width="626" height="626"/>
			<g>
				<g>
					<path class="st2" d="M109.46-1382.07c-2.25,0-3.99-0.64-5.22-1.93c-1.23-1.29-1.84-3.08-1.84-5.39v-41.57
						c0-2.36,0.63-4.17,1.88-5.43c1.25-1.26,3-1.89,5.25-1.89h18.87c6.14,0,10.88,1.61,14.23,4.84c3.35,3.23,5.02,7.68,5.02,13.35
						c0,5.67-1.68,10.12-5.02,13.35c-3.35,3.23-8.09,4.84-14.23,4.84h-11.89v12.52c0,2.31-0.59,4.11-1.76,5.39
						C113.58-1382.72,111.81-1382.07,109.46-1382.07z M116.52-1413.02h9.43c2.66,0,4.7-0.59,6.14-1.77
						c1.43-1.18,2.15-2.95,2.15-5.31c0-2.41-0.72-4.2-2.15-5.35c-1.43-1.15-3.48-1.73-6.14-1.73h-9.43V-1413.02z"/>
					<path class="st2" d="M161.38-1382.78c-2.25,0-4-0.64-5.25-1.93c-1.25-1.29-1.88-3.08-1.88-5.39v-40.94
						c0-2.36,0.61-4.17,1.84-5.43c1.23-1.26,2.96-1.89,5.22-1.89c2.3,0,4.05,0.63,5.25,1.89c1.2,1.26,1.8,3.07,1.8,5.43v36.22h18.71
						c1.94,0,3.44,0.51,4.49,1.54c1.05,1.02,1.57,2.51,1.57,4.45c0,1.94-0.52,3.44-1.57,4.49c-1.05,1.05-2.54,1.57-4.49,1.57H161.38
						z"/>
					<path class="st2" d="M200.96-1382.07c-1.59,0-2.91-0.38-3.99-1.14c-1.07-0.76-1.74-1.81-1.99-3.15
						c-0.26-1.34-0.03-2.85,0.69-4.53l19.1-42.2c0.92-2.05,2.06-3.54,3.41-4.49c1.35-0.94,2.9-1.42,4.64-1.42
						c1.74,0,3.26,0.47,4.56,1.42c1.3,0.94,2.44,2.44,3.41,4.49l19.1,42.2c0.82,1.68,1.11,3.2,0.88,4.57
						c-0.23,1.37-0.87,2.42-1.92,3.15c-1.05,0.73-2.34,1.1-3.87,1.1c-2.05,0-3.62-0.47-4.72-1.42c-1.1-0.94-2.08-2.47-2.95-4.57
						l-4.14-10l5.37,4.02h-31.6l5.45-4.02l-4.14,10c-0.92,2.1-1.87,3.62-2.84,4.57C204.43-1382.55,202.95-1382.07,200.96-1382.07z
						 M222.66-1423.17l-8.9,21.81l-2.15-3.78h22.32l-2.15,3.78l-8.97-21.81H222.66z"/>
					<path class="st2" d="M263.54-1382.07c-2.15,0-3.78-0.58-4.91-1.73c-1.13-1.15-1.69-2.86-1.69-5.12v-42.91
						c0-2.31,0.56-4.08,1.69-5.31c1.12-1.23,2.61-1.85,4.45-1.85c1.64,0,2.91,0.31,3.83,0.94c0.92,0.63,1.94,1.68,3.07,3.15
						l24.31,31.18h-2.15v-28.5c0-2.2,0.55-3.88,1.65-5.04c1.1-1.15,2.72-1.73,4.87-1.73c2.15,0,3.77,0.58,4.87,1.73
						c1.1,1.16,1.65,2.83,1.65,5.04v43.62c0,2-0.51,3.58-1.53,4.76c-1.02,1.18-2.4,1.77-4.14,1.77c-1.74,0-3.11-0.33-4.1-0.98
						c-1-0.66-2.06-1.69-3.18-3.11l-24.31-31.26h2.15v28.5c0,2.26-0.55,3.96-1.65,5.12
						C267.31-1382.65,265.68-1382.07,263.54-1382.07z"/>
					<path class="st2" d="M322.13-1382.07c-2.25,0-3.99-0.64-5.22-1.93c-1.23-1.29-1.84-3.11-1.84-5.47v-42.12
						c0-2.41,0.61-4.25,1.84-5.51c1.23-1.26,2.96-1.89,5.22-1.89c2.3,0,4.05,0.63,5.25,1.89c1.2,1.26,1.8,3.1,1.8,5.51v42.12
						c0,2.36-0.59,4.19-1.76,5.47C326.24-1382.72,324.48-1382.07,322.13-1382.07z"/>
					<path class="st2" d="M346.13-1382.07c-2.25,0-4-0.64-5.25-1.93c-1.25-1.29-1.88-3.14-1.88-5.55v-41.26
						c0-2.41,0.63-4.26,1.88-5.55c1.25-1.29,3.08-1.93,5.48-1.93h25.54c1.84,0,3.22,0.47,4.14,1.42c0.92,0.94,1.38,2.31,1.38,4.09
						c0,1.84-0.46,3.24-1.38,4.21c-0.92,0.97-2.3,1.46-4.14,1.46h-18.79v11.18h17.1c1.79,0,3.16,0.47,4.1,1.42
						c0.95,0.94,1.42,2.31,1.42,4.09c0,1.84-0.47,3.23-1.42,4.17c-0.95,0.94-2.31,1.42-4.1,1.42h-17.1v15.27
						C353.11-1384.57,350.78-1382.07,346.13-1382.07z"/>
					<path class="st2" d="M390.46-1382.07c-2.25,0-3.99-0.64-5.22-1.93c-1.23-1.29-1.84-3.11-1.84-5.47v-42.12
						c0-2.41,0.61-4.25,1.84-5.51c1.23-1.26,2.96-1.89,5.22-1.89c2.3,0,4.05,0.63,5.25,1.89c1.2,1.26,1.8,3.1,1.8,5.51v42.12
						c0,2.36-0.59,4.19-1.76,5.47C394.57-1382.72,392.81-1382.07,390.46-1382.07z"/>
					<path class="st2" d="M434.63-1381.92c-5.98,0-11.12-1.18-15.42-3.54c-4.29-2.36-7.58-5.69-9.85-10
						c-2.28-4.3-3.41-9.34-3.41-15.12c0-4.3,0.65-8.21,1.96-11.73c1.3-3.52,3.19-6.54,5.68-9.05c2.48-2.52,5.5-4.45,9.05-5.79
						c3.55-1.34,7.55-2.01,12-2.01c2.35,0,4.79,0.28,7.32,0.83s4.77,1.38,6.71,2.48c1.43,0.79,2.43,1.79,2.99,2.99
						c0.56,1.21,0.75,2.44,0.58,3.7c-0.18,1.26-0.63,2.39-1.34,3.39c-0.72,1-1.64,1.67-2.76,2.01c-1.13,0.34-2.35,0.17-3.68-0.51
						c-1.53-0.73-3.06-1.3-4.56-1.69c-1.51-0.39-3.08-0.59-4.72-0.59c-3.17,0-5.82,0.62-7.94,1.85c-2.12,1.23-3.72,3.03-4.79,5.39
						c-1.07,2.36-1.61,5.28-1.61,8.74s0.54,6.39,1.61,8.78c1.07,2.39,2.67,4.2,4.79,5.43c2.12,1.23,4.77,1.85,7.94,1.85
						c1.33,0,2.76-0.17,4.29-0.51c1.53-0.34,3.04-0.88,4.52-1.61c1.53-0.68,2.9-0.87,4.1-0.55c1.2,0.31,2.17,0.94,2.91,1.89
						c0.74,0.94,1.21,2.03,1.42,3.27c0.2,1.23,0.04,2.45-0.5,3.66c-0.54,1.21-1.47,2.18-2.8,2.91c-1.79,1.1-4,1.97-6.63,2.6
						C439.86-1382.23,437.24-1381.92,434.63-1381.92z"/>
					<path class="st2" d="M461.71-1382.07c-1.59,0-2.91-0.38-3.99-1.14c-1.07-0.76-1.74-1.81-1.99-3.15
						c-0.26-1.34-0.03-2.85,0.69-4.53l19.1-42.2c0.92-2.05,2.06-3.54,3.41-4.49c1.35-0.94,2.9-1.42,4.64-1.42
						c1.74,0,3.26,0.47,4.56,1.42c1.3,0.94,2.44,2.44,3.41,4.49l19.1,42.2c0.82,1.68,1.11,3.2,0.88,4.57
						c-0.23,1.37-0.87,2.42-1.92,3.15c-1.05,0.73-2.34,1.1-3.87,1.1c-2.05,0-3.62-0.47-4.72-1.42c-1.1-0.94-2.08-2.47-2.95-4.57
						l-4.14-10l5.37,4.02h-31.6l5.45-4.02l-4.14,10c-0.92,2.1-1.87,3.62-2.84,4.57C465.18-1382.55,463.7-1382.07,461.71-1382.07z
						 M483.41-1423.17l-8.9,21.81l-2.15-3.78h22.32l-2.15,3.78l-8.97-21.81H483.41z"/>
					<path class="st2" d="M189.07-1300.63c-1.43,0-2.53-0.42-3.3-1.26c-0.77-0.84-1.15-1.99-1.15-3.46v-47.32
						c0-1.52,0.41-2.69,1.23-3.5c0.82-0.81,1.94-1.22,3.37-1.22c1.28,0,2.29,0.25,3.03,0.75c0.74,0.5,1.42,1.35,2.03,2.56
						l18.94,35.98h-2.45l18.94-35.98c0.61-1.21,1.28-2.06,1.99-2.56c0.72-0.5,1.71-0.75,2.99-0.75c1.43,0,2.53,0.41,3.3,1.22
						c0.77,0.81,1.15,1.98,1.15,3.5v47.32c0,1.47-0.37,2.63-1.11,3.46c-0.74,0.84-1.85,1.26-3.34,1.26c-1.43,0-2.53-0.42-3.3-1.26
						c-0.77-0.84-1.15-1.99-1.15-3.46v-36.45h1.69l-16.11,30.16c-0.51,0.89-1.05,1.55-1.61,1.97c-0.56,0.42-1.33,0.63-2.3,0.63
						c-0.97,0-1.76-0.22-2.38-0.67c-0.61-0.45-1.15-1.09-1.61-1.93l-16.26-30.23h1.84v36.53c0,1.47-0.37,2.63-1.11,3.46
						C191.66-1301.06,190.55-1300.63,189.07-1300.63z"/>
					<path class="st2" d="M256.25-1301.26c-1.69,0-2.98-0.46-3.87-1.38c-0.9-0.92-1.34-2.24-1.34-3.98v-44.8
						c0-1.73,0.45-3.06,1.34-3.98c0.89-0.92,2.19-1.38,3.87-1.38h27.38c1.28,0,2.26,0.34,2.95,1.02c0.69,0.68,1.04,1.65,1.04,2.91
						c0,1.31-0.35,2.32-1.04,3.03c-0.69,0.71-1.68,1.06-2.95,1.06h-23.16v15.27h21.47c1.33,0,2.33,0.34,2.99,1.02
						c0.66,0.68,1,1.68,1,2.99c0,1.31-0.33,2.31-1,2.99c-0.67,0.68-1.66,1.02-2.99,1.02h-21.47v16.14h23.16
						c1.28,0,2.26,0.34,2.95,1.02c0.69,0.68,1.04,1.68,1.04,2.99c0,1.31-0.35,2.31-1.04,2.99c-0.69,0.68-1.68,1.02-2.95,1.02H256.25
						z"/>
					<path class="st2" d="M295.29-1300.71c-1.43,0.05-2.56-0.34-3.37-1.18c-0.82-0.84-1.23-1.92-1.23-3.23c0-1,0.29-1.88,0.88-2.64
						c0.59-0.76,1.44-1.17,2.57-1.22l2.3-0.16c2.25-0.16,3.95-0.88,5.1-2.17c1.15-1.29,1.73-3.14,1.73-5.55v-35.43
						c0-1.68,0.42-2.95,1.27-3.82c0.84-0.87,2.06-1.3,3.64-1.3c1.58,0,2.8,0.43,3.64,1.3c0.84,0.87,1.27,2.14,1.27,3.82v35.35
						c0,3.31-0.58,6.12-1.73,8.42c-1.15,2.31-2.85,4.11-5.1,5.39c-2.25,1.29-5.04,2.03-8.36,2.24L295.29-1300.71z"/>
					<path class="st2" d="M349.05-1300.48c-5.22,0-9.78-1.18-13.69-3.54c-3.91-2.36-6.94-5.68-9.09-9.96
						c-2.15-4.28-3.22-9.3-3.22-15.08c0-4.36,0.61-8.28,1.84-11.77c1.23-3.49,2.98-6.48,5.25-8.98c2.27-2.49,5.01-4.41,8.21-5.75
						c3.19-1.34,6.76-2.01,10.7-2.01c5.27,0,9.84,1.17,13.73,3.5c3.88,2.34,6.9,5.63,9.05,9.88c2.15,4.25,3.22,9.26,3.22,15.04
						c0,4.36-0.61,8.29-1.84,11.81c-1.23,3.52-2.98,6.54-5.25,9.05c-2.28,2.52-5.01,4.45-8.21,5.79
						C356.55-1301.15,352.98-1300.48,349.05-1300.48z M349.05-1309.14c3.32,0,6.15-0.79,8.47-2.36c2.33-1.57,4.12-3.86,5.37-6.85
						c1.25-2.99,1.88-6.56,1.88-10.71c0-6.3-1.37-11.18-4.1-14.64c-2.74-3.46-6.61-5.2-11.62-5.2c-3.27,0-6.09,0.78-8.44,2.32
						c-2.35,1.55-4.15,3.81-5.41,6.77c-1.25,2.97-1.88,6.55-1.88,10.75c0,6.25,1.38,11.13,4.14,14.64
						C340.23-1310.9,344.09-1309.14,349.05-1309.14z"/>
					<path class="st2" d="M389.92-1300.63c-1.59,0-2.8-0.46-3.64-1.38s-1.27-2.19-1.27-3.82v-45.82c0-1.68,0.43-2.95,1.3-3.82
						c0.87-0.87,2.1-1.3,3.68-1.3h18.48c5.93,0,10.51,1.46,13.73,4.37c3.22,2.91,4.83,7,4.83,12.24c0,3.41-0.73,6.35-2.19,8.82
						c-1.46,2.47-3.57,4.36-6.33,5.67c-2.76,1.31-6.11,1.97-10.05,1.97l0.69-1.18h2.53c2.1,0,3.92,0.53,5.48,1.57
						c1.56,1.05,2.93,2.7,4.1,4.96l5.75,10.94c0.61,1.1,0.89,2.18,0.84,3.23c-0.05,1.05-0.43,1.9-1.15,2.56
						c-0.72,0.66-1.76,0.98-3.14,0.98c-1.38,0-2.51-0.3-3.37-0.91c-0.87-0.6-1.64-1.54-2.3-2.8l-7.75-14.64
						c-0.92-1.78-2.01-2.98-3.26-3.58c-1.25-0.6-2.85-0.91-4.79-0.91h-7.29v17.64c0,1.63-0.41,2.9-1.23,3.82
						C392.78-1301.09,391.56-1300.63,389.92-1300.63z M394.83-1330.95h11.96c3.53,0,6.2-0.75,8.01-2.24
						c1.81-1.5,2.72-3.74,2.72-6.73c0-2.94-0.91-5.16-2.72-6.65c-1.82-1.5-4.49-2.24-8.01-2.24h-11.96V-1330.95z"/>
				</g>
				<g>
					<g>
						<path class="st0" d="M461.57-1768.74c0-19.21-15.17-34.78-33.88-34.78h-59.1v17.69c0,14.37,11.35,26.02,25.35,26.02h25.05
							v19.26c0,15.92,12.57,28.83,28.08,28.83h14.5v-52.86c0-0.95-0.04-1.89-0.11-2.82
							C461.53-1767.83,461.57-1768.28,461.57-1768.74L461.57-1768.74z"/>
					</g>
					<path class="st1" d="M304.24-1749.13c-48.09,0-87.08,39.83-87.08,88.97c0,0.7,0.01,1.4,0.02,2.1
						c-0.02,0.18-0.02,0.37-0.02,0.56v146.7h9.15c24.59,0,44.53-20.37,44.53-45.49l0.28-20.89l-0.13-0.73
						c10.25,4.33,21.48,6.72,33.25,6.72c48.09,0,87.08-39.83,87.08-88.97S352.33-1749.13,304.24-1749.13z M304.24-1612.29
						c-25.88,0-46.86-21.43-46.86-47.87s20.98-47.87,46.86-47.87s46.86,21.43,46.86,47.87S330.12-1612.29,304.24-1612.29z"/>
				</g>
			</g>
		</g>
		<g>
			<g>
				<rect x="1005" y="-1865" class="st7" width="626" height="626"/>
				<g>
					<g>
						<path class="st2" d="M1120.46-1382.07c-2.25,0-3.99-0.64-5.22-1.93c-1.23-1.29-1.84-3.08-1.84-5.39v-41.57
							c0-2.36,0.63-4.17,1.88-5.43c1.25-1.26,3-1.89,5.25-1.89h18.87c6.14,0,10.88,1.61,14.23,4.84c3.35,3.23,5.02,7.68,5.02,13.35
							c0,5.67-1.68,10.12-5.02,13.35c-3.35,3.23-8.09,4.84-14.23,4.84h-11.89v12.52c0,2.31-0.59,4.11-1.76,5.39
							C1124.58-1382.72,1122.81-1382.07,1120.46-1382.07z M1127.52-1413.02h9.43c2.66,0,4.7-0.59,6.14-1.77
							c1.43-1.18,2.15-2.95,2.15-5.31c0-2.41-0.72-4.2-2.15-5.35c-1.43-1.15-3.48-1.73-6.14-1.73h-9.43V-1413.02z"/>
						<path class="st2" d="M1172.38-1382.78c-2.25,0-4-0.64-5.25-1.93c-1.25-1.29-1.88-3.08-1.88-5.39v-40.94
							c0-2.36,0.61-4.17,1.84-5.43s2.96-1.89,5.22-1.89c2.3,0,4.05,0.63,5.25,1.89c1.2,1.26,1.8,3.07,1.8,5.43v36.22h18.71
							c1.94,0,3.44,0.51,4.49,1.54c1.05,1.02,1.57,2.51,1.57,4.45c0,1.94-0.52,3.44-1.57,4.49c-1.05,1.05-2.54,1.57-4.49,1.57
							H1172.38z"/>
						<path class="st2" d="M1211.96-1382.07c-1.59,0-2.91-0.38-3.99-1.14c-1.07-0.76-1.74-1.81-1.99-3.15
							c-0.26-1.34-0.03-2.85,0.69-4.53l19.1-42.2c0.92-2.05,2.06-3.54,3.41-4.49c1.35-0.94,2.9-1.42,4.64-1.42
							c1.74,0,3.26,0.47,4.56,1.42c1.3,0.94,2.44,2.44,3.41,4.49l19.1,42.2c0.82,1.68,1.11,3.2,0.88,4.57
							c-0.23,1.37-0.87,2.42-1.92,3.15c-1.05,0.73-2.34,1.1-3.87,1.1c-2.05,0-3.62-0.47-4.72-1.42c-1.1-0.94-2.08-2.47-2.95-4.57
							l-4.14-10l5.37,4.02h-31.6l5.45-4.02l-4.14,10c-0.92,2.1-1.87,3.62-2.84,4.57
							C1215.43-1382.55,1213.95-1382.07,1211.96-1382.07z M1233.66-1423.17l-8.9,21.81l-2.15-3.78h22.32l-2.15,3.78l-8.97-21.81
							H1233.66z"/>
						<path class="st2" d="M1274.54-1382.07c-2.15,0-3.78-0.58-4.91-1.73c-1.13-1.15-1.69-2.86-1.69-5.12v-42.91
							c0-2.31,0.56-4.08,1.69-5.31c1.12-1.23,2.61-1.85,4.45-1.85c1.64,0,2.91,0.31,3.83,0.94c0.92,0.63,1.94,1.68,3.07,3.15
							l24.31,31.18h-2.15v-28.5c0-2.2,0.55-3.88,1.65-5.04c1.1-1.15,2.72-1.73,4.87-1.73c2.15,0,3.77,0.58,4.87,1.73
							c1.1,1.16,1.65,2.83,1.65,5.04v43.62c0,2-0.51,3.58-1.53,4.76c-1.02,1.18-2.4,1.77-4.14,1.77c-1.74,0-3.11-0.33-4.1-0.98
							c-1-0.66-2.06-1.69-3.18-3.11l-24.31-31.26h2.15v28.5c0,2.26-0.55,3.96-1.65,5.12
							C1278.31-1382.65,1276.68-1382.07,1274.54-1382.07z"/>
						<path class="st2" d="M1333.13-1382.07c-2.25,0-3.99-0.64-5.22-1.93c-1.23-1.29-1.84-3.11-1.84-5.47v-42.12
							c0-2.41,0.61-4.25,1.84-5.51c1.23-1.26,2.96-1.89,5.22-1.89c2.3,0,4.05,0.63,5.25,1.89c1.2,1.26,1.8,3.1,1.8,5.51v42.12
							c0,2.36-0.59,4.19-1.76,5.47C1337.24-1382.72,1335.48-1382.07,1333.13-1382.07z"/>
						<path class="st2" d="M1357.13-1382.07c-2.25,0-4-0.64-5.25-1.93c-1.25-1.29-1.88-3.14-1.88-5.55v-41.26
							c0-2.41,0.63-4.26,1.88-5.55c1.25-1.29,3.08-1.93,5.48-1.93h25.54c1.84,0,3.22,0.47,4.14,1.42c0.92,0.94,1.38,2.31,1.38,4.09
							c0,1.84-0.46,3.24-1.38,4.21c-0.92,0.97-2.3,1.46-4.14,1.46h-18.79v11.18h17.1c1.79,0,3.16,0.47,4.1,1.42
							c0.95,0.94,1.42,2.31,1.42,4.09c0,1.84-0.47,3.23-1.42,4.17c-0.95,0.94-2.31,1.42-4.1,1.42h-17.1v15.27
							C1364.11-1384.57,1361.78-1382.07,1357.13-1382.07z"/>
						<path class="st2" d="M1401.46-1382.07c-2.25,0-3.99-0.64-5.22-1.93c-1.23-1.29-1.84-3.11-1.84-5.47v-42.12
							c0-2.41,0.61-4.25,1.84-5.51c1.23-1.26,2.96-1.89,5.22-1.89c2.3,0,4.05,0.63,5.25,1.89c1.2,1.26,1.8,3.1,1.8,5.51v42.12
							c0,2.36-0.59,4.19-1.76,5.47C1405.57-1382.72,1403.81-1382.07,1401.46-1382.07z"/>
						<path class="st2" d="M1445.63-1381.92c-5.98,0-11.12-1.18-15.42-3.54c-4.29-2.36-7.58-5.69-9.85-10
							c-2.28-4.3-3.41-9.34-3.41-15.12c0-4.3,0.65-8.21,1.96-11.73c1.3-3.52,3.19-6.54,5.68-9.05c2.48-2.52,5.5-4.45,9.05-5.79
							c3.55-1.34,7.55-2.01,12-2.01c2.35,0,4.79,0.28,7.32,0.83c2.53,0.55,4.77,1.38,6.71,2.48c1.43,0.79,2.43,1.79,2.99,2.99
							c0.56,1.21,0.75,2.44,0.58,3.7c-0.18,1.26-0.63,2.39-1.34,3.39c-0.72,1-1.64,1.67-2.76,2.01c-1.13,0.34-2.35,0.17-3.68-0.51
							c-1.53-0.73-3.06-1.3-4.56-1.69c-1.51-0.39-3.08-0.59-4.72-0.59c-3.17,0-5.82,0.62-7.94,1.85c-2.12,1.23-3.72,3.03-4.79,5.39
							c-1.07,2.36-1.61,5.28-1.61,8.74s0.54,6.39,1.61,8.78c1.07,2.39,2.67,4.2,4.79,5.43c2.12,1.23,4.77,1.85,7.94,1.85
							c1.33,0,2.76-0.17,4.29-0.51c1.53-0.34,3.04-0.88,4.52-1.61c1.53-0.68,2.9-0.87,4.1-0.55c1.2,0.31,2.17,0.94,2.91,1.89
							c0.74,0.94,1.21,2.03,1.42,3.27c0.2,1.23,0.04,2.45-0.5,3.66c-0.54,1.21-1.47,2.18-2.8,2.91c-1.79,1.1-4,1.97-6.63,2.6
							C1450.86-1382.23,1448.24-1381.92,1445.63-1381.92z"/>
						<path class="st2" d="M1472.71-1382.07c-1.59,0-2.91-0.38-3.99-1.14s-1.74-1.81-1.99-3.15c-0.26-1.34-0.03-2.85,0.69-4.53
							l19.1-42.2c0.92-2.05,2.06-3.54,3.41-4.49c1.35-0.94,2.9-1.42,4.64-1.42c1.74,0,3.26,0.47,4.56,1.42
							c1.3,0.94,2.44,2.44,3.41,4.49l19.1,42.2c0.82,1.68,1.11,3.2,0.88,4.57c-0.23,1.37-0.87,2.42-1.92,3.15
							c-1.05,0.73-2.34,1.1-3.87,1.1c-2.05,0-3.62-0.47-4.72-1.42c-1.1-0.94-2.08-2.47-2.95-4.57l-4.14-10l5.37,4.02h-31.6
							l5.45-4.02l-4.14,10c-0.92,2.1-1.87,3.62-2.84,4.57C1476.18-1382.55,1474.7-1382.07,1472.71-1382.07z M1494.41-1423.17
							l-8.9,21.81l-2.15-3.78h22.32l-2.15,3.78l-8.97-21.81H1494.41z"/>
						<path class="st2" d="M1200.07-1300.63c-1.43,0-2.53-0.42-3.3-1.26c-0.77-0.84-1.15-1.99-1.15-3.46v-47.32
							c0-1.52,0.41-2.69,1.23-3.5c0.82-0.81,1.94-1.22,3.37-1.22c1.28,0,2.29,0.25,3.03,0.75c0.74,0.5,1.42,1.35,2.03,2.56
							l18.94,35.98h-2.45l18.94-35.98c0.61-1.21,1.28-2.06,1.99-2.56c0.72-0.5,1.71-0.75,2.99-0.75c1.43,0,2.53,0.41,3.3,1.22
							c0.77,0.81,1.15,1.98,1.15,3.5v47.32c0,1.47-0.37,2.63-1.11,3.46c-0.74,0.84-1.85,1.26-3.34,1.26c-1.43,0-2.53-0.42-3.3-1.26
							c-0.77-0.84-1.15-1.99-1.15-3.46v-36.45h1.69l-16.11,30.16c-0.51,0.89-1.05,1.55-1.61,1.97c-0.56,0.42-1.33,0.63-2.3,0.63
							c-0.97,0-1.76-0.22-2.38-0.67c-0.61-0.45-1.15-1.09-1.61-1.93l-16.26-30.23h1.84v36.53c0,1.47-0.37,2.63-1.11,3.46
							C1202.66-1301.06,1201.55-1300.63,1200.07-1300.63z"/>
						<path class="st2" d="M1267.25-1301.26c-1.69,0-2.98-0.46-3.87-1.38c-0.9-0.92-1.34-2.24-1.34-3.98v-44.8
							c0-1.73,0.45-3.06,1.34-3.98c0.89-0.92,2.19-1.38,3.87-1.38h27.38c1.28,0,2.26,0.34,2.95,1.02c0.69,0.68,1.04,1.65,1.04,2.91
							c0,1.31-0.35,2.32-1.04,3.03c-0.69,0.71-1.68,1.06-2.95,1.06h-23.16v15.27h21.47c1.33,0,2.33,0.34,2.99,1.02
							c0.66,0.68,1,1.68,1,2.99c0,1.31-0.33,2.31-1,2.99c-0.67,0.68-1.66,1.02-2.99,1.02h-21.47v16.14h23.16
							c1.28,0,2.26,0.34,2.95,1.02c0.69,0.68,1.04,1.68,1.04,2.99c0,1.31-0.35,2.31-1.04,2.99c-0.69,0.68-1.68,1.02-2.95,1.02
							H1267.25z"/>
						<path class="st2" d="M1306.29-1300.71c-1.43,0.05-2.56-0.34-3.37-1.18c-0.82-0.84-1.23-1.92-1.23-3.23
							c0-1,0.29-1.88,0.88-2.64c0.59-0.76,1.44-1.17,2.57-1.22l2.3-0.16c2.25-0.16,3.95-0.88,5.1-2.17
							c1.15-1.29,1.73-3.14,1.73-5.55v-35.43c0-1.68,0.42-2.95,1.27-3.82c0.84-0.87,2.06-1.3,3.64-1.3c1.58,0,2.8,0.43,3.64,1.3
							c0.84,0.87,1.27,2.14,1.27,3.82v35.35c0,3.31-0.58,6.12-1.73,8.42c-1.15,2.31-2.85,4.11-5.1,5.39
							c-2.25,1.29-5.04,2.03-8.36,2.24L1306.29-1300.71z"/>
						<path class="st2" d="M1360.05-1300.48c-5.21,0-9.78-1.18-13.69-3.54c-3.91-2.36-6.94-5.68-9.09-9.96
							c-2.15-4.28-3.22-9.3-3.22-15.08c0-4.36,0.61-8.28,1.84-11.77c1.23-3.49,2.98-6.48,5.25-8.98c2.27-2.49,5.01-4.41,8.21-5.75
							c3.19-1.34,6.76-2.01,10.7-2.01c5.27,0,9.84,1.17,13.73,3.5c3.88,2.34,6.9,5.63,9.05,9.88c2.15,4.25,3.22,9.26,3.22,15.04
							c0,4.36-0.61,8.29-1.84,11.81c-1.23,3.52-2.98,6.54-5.25,9.05c-2.28,2.52-5.01,4.45-8.21,5.79
							C1367.55-1301.15,1363.98-1300.48,1360.05-1300.48z M1360.05-1309.14c3.32,0,6.15-0.79,8.47-2.36
							c2.33-1.57,4.11-3.86,5.37-6.85c1.25-2.99,1.88-6.56,1.88-10.71c0-6.3-1.37-11.18-4.1-14.64c-2.74-3.46-6.61-5.2-11.62-5.2
							c-3.27,0-6.08,0.78-8.44,2.32c-2.35,1.55-4.15,3.81-5.41,6.77c-1.25,2.97-1.88,6.55-1.88,10.75c0,6.25,1.38,11.13,4.14,14.64
							C1351.23-1310.9,1355.09-1309.14,1360.05-1309.14z"/>
						<path class="st2" d="M1400.92-1300.63c-1.59,0-2.8-0.46-3.64-1.38c-0.84-0.92-1.27-2.19-1.27-3.82v-45.82
							c0-1.68,0.43-2.95,1.3-3.82c0.87-0.87,2.1-1.3,3.68-1.3h18.48c5.93,0,10.51,1.46,13.73,4.37c3.22,2.91,4.83,7,4.83,12.24
							c0,3.41-0.73,6.35-2.19,8.82c-1.46,2.47-3.57,4.36-6.33,5.67c-2.76,1.31-6.11,1.97-10.05,1.97l0.69-1.18h2.53
							c2.1,0,3.92,0.53,5.48,1.57c1.56,1.05,2.93,2.7,4.1,4.96l5.75,10.94c0.61,1.1,0.89,2.18,0.84,3.23
							c-0.05,1.05-0.43,1.9-1.15,2.56c-0.72,0.66-1.76,0.98-3.14,0.98c-1.38,0-2.51-0.3-3.37-0.91c-0.87-0.6-1.64-1.54-2.3-2.8
							l-7.75-14.64c-0.92-1.78-2.01-2.98-3.26-3.58c-1.25-0.6-2.85-0.91-4.79-0.91h-7.29v17.64c0,1.63-0.41,2.9-1.23,3.82
							C1403.78-1301.09,1402.56-1300.63,1400.92-1300.63z M1405.83-1330.95h11.96c3.53,0,6.2-0.75,8.01-2.24
							c1.81-1.5,2.72-3.74,2.72-6.73c0-2.94-0.91-5.16-2.72-6.65c-1.82-1.5-4.49-2.24-8.01-2.24h-11.96V-1330.95z"/>
					</g>
					<g>
						<g>
							<path class="st0" d="M1472.57-1768.74c0-19.21-15.17-34.78-33.88-34.78h-59.1v17.69c0,14.37,11.35,26.02,25.35,26.02h25.05
								v19.26c0,15.92,12.57,28.83,28.08,28.83h14.5v-52.86c0-0.95-0.04-1.89-0.11-2.82
								C1472.53-1767.83,1472.57-1768.28,1472.57-1768.74L1472.57-1768.74z"/>
						</g>
						<path class="st2" d="M1315.24-1749.13c-48.09,0-87.08,39.83-87.08,88.97c0,0.7,0.01,1.4,0.02,2.1
							c-0.02,0.18-0.02,0.37-0.02,0.56v146.7h9.15c24.59,0,44.53-20.37,44.53-45.49l0.28-20.89l-0.13-0.73
							c10.25,4.33,21.48,6.72,33.25,6.72c48.09,0,87.08-39.83,87.08-88.97S1363.33-1749.13,1315.24-1749.13z M1315.24-1612.29
							c-25.88,0-46.86-21.43-46.86-47.87s20.98-47.87,46.86-47.87c25.88,0,46.86,21.43,46.86,47.87S1341.12-1612.29,1315.24-1612.29
							z"/>
					</g>
				</g>
			</g>
		</g>
		<g>
			<g>
				<rect x="1933" y="-1865" class="st8" width="626" height="626"/>
				<g>
					<g>
						<path class="st4" d="M2048.46-1382.07c-2.25,0-3.99-0.64-5.22-1.93c-1.23-1.29-1.84-3.08-1.84-5.39v-41.57
							c0-2.36,0.63-4.17,1.88-5.43c1.25-1.26,3-1.89,5.25-1.89h18.87c6.14,0,10.88,1.61,14.23,4.84c3.35,3.23,5.02,7.68,5.02,13.35
							c0,5.67-1.68,10.12-5.02,13.35c-3.35,3.23-8.09,4.84-14.23,4.84h-11.89v12.52c0,2.31-0.59,4.11-1.76,5.39
							C2052.58-1382.72,2050.81-1382.07,2048.46-1382.07z M2055.52-1413.02h9.43c2.66,0,4.7-0.59,6.14-1.77
							c1.43-1.18,2.15-2.95,2.15-5.31c0-2.41-0.72-4.2-2.15-5.35c-1.43-1.15-3.48-1.73-6.14-1.73h-9.43V-1413.02z"/>
						<path class="st4" d="M2100.38-1382.78c-2.25,0-4-0.64-5.25-1.93c-1.25-1.29-1.88-3.08-1.88-5.39v-40.94
							c0-2.36,0.61-4.17,1.84-5.43s2.96-1.89,5.22-1.89c2.3,0,4.05,0.63,5.25,1.89c1.2,1.26,1.8,3.07,1.8,5.43v36.22h18.71
							c1.94,0,3.44,0.51,4.49,1.54c1.05,1.02,1.57,2.51,1.57,4.45c0,1.94-0.52,3.44-1.57,4.49c-1.05,1.05-2.54,1.57-4.49,1.57
							H2100.38z"/>
						<path class="st4" d="M2139.96-1382.07c-1.59,0-2.91-0.38-3.99-1.14s-1.74-1.81-1.99-3.15c-0.26-1.34-0.03-2.85,0.69-4.53
							l19.1-42.2c0.92-2.05,2.06-3.54,3.41-4.49c1.35-0.94,2.9-1.42,4.64-1.42c1.74,0,3.26,0.47,4.56,1.42
							c1.3,0.94,2.44,2.44,3.41,4.49l19.1,42.2c0.82,1.68,1.11,3.2,0.88,4.57c-0.23,1.37-0.87,2.42-1.92,3.15
							c-1.05,0.73-2.34,1.1-3.87,1.1c-2.05,0-3.62-0.47-4.72-1.42c-1.1-0.94-2.08-2.47-2.95-4.57l-4.14-10l5.37,4.02h-31.6
							l5.45-4.02l-4.14,10c-0.92,2.1-1.87,3.62-2.84,4.57C2143.43-1382.55,2141.95-1382.07,2139.96-1382.07z M2161.66-1423.17
							l-8.9,21.81l-2.15-3.78h22.32l-2.15,3.78l-8.97-21.81H2161.66z"/>
						<path class="st4" d="M2202.54-1382.07c-2.15,0-3.78-0.58-4.91-1.73c-1.13-1.15-1.69-2.86-1.69-5.12v-42.91
							c0-2.31,0.56-4.08,1.69-5.31c1.12-1.23,2.61-1.85,4.45-1.85c1.64,0,2.91,0.31,3.83,0.94c0.92,0.63,1.94,1.68,3.07,3.15
							l24.31,31.18h-2.15v-28.5c0-2.2,0.55-3.88,1.65-5.04c1.1-1.15,2.72-1.73,4.87-1.73c2.15,0,3.77,0.58,4.87,1.73
							c1.1,1.16,1.65,2.83,1.65,5.04v43.62c0,2-0.51,3.58-1.53,4.76c-1.02,1.18-2.4,1.77-4.14,1.77c-1.74,0-3.11-0.33-4.1-0.98
							c-1-0.66-2.06-1.69-3.18-3.11l-24.31-31.26h2.15v28.5c0,2.26-0.55,3.96-1.65,5.12
							C2206.31-1382.65,2204.68-1382.07,2202.54-1382.07z"/>
						<path class="st4" d="M2261.13-1382.07c-2.25,0-3.99-0.64-5.22-1.93c-1.23-1.29-1.84-3.11-1.84-5.47v-42.12
							c0-2.41,0.61-4.25,1.84-5.51c1.23-1.26,2.96-1.89,5.22-1.89c2.3,0,4.05,0.63,5.25,1.89c1.2,1.26,1.8,3.1,1.8,5.51v42.12
							c0,2.36-0.59,4.19-1.76,5.47C2265.24-1382.72,2263.48-1382.07,2261.13-1382.07z"/>
						<path class="st4" d="M2285.13-1382.07c-2.25,0-4-0.64-5.25-1.93c-1.25-1.29-1.88-3.14-1.88-5.55v-41.26
							c0-2.41,0.63-4.26,1.88-5.55c1.25-1.29,3.08-1.93,5.48-1.93h25.54c1.84,0,3.22,0.47,4.14,1.42c0.92,0.94,1.38,2.31,1.38,4.09
							c0,1.84-0.46,3.24-1.38,4.21c-0.92,0.97-2.3,1.46-4.14,1.46h-18.79v11.18h17.1c1.79,0,3.16,0.47,4.1,1.42
							c0.95,0.94,1.42,2.31,1.42,4.09c0,1.84-0.47,3.23-1.42,4.17c-0.95,0.94-2.31,1.42-4.1,1.42h-17.1v15.27
							C2292.11-1384.57,2289.78-1382.07,2285.13-1382.07z"/>
						<path class="st4" d="M2329.46-1382.07c-2.25,0-3.99-0.64-5.22-1.93c-1.23-1.29-1.84-3.11-1.84-5.47v-42.12
							c0-2.41,0.61-4.25,1.84-5.51c1.23-1.26,2.96-1.89,5.22-1.89c2.3,0,4.05,0.63,5.25,1.89c1.2,1.26,1.8,3.1,1.8,5.51v42.12
							c0,2.36-0.59,4.19-1.76,5.47C2333.57-1382.72,2331.81-1382.07,2329.46-1382.07z"/>
						<path class="st4" d="M2373.63-1381.92c-5.98,0-11.12-1.18-15.42-3.54c-4.29-2.36-7.58-5.69-9.85-10
							c-2.28-4.3-3.41-9.34-3.41-15.12c0-4.3,0.65-8.21,1.96-11.73c1.3-3.52,3.19-6.54,5.68-9.05c2.48-2.52,5.5-4.45,9.05-5.79
							c3.55-1.34,7.55-2.01,12-2.01c2.35,0,4.79,0.28,7.32,0.83c2.53,0.55,4.77,1.38,6.71,2.48c1.43,0.79,2.43,1.79,2.99,2.99
							c0.56,1.21,0.75,2.44,0.58,3.7c-0.18,1.26-0.63,2.39-1.34,3.39c-0.72,1-1.64,1.67-2.76,2.01c-1.13,0.34-2.35,0.17-3.68-0.51
							c-1.53-0.73-3.06-1.3-4.56-1.69c-1.51-0.39-3.08-0.59-4.72-0.59c-3.17,0-5.82,0.62-7.94,1.85c-2.12,1.23-3.72,3.03-4.79,5.39
							c-1.07,2.36-1.61,5.28-1.61,8.74s0.54,6.39,1.61,8.78c1.07,2.39,2.67,4.2,4.79,5.43c2.12,1.23,4.77,1.85,7.94,1.85
							c1.33,0,2.76-0.17,4.29-0.51c1.53-0.34,3.04-0.88,4.52-1.61c1.53-0.68,2.9-0.87,4.1-0.55c1.2,0.31,2.17,0.94,2.91,1.89
							c0.74,0.94,1.21,2.03,1.42,3.27c0.2,1.23,0.04,2.45-0.5,3.66c-0.54,1.21-1.47,2.18-2.8,2.91c-1.79,1.1-4,1.97-6.63,2.6
							C2378.86-1382.23,2376.24-1381.92,2373.63-1381.92z"/>
						<path class="st4" d="M2400.71-1382.07c-1.59,0-2.91-0.38-3.99-1.14c-1.07-0.76-1.74-1.81-1.99-3.15
							c-0.26-1.34-0.03-2.85,0.69-4.53l19.1-42.2c0.92-2.05,2.06-3.54,3.41-4.49c1.35-0.94,2.9-1.42,4.64-1.42
							c1.74,0,3.26,0.47,4.56,1.42c1.3,0.94,2.44,2.44,3.41,4.49l19.1,42.2c0.82,1.68,1.11,3.2,0.88,4.57
							c-0.23,1.37-0.87,2.42-1.92,3.15c-1.05,0.73-2.34,1.1-3.87,1.1c-2.05,0-3.62-0.47-4.72-1.42c-1.1-0.94-2.08-2.47-2.95-4.57
							l-4.14-10l5.37,4.02h-31.6l5.45-4.02l-4.14,10c-0.92,2.1-1.87,3.62-2.84,4.57C2404.18-1382.55,2402.7-1382.07,2400.71-1382.07
							z M2422.41-1423.17l-8.9,21.81l-2.15-3.78h22.32l-2.15,3.78l-8.97-21.81H2422.41z"/>
						<path class="st4" d="M2128.07-1300.63c-1.43,0-2.53-0.42-3.3-1.26c-0.77-0.84-1.15-1.99-1.15-3.46v-47.32
							c0-1.52,0.41-2.69,1.23-3.5c0.82-0.81,1.94-1.22,3.37-1.22c1.28,0,2.29,0.25,3.03,0.75c0.74,0.5,1.42,1.35,2.03,2.56
							l18.94,35.98h-2.45l18.94-35.98c0.61-1.21,1.28-2.06,1.99-2.56c0.72-0.5,1.71-0.75,2.99-0.75c1.43,0,2.53,0.41,3.3,1.22
							c0.77,0.81,1.15,1.98,1.15,3.5v47.32c0,1.47-0.37,2.63-1.11,3.46c-0.74,0.84-1.85,1.26-3.34,1.26c-1.43,0-2.53-0.42-3.3-1.26
							c-0.77-0.84-1.15-1.99-1.15-3.46v-36.45h1.69l-16.11,30.16c-0.51,0.89-1.05,1.55-1.61,1.97c-0.56,0.42-1.33,0.63-2.3,0.63
							c-0.97,0-1.76-0.22-2.38-0.67c-0.61-0.45-1.15-1.09-1.61-1.93l-16.26-30.23h1.84v36.53c0,1.47-0.37,2.63-1.11,3.46
							C2130.66-1301.06,2129.55-1300.63,2128.07-1300.63z"/>
						<path class="st4" d="M2195.25-1301.26c-1.69,0-2.98-0.46-3.87-1.38c-0.9-0.92-1.34-2.24-1.34-3.98v-44.8
							c0-1.73,0.45-3.06,1.34-3.98c0.89-0.92,2.19-1.38,3.87-1.38h27.38c1.28,0,2.26,0.34,2.95,1.02c0.69,0.68,1.04,1.65,1.04,2.91
							c0,1.31-0.35,2.32-1.04,3.03s-1.68,1.06-2.95,1.06h-23.16v15.27h21.47c1.33,0,2.33,0.34,2.99,1.02c0.66,0.68,1,1.68,1,2.99
							c0,1.31-0.33,2.31-1,2.99c-0.67,0.68-1.66,1.02-2.99,1.02h-21.47v16.14h23.16c1.28,0,2.26,0.34,2.95,1.02
							c0.69,0.68,1.04,1.68,1.04,2.99c0,1.31-0.35,2.31-1.04,2.99c-0.69,0.68-1.68,1.02-2.95,1.02H2195.25z"/>
						<path class="st4" d="M2234.29-1300.71c-1.43,0.05-2.56-0.34-3.37-1.18c-0.82-0.84-1.23-1.92-1.23-3.23
							c0-1,0.29-1.88,0.88-2.64c0.59-0.76,1.44-1.17,2.57-1.22l2.3-0.16c2.25-0.16,3.95-0.88,5.1-2.17
							c1.15-1.29,1.73-3.14,1.73-5.55v-35.43c0-1.68,0.42-2.95,1.27-3.82c0.84-0.87,2.06-1.3,3.64-1.3c1.58,0,2.8,0.43,3.64,1.3
							c0.84,0.87,1.27,2.14,1.27,3.82v35.35c0,3.31-0.58,6.12-1.73,8.42c-1.15,2.31-2.85,4.11-5.1,5.39
							c-2.25,1.29-5.04,2.03-8.36,2.24L2234.29-1300.71z"/>
						<path class="st4" d="M2288.05-1300.48c-5.22,0-9.78-1.18-13.69-3.54c-3.91-2.36-6.94-5.68-9.09-9.96
							c-2.15-4.28-3.22-9.3-3.22-15.08c0-4.36,0.61-8.28,1.84-11.77c1.23-3.49,2.98-6.48,5.25-8.98c2.27-2.49,5.01-4.41,8.21-5.75
							c3.19-1.34,6.76-2.01,10.7-2.01c5.27,0,9.84,1.17,13.73,3.5c3.89,2.34,6.9,5.63,9.05,9.88c2.15,4.25,3.22,9.26,3.22,15.04
							c0,4.36-0.61,8.29-1.84,11.81c-1.23,3.52-2.98,6.54-5.25,9.05c-2.28,2.52-5.01,4.45-8.21,5.79
							C2295.55-1301.15,2291.98-1300.48,2288.05-1300.48z M2288.05-1309.14c3.32,0,6.15-0.79,8.47-2.36
							c2.33-1.57,4.11-3.86,5.37-6.85c1.25-2.99,1.88-6.56,1.88-10.71c0-6.3-1.37-11.18-4.1-14.64c-2.74-3.46-6.61-5.2-11.62-5.2
							c-3.27,0-6.09,0.78-8.44,2.32c-2.35,1.55-4.15,3.81-5.41,6.77c-1.25,2.97-1.88,6.55-1.88,10.75c0,6.25,1.38,11.13,4.14,14.64
							C2279.23-1310.9,2283.09-1309.14,2288.05-1309.14z"/>
						<path class="st4" d="M2328.92-1300.63c-1.59,0-2.8-0.46-3.64-1.38c-0.84-0.92-1.27-2.19-1.27-3.82v-45.82
							c0-1.68,0.43-2.95,1.3-3.82c0.87-0.87,2.1-1.3,3.68-1.3h18.48c5.93,0,10.51,1.46,13.73,4.37c3.22,2.91,4.83,7,4.83,12.24
							c0,3.41-0.73,6.35-2.19,8.82c-1.46,2.47-3.57,4.36-6.33,5.67c-2.76,1.31-6.11,1.97-10.05,1.97l0.69-1.18h2.53
							c2.1,0,3.92,0.53,5.48,1.57c1.56,1.05,2.93,2.7,4.1,4.96l5.75,10.94c0.61,1.1,0.89,2.18,0.84,3.23
							c-0.05,1.05-0.44,1.9-1.15,2.56c-0.72,0.66-1.76,0.98-3.14,0.98s-2.51-0.3-3.37-0.91c-0.87-0.6-1.64-1.54-2.3-2.8l-7.75-14.64
							c-0.92-1.78-2.01-2.98-3.26-3.58c-1.25-0.6-2.85-0.91-4.79-0.91h-7.29v17.64c0,1.63-0.41,2.9-1.23,3.82
							C2331.78-1301.09,2330.56-1300.63,2328.92-1300.63z M2333.83-1330.95h11.96c3.53,0,6.2-0.75,8.01-2.24
							c1.81-1.5,2.72-3.74,2.72-6.73c0-2.94-0.91-5.16-2.72-6.65c-1.82-1.5-4.49-2.24-8.01-2.24h-11.96V-1330.95z"/>
					</g>
					<g>
						<g>
							<path class="st0" d="M2400.57-1768.74c0-19.21-15.17-34.78-33.88-34.78h-59.1v17.69c0,14.37,11.35,26.02,25.35,26.02h25.05
								v19.26c0,15.92,12.57,28.83,28.08,28.83h14.5v-52.86c0-0.95-0.04-1.89-0.11-2.82
								C2400.53-1767.83,2400.57-1768.28,2400.57-1768.74L2400.57-1768.74z"/>
						</g>
						<path class="st1" d="M2243.24-1749.13c-48.09,0-87.08,39.83-87.08,88.97c0,0.7,0.01,1.4,0.02,2.1
							c-0.02,0.18-0.02,0.37-0.02,0.56v146.7h9.15c24.59,0,44.53-20.37,44.53-45.49l0.28-20.89l-0.13-0.73
							c10.25,4.33,21.48,6.72,33.25,6.72c48.09,0,87.08-39.83,87.08-88.97S2291.33-1749.13,2243.24-1749.13z M2243.24-1612.29
							c-25.88,0-46.86-21.43-46.86-47.87s20.98-47.87,46.86-47.87s46.86,21.43,46.86,47.87S2269.12-1612.29,2243.24-1612.29z"/>
					</g>
				</g>
			</g>
		</g>
		<g>
			<rect x="2853" y="-1865" class="st9" width="626" height="626"/>
			<g>
				<g>
					<g>
						<path class="st4" d="M2968.46-1382.07c-2.25,0-3.99-0.64-5.22-1.93c-1.23-1.29-1.84-3.08-1.84-5.39v-41.57
							c0-2.36,0.63-4.17,1.88-5.43c1.25-1.26,3-1.89,5.25-1.89h18.87c6.14,0,10.88,1.61,14.23,4.84c3.35,3.23,5.02,7.68,5.02,13.35
							c0,5.67-1.68,10.12-5.02,13.35c-3.35,3.23-8.09,4.84-14.23,4.84h-11.89v12.52c0,2.31-0.59,4.11-1.76,5.39
							C2972.58-1382.72,2970.81-1382.07,2968.46-1382.07z M2975.52-1413.02h9.43c2.66,0,4.7-0.59,6.14-1.77
							c1.43-1.18,2.15-2.95,2.15-5.31c0-2.41-0.72-4.2-2.15-5.35c-1.43-1.15-3.48-1.73-6.14-1.73h-9.43V-1413.02z"/>
						<path class="st4" d="M3020.38-1382.78c-2.25,0-4-0.64-5.25-1.93c-1.25-1.29-1.88-3.08-1.88-5.39v-40.94
							c0-2.36,0.61-4.17,1.84-5.43s2.96-1.89,5.22-1.89c2.3,0,4.05,0.63,5.25,1.89c1.2,1.26,1.8,3.07,1.8,5.43v36.22h18.71
							c1.94,0,3.44,0.51,4.49,1.54c1.05,1.02,1.57,2.51,1.57,4.45c0,1.94-0.52,3.44-1.57,4.49c-1.05,1.05-2.54,1.57-4.49,1.57
							H3020.38z"/>
						<path class="st4" d="M3059.96-1382.07c-1.59,0-2.91-0.38-3.99-1.14s-1.74-1.81-1.99-3.15c-0.26-1.34-0.03-2.85,0.69-4.53
							l19.1-42.2c0.92-2.05,2.06-3.54,3.41-4.49c1.35-0.94,2.9-1.42,4.64-1.42c1.74,0,3.26,0.47,4.56,1.42
							c1.3,0.94,2.44,2.44,3.41,4.49l19.1,42.2c0.82,1.68,1.11,3.2,0.88,4.57c-0.23,1.37-0.87,2.42-1.92,3.15
							c-1.05,0.73-2.34,1.1-3.87,1.1c-2.05,0-3.62-0.47-4.72-1.42c-1.1-0.94-2.08-2.47-2.95-4.57l-4.14-10l5.37,4.02h-31.6
							l5.45-4.02l-4.14,10c-0.92,2.1-1.87,3.62-2.84,4.57C3063.43-1382.55,3061.95-1382.07,3059.96-1382.07z M3081.66-1423.17
							l-8.9,21.81l-2.15-3.78h22.32l-2.15,3.78l-8.97-21.81H3081.66z"/>
						<path class="st4" d="M3122.54-1382.07c-2.15,0-3.78-0.58-4.91-1.73c-1.13-1.15-1.69-2.86-1.69-5.12v-42.91
							c0-2.31,0.56-4.08,1.69-5.31c1.12-1.23,2.61-1.85,4.45-1.85c1.64,0,2.91,0.31,3.83,0.94c0.92,0.63,1.94,1.68,3.07,3.15
							l24.31,31.18h-2.15v-28.5c0-2.2,0.55-3.88,1.65-5.04c1.1-1.15,2.72-1.73,4.87-1.73c2.15,0,3.77,0.58,4.87,1.73
							c1.1,1.16,1.65,2.83,1.65,5.04v43.62c0,2-0.51,3.58-1.53,4.76c-1.02,1.18-2.4,1.77-4.14,1.77c-1.74,0-3.11-0.33-4.1-0.98
							c-1-0.66-2.06-1.69-3.18-3.11l-24.31-31.26h2.15v28.5c0,2.26-0.55,3.96-1.65,5.12
							C3126.31-1382.65,3124.68-1382.07,3122.54-1382.07z"/>
						<path class="st4" d="M3181.13-1382.07c-2.25,0-3.99-0.64-5.22-1.93c-1.23-1.29-1.84-3.11-1.84-5.47v-42.12
							c0-2.41,0.61-4.25,1.84-5.51c1.23-1.26,2.96-1.89,5.22-1.89c2.3,0,4.05,0.63,5.25,1.89c1.2,1.26,1.8,3.1,1.8,5.51v42.12
							c0,2.36-0.59,4.19-1.76,5.47C3185.24-1382.72,3183.48-1382.07,3181.13-1382.07z"/>
						<path class="st4" d="M3205.13-1382.07c-2.25,0-4-0.64-5.25-1.93c-1.25-1.29-1.88-3.14-1.88-5.55v-41.26
							c0-2.41,0.63-4.26,1.88-5.55c1.25-1.29,3.08-1.93,5.48-1.93h25.54c1.84,0,3.22,0.47,4.14,1.42c0.92,0.94,1.38,2.31,1.38,4.09
							c0,1.84-0.46,3.24-1.38,4.21c-0.92,0.97-2.3,1.46-4.14,1.46h-18.79v11.18h17.1c1.79,0,3.16,0.47,4.1,1.42
							c0.95,0.94,1.42,2.31,1.42,4.09c0,1.84-0.47,3.23-1.42,4.17c-0.95,0.94-2.31,1.42-4.1,1.42h-17.1v15.27
							C3212.11-1384.57,3209.78-1382.07,3205.13-1382.07z"/>
						<path class="st4" d="M3249.46-1382.07c-2.25,0-3.99-0.64-5.22-1.93c-1.23-1.29-1.84-3.11-1.84-5.47v-42.12
							c0-2.41,0.61-4.25,1.84-5.51c1.23-1.26,2.96-1.89,5.22-1.89c2.3,0,4.05,0.63,5.25,1.89c1.2,1.26,1.8,3.1,1.8,5.51v42.12
							c0,2.36-0.59,4.19-1.76,5.47C3253.57-1382.72,3251.81-1382.07,3249.46-1382.07z"/>
						<path class="st4" d="M3293.63-1381.92c-5.98,0-11.12-1.18-15.42-3.54c-4.29-2.36-7.58-5.69-9.85-10
							c-2.28-4.3-3.41-9.34-3.41-15.12c0-4.3,0.65-8.21,1.96-11.73c1.3-3.52,3.19-6.54,5.68-9.05c2.48-2.52,5.5-4.45,9.05-5.79
							c3.55-1.34,7.55-2.01,12-2.01c2.35,0,4.79,0.28,7.32,0.83c2.53,0.55,4.77,1.38,6.71,2.48c1.43,0.79,2.43,1.79,2.99,2.99
							c0.56,1.21,0.75,2.44,0.58,3.7c-0.18,1.26-0.63,2.39-1.34,3.39c-0.72,1-1.64,1.67-2.76,2.01c-1.13,0.34-2.35,0.17-3.68-0.51
							c-1.53-0.73-3.06-1.3-4.56-1.69c-1.51-0.39-3.08-0.59-4.72-0.59c-3.17,0-5.82,0.62-7.94,1.85c-2.12,1.23-3.72,3.03-4.79,5.39
							c-1.07,2.36-1.61,5.28-1.61,8.74s0.54,6.39,1.61,8.78c1.07,2.39,2.67,4.2,4.79,5.43c2.12,1.23,4.77,1.85,7.94,1.85
							c1.33,0,2.76-0.17,4.29-0.51c1.53-0.34,3.04-0.88,4.52-1.61c1.53-0.68,2.9-0.87,4.1-0.55c1.2,0.31,2.17,0.94,2.91,1.89
							c0.74,0.94,1.21,2.03,1.42,3.27c0.2,1.23,0.04,2.45-0.5,3.66c-0.54,1.21-1.47,2.18-2.8,2.91c-1.79,1.1-4,1.97-6.63,2.6
							C3298.86-1382.23,3296.24-1381.92,3293.63-1381.92z"/>
						<path class="st4" d="M3320.71-1382.07c-1.59,0-2.91-0.38-3.99-1.14c-1.07-0.76-1.74-1.81-1.99-3.15
							c-0.26-1.34-0.03-2.85,0.69-4.53l19.1-42.2c0.92-2.05,2.06-3.54,3.41-4.49c1.35-0.94,2.9-1.42,4.64-1.42
							c1.74,0,3.26,0.47,4.56,1.42c1.3,0.94,2.44,2.44,3.41,4.49l19.1,42.2c0.82,1.68,1.11,3.2,0.88,4.57
							c-0.23,1.37-0.87,2.42-1.92,3.15c-1.05,0.73-2.34,1.1-3.87,1.1c-2.05,0-3.62-0.47-4.72-1.42c-1.1-0.94-2.08-2.47-2.95-4.57
							l-4.14-10l5.37,4.02h-31.6l5.45-4.02l-4.14,10c-0.92,2.1-1.87,3.62-2.84,4.57C3324.18-1382.55,3322.7-1382.07,3320.71-1382.07
							z M3342.41-1423.17l-8.9,21.81l-2.15-3.78h22.32l-2.15,3.78l-8.97-21.81H3342.41z"/>
						<path class="st4" d="M3048.07-1300.63c-1.43,0-2.53-0.42-3.3-1.26c-0.77-0.84-1.15-1.99-1.15-3.46v-47.32
							c0-1.52,0.41-2.69,1.23-3.5c0.82-0.81,1.94-1.22,3.37-1.22c1.28,0,2.29,0.25,3.03,0.75c0.74,0.5,1.42,1.35,2.03,2.56
							l18.94,35.98h-2.45l18.94-35.98c0.61-1.21,1.28-2.06,1.99-2.56c0.72-0.5,1.71-0.75,2.99-0.75c1.43,0,2.53,0.41,3.3,1.22
							c0.77,0.81,1.15,1.98,1.15,3.5v47.32c0,1.47-0.37,2.63-1.11,3.46c-0.74,0.84-1.85,1.26-3.34,1.26c-1.43,0-2.53-0.42-3.3-1.26
							c-0.77-0.84-1.15-1.99-1.15-3.46v-36.45h1.69l-16.11,30.16c-0.51,0.89-1.05,1.55-1.61,1.97c-0.56,0.42-1.33,0.63-2.3,0.63
							c-0.97,0-1.76-0.22-2.38-0.67c-0.61-0.45-1.15-1.09-1.61-1.93l-16.26-30.23h1.84v36.53c0,1.47-0.37,2.63-1.11,3.46
							C3050.66-1301.06,3049.55-1300.63,3048.07-1300.63z"/>
						<path class="st4" d="M3115.25-1301.26c-1.69,0-2.98-0.46-3.87-1.38c-0.9-0.92-1.34-2.24-1.34-3.98v-44.8
							c0-1.73,0.45-3.06,1.34-3.98c0.89-0.92,2.19-1.38,3.87-1.38h27.38c1.28,0,2.26,0.34,2.95,1.02c0.69,0.68,1.04,1.65,1.04,2.91
							c0,1.31-0.35,2.32-1.04,3.03s-1.68,1.06-2.95,1.06h-23.16v15.27h21.47c1.33,0,2.33,0.34,2.99,1.02c0.66,0.68,1,1.68,1,2.99
							c0,1.31-0.33,2.31-1,2.99c-0.67,0.68-1.66,1.02-2.99,1.02h-21.47v16.14h23.16c1.28,0,2.26,0.34,2.95,1.02
							c0.69,0.68,1.04,1.68,1.04,2.99c0,1.31-0.35,2.31-1.04,2.99c-0.69,0.68-1.68,1.02-2.95,1.02H3115.25z"/>
						<path class="st4" d="M3154.29-1300.71c-1.43,0.05-2.56-0.34-3.37-1.18c-0.82-0.84-1.23-1.92-1.23-3.23
							c0-1,0.29-1.88,0.88-2.64c0.59-0.76,1.44-1.17,2.57-1.22l2.3-0.16c2.25-0.16,3.95-0.88,5.1-2.17
							c1.15-1.29,1.73-3.14,1.73-5.55v-35.43c0-1.68,0.42-2.95,1.27-3.82c0.84-0.87,2.06-1.3,3.64-1.3c1.58,0,2.8,0.43,3.64,1.3
							c0.84,0.87,1.27,2.14,1.27,3.82v35.35c0,3.31-0.58,6.12-1.73,8.42c-1.15,2.31-2.85,4.11-5.1,5.39
							c-2.25,1.29-5.04,2.03-8.36,2.24L3154.29-1300.71z"/>
						<path class="st4" d="M3208.05-1300.48c-5.22,0-9.78-1.18-13.69-3.54c-3.91-2.36-6.94-5.68-9.09-9.96
							c-2.15-4.28-3.22-9.3-3.22-15.08c0-4.36,0.61-8.28,1.84-11.77c1.23-3.49,2.98-6.48,5.25-8.98c2.27-2.49,5.01-4.41,8.21-5.75
							c3.19-1.34,6.76-2.01,10.7-2.01c5.27,0,9.84,1.17,13.73,3.5c3.89,2.34,6.9,5.63,9.05,9.88c2.15,4.25,3.22,9.26,3.22,15.04
							c0,4.36-0.61,8.29-1.84,11.81c-1.23,3.52-2.98,6.54-5.25,9.05c-2.28,2.52-5.01,4.45-8.21,5.79
							C3215.55-1301.15,3211.98-1300.48,3208.05-1300.48z M3208.05-1309.14c3.32,0,6.15-0.79,8.47-2.36
							c2.33-1.57,4.11-3.86,5.37-6.85c1.25-2.99,1.88-6.56,1.88-10.71c0-6.3-1.37-11.18-4.1-14.64c-2.74-3.46-6.61-5.2-11.62-5.2
							c-3.27,0-6.09,0.78-8.44,2.32c-2.35,1.55-4.15,3.81-5.41,6.77c-1.25,2.97-1.88,6.55-1.88,10.75c0,6.25,1.38,11.13,4.14,14.64
							C3199.23-1310.9,3203.09-1309.14,3208.05-1309.14z"/>
						<path class="st4" d="M3248.92-1300.63c-1.59,0-2.8-0.46-3.64-1.38c-0.84-0.92-1.27-2.19-1.27-3.82v-45.82
							c0-1.68,0.43-2.95,1.3-3.82c0.87-0.87,2.1-1.3,3.68-1.3h18.48c5.93,0,10.51,1.46,13.73,4.37c3.22,2.91,4.83,7,4.83,12.24
							c0,3.41-0.73,6.35-2.19,8.82c-1.46,2.47-3.57,4.36-6.33,5.67c-2.76,1.31-6.11,1.97-10.05,1.97l0.69-1.18h2.53
							c2.1,0,3.92,0.53,5.48,1.57c1.56,1.05,2.93,2.7,4.1,4.96l5.75,10.94c0.61,1.1,0.89,2.18,0.84,3.23
							c-0.05,1.05-0.44,1.9-1.15,2.56c-0.72,0.66-1.76,0.98-3.14,0.98s-2.51-0.3-3.37-0.91c-0.87-0.6-1.64-1.54-2.3-2.8l-7.75-14.64
							c-0.92-1.78-2.01-2.98-3.26-3.58c-1.25-0.6-2.85-0.91-4.79-0.91h-7.29v17.64c0,1.63-0.41,2.9-1.23,3.82
							C3251.78-1301.09,3250.56-1300.63,3248.92-1300.63z M3253.83-1330.95h11.96c3.53,0,6.2-0.75,8.01-2.24
							c1.81-1.5,2.72-3.74,2.72-6.73c0-2.94-0.91-5.16-2.72-6.65c-1.82-1.5-4.49-2.24-8.01-2.24h-11.96V-1330.95z"/>
					</g>
					<g>
						<g>
							<path class="st0" d="M3320.57-1768.74c0-19.21-15.17-34.78-33.88-34.78h-59.1v17.69c0,14.37,11.35,26.02,25.35,26.02h25.05
								v19.26c0,15.92,12.57,28.83,28.08,28.83h14.5v-52.86c0-0.95-0.04-1.89-0.11-2.82
								C3320.53-1767.83,3320.57-1768.28,3320.57-1768.74L3320.57-1768.74z"/>
						</g>
						<path class="st4" d="M3163.24-1749.13c-48.09,0-87.08,39.83-87.08,88.97c0,0.7,0.01,1.4,0.02,2.1
							c-0.02,0.18-0.02,0.37-0.02,0.56v146.7h9.15c24.59,0,44.53-20.37,44.53-45.49l0.28-20.89l-0.13-0.73
							c10.25,4.33,21.48,6.72,33.25,6.72c48.09,0,87.08-39.83,87.08-88.97S3211.33-1749.13,3163.24-1749.13z M3163.24-1612.29
							c-25.88,0-46.86-21.43-46.86-47.87s20.98-47.87,46.86-47.87s46.86,21.43,46.86,47.87S3189.12-1612.29,3163.24-1612.29z"/>
					</g>
				</g>
			</g>
		</g>
	</g>
</g>
<g id="Logos_Horizontales">
	<g id="_x30_1">
		<rect x="4274.62" y="-1988.44" class="st4" width="2094.25" height="665.75"/>
		<g>
			<text transform="matrix(1.0626 0 0 1 4724.3384 -1596.2576)"><tspan x="0" y="0" class="st2" style="font-family:'Nunito-Black'; font-size:159.6642px;">PLANIFICA </tspan><tspan x="913.59" y="0" class="st2" style="font-family:'Nunito-Bold'; font-size:159.6642px;">MEJOR</tspan></text>
			<g>
				<g>
					<path class="st0" d="M4667.56-1771.25c0-19.92-17.15-36.06-38.32-36.06h-66.84v18.34c0,14.9,12.84,26.98,28.67,26.98h28.33
						v19.97c0,16.51,14.22,29.89,31.76,29.89h16.4v-54.81c0-0.99-0.05-1.96-0.12-2.93
						C4667.51-1770.3,4667.56-1770.77,4667.56-1771.25L4667.56-1771.25z"/>
				</g>
				<path class="st1" d="M4489.61-1750.92c-54.39,0-98.49,41.3-98.49,92.24c0,0.73,0.01,1.45,0.03,2.18
					c-0.02,0.19-0.03,0.38-0.03,0.58v152.1h10.34c27.81,0,50.36-21.12,50.36-47.17l0.32-21.66l-0.15-0.76
					c11.59,4.49,24.29,6.97,37.61,6.97c54.39,0,98.49-41.3,98.49-92.24C4588.1-1709.62,4544-1750.92,4489.61-1750.92z
					 M4489.61-1609.04c-29.27,0-53-22.22-53-49.64s23.73-49.64,53-49.64c29.27,0,53,22.22,53,49.64S4518.88-1609.04,4489.61-1609.04
					z"/>
			</g>
		</g>
	</g>
	<g id="_x30_2">
		<g id="_x30_1_00000157270833964798446680000014776926047589348992_">
			<rect x="6450.5" y="-1988.44" class="st1" width="2094.25" height="665.75"/>
			<g>
				<text transform="matrix(1.0626 0 0 1 6900.2139 -1596.2576)"><tspan x="0" y="0" class="st2" style="font-family:'Nunito-Black'; font-size:159.6642px;">PLANIFICA </tspan><tspan x="913.59" y="0" class="st2" style="font-family:'Nunito-Bold'; font-size:159.6642px;">MEJOR</tspan></text>
				<g>
					<g>
						<path class="st0" d="M6843.43-1771.25c0-19.92-17.15-36.06-38.32-36.06h-66.84v18.34c0,14.9,12.84,26.98,28.67,26.98h28.33
							v19.97c0,16.51,14.22,29.89,31.76,29.89h16.4v-54.81c0-0.99-0.05-1.96-0.12-2.93
							C6843.38-1770.3,6843.43-1770.77,6843.43-1771.25L6843.43-1771.25z"/>
					</g>
					<path class="st5" d="M6665.48-1750.92c-54.39,0-98.49,41.3-98.49,92.24c0,0.73,0.01,1.45,0.03,2.18
						c-0.02,0.19-0.03,0.38-0.03,0.58v152.1h10.34c27.81,0,50.36-21.12,50.36-47.17l0.32-21.66l-0.15-0.76
						c11.59,4.49,24.29,6.97,37.61,6.97c54.39,0,98.49-41.3,98.49-92.24C6763.97-1709.62,6719.88-1750.92,6665.48-1750.92z
						 M6665.48-1609.04c-29.27,0-53-22.22-53-49.64s23.73-49.64,53-49.64c29.27,0,53,22.22,53,49.64
						S6694.75-1609.04,6665.48-1609.04z"/>
				</g>
			</g>
		</g>
	</g>
	<g id="_x30_3">
		<rect x="4274.38" y="-1112.56" class="st5" width="2094.25" height="665.75"/>
		<g>
			<text transform="matrix(1.0626 0 0 1 4724.0884 -720.3826)"><tspan x="0" y="0" class="st4" style="font-family:'Nunito-Black'; font-size:159.6642px;">PLANIFICA </tspan><tspan x="913.59" y="0" class="st4" style="font-family:'Nunito-Bold'; font-size:159.6642px;">MEJOR</tspan></text>
			<g>
				<g>
					<path class="st0" d="M4667.31-895.37c0-19.92-17.15-36.06-38.32-36.06h-66.84v18.34c0,14.9,12.84,26.98,28.67,26.98h28.33
						v19.97c0,16.51,14.22,29.89,31.76,29.89h16.4v-54.81c0-0.99-0.05-1.96-0.12-2.93C4667.26-894.43,4667.31-894.89,4667.31-895.37
						L4667.31-895.37z"/>
				</g>
				<path class="st1" d="M4489.36-875.04c-54.39,0-98.49,41.3-98.49,92.24c0,0.73,0.01,1.45,0.03,2.18
					c-0.02,0.19-0.03,0.38-0.03,0.58v152.1h10.34c27.81,0,50.36-21.12,50.36-47.17l0.32-21.66l-0.15-0.76
					c11.59,4.49,24.29,6.97,37.61,6.97c54.39,0,98.49-41.3,98.49-92.24S4543.75-875.04,4489.36-875.04z M4489.36-733.16
					c-29.27,0-53-22.22-53-49.64s23.73-49.64,53-49.64c29.27,0,53,22.22,53,49.64S4518.63-733.16,4489.36-733.16z"/>
			</g>
		</g>
	</g>
	<g id="_x30_4">
		<g id="_x30_1_00000116209881387471965270000017543486559563154845_">
			<rect x="6450.25" y="-1112.56" class="st3" width="2094.25" height="665.75"/>
		</g>
		<g>
			<text transform="matrix(1.0626 0 0 1 6899.9634 -720.3826)"><tspan x="0" y="0" class="st4" style="font-family:'Nunito-Black'; font-size:159.6642px;">PLANIFICA </tspan><tspan x="913.59" y="0" class="st4" style="font-family:'Nunito-Bold'; font-size:159.6642px;">MEJOR</tspan></text>
			<g>
				<g>
					<path class="st0" d="M6843.18-895.37c0-19.92-17.15-36.06-38.32-36.06h-66.84v18.34c0,14.9,12.84,26.98,28.67,26.98h28.33
						v19.97c0,16.51,14.22,29.89,31.76,29.89h16.4v-54.81c0-0.99-0.05-1.96-0.12-2.93C6843.13-894.43,6843.18-894.89,6843.18-895.37
						L6843.18-895.37z"/>
				</g>
				<path class="st4" d="M6665.23-875.04c-54.39,0-98.49,41.3-98.49,92.24c0,0.73,0.01,1.45,0.03,2.18
					c-0.02,0.19-0.03,0.38-0.03,0.58v152.1h10.34c27.81,0,50.36-21.12,50.36-47.17l0.32-21.66l-0.15-0.76
					c11.59,4.49,24.29,6.97,37.61,6.97c54.39,0,98.49-41.3,98.49-92.24S6719.63-875.04,6665.23-875.04z M6665.23-733.16
					c-29.27,0-53-22.22-53-49.64s23.73-49.64,53-49.64c29.27,0,53,22.22,53,49.64S6694.5-733.16,6665.23-733.16z"/>
			</g>
		</g>
	</g>
	<g id="T01">
		<g>
			<text transform="matrix(1.0626 0 0 1 4725.0884 187.4924)"><tspan x="0" y="0" class="st2" style="font-family:'Nunito-Black'; font-size:159.6642px;">PLANIFICA </tspan><tspan x="913.59" y="0" class="st2" style="font-family:'Nunito-Bold'; font-size:159.6642px;">MEJOR</tspan></text>
			<g>
				<g>
					<path class="st0" d="M4668.31,12.5c0-19.92-17.15-36.06-38.32-36.06h-66.84v18.34c0,14.9,12.84,26.98,28.67,26.98h28.33v19.97
						c0,16.51,14.22,29.89,31.76,29.89h16.4V16.83c0-0.99-0.05-1.96-0.12-2.93C4668.26,13.45,4668.31,12.98,4668.31,12.5
						L4668.31,12.5z"/>
				</g>
				<path class="st1" d="M4490.36,32.83c-54.39,0-98.49,41.3-98.49,92.24c0,0.73,0.01,1.45,0.03,2.18
					c-0.02,0.19-0.03,0.38-0.03,0.58v152.1h10.34c27.81,0,50.36-21.12,50.36-47.17l0.32-21.66l-0.15-0.76
					c11.59,4.49,24.29,6.97,37.61,6.97c54.39,0,98.49-41.3,98.49-92.24S4544.75,32.83,4490.36,32.83z M4490.36,174.71
					c-29.27,0-53-22.22-53-49.64s23.73-49.64,53-49.64c29.27,0,53,22.22,53,49.64S4519.63,174.71,4490.36,174.71z"/>
			</g>
		</g>
	</g>
	<g id="T02">
		<g>
			<text transform="matrix(1.0626 0 0 1 6900.9634 187.4924)"><tspan x="0" y="0" class="st2" style="font-family:'Nunito-Black'; font-size:159.6642px;">PLANIFICA </tspan><tspan x="913.59" y="0" class="st2" style="font-family:'Nunito-Bold'; font-size:159.6642px;">MEJOR</tspan></text>
			<g>
				<g>
					<path class="st0" d="M6844.18,12.5c0-19.92-17.15-36.06-38.32-36.06h-66.84v18.34c0,14.9,12.84,26.98,28.67,26.98h28.33v19.97
						c0,16.51,14.22,29.89,31.76,29.89h16.4V16.83c0-0.99-0.05-1.96-0.12-2.93C6844.13,13.45,6844.18,12.98,6844.18,12.5
						L6844.18,12.5z"/>
				</g>
				<path class="st5" d="M6666.23,32.83c-54.39,0-98.49,41.3-98.49,92.24c0,0.73,0.01,1.45,0.03,2.18
					c-0.02,0.19-0.03,0.38-0.03,0.58v152.1h10.34c27.81,0,50.36-21.12,50.36-47.17l0.32-21.66l-0.15-0.76
					c11.59,4.49,24.29,6.97,37.61,6.97c54.39,0,98.49-41.3,98.49-92.24S6720.63,32.83,6666.23,32.83z M6666.23,174.71
					c-29.27,0-53-22.22-53-49.64s23.73-49.64,53-49.64c29.27,0,53,22.22,53,49.64S6695.5,174.71,6666.23,174.71z"/>
			</g>
		</g>
	</g>
	<g id="T03">
		<g>
			<text transform="matrix(1.0626 0 0 1 4724.8384 1063.3674)"><tspan x="0" y="0" class="st4" style="font-family:'Nunito-Black'; font-size:159.6642px;">PLANIFICA </tspan><tspan x="913.59" y="0" class="st4" style="font-family:'Nunito-Bold'; font-size:159.6642px;">MEJOR</tspan></text>
			<g>
				<g>
					<path class="st0" d="M4668.06,888.38c0-19.92-17.15-36.06-38.32-36.06h-66.84v18.34c0,14.9,12.84,26.98,28.67,26.98h28.33
						v19.97c0,16.51,14.22,29.89,31.76,29.89h16.4v-54.81c0-0.99-0.05-1.96-0.12-2.93C4668.01,889.32,4668.06,888.86,4668.06,888.38
						L4668.06,888.38z"/>
				</g>
				<path class="st1" d="M4490.11,908.71c-54.39,0-98.49,41.3-98.49,92.24c0,0.73,0.01,1.45,0.03,2.18
					c-0.02,0.19-0.03,0.38-0.03,0.58v152.1h10.34c27.81,0,50.36-21.12,50.36-47.17l0.32-21.66l-0.15-0.76
					c11.59,4.49,24.29,6.97,37.61,6.97c54.39,0,98.49-41.3,98.49-92.24C4588.6,950.01,4544.5,908.71,4490.11,908.71z
					 M4490.11,1050.59c-29.27,0-53-22.22-53-49.64s23.73-49.64,53-49.64c29.27,0,53,22.22,53,49.64S4519.38,1050.59,4490.11,1050.59
					z"/>
			</g>
		</g>
	</g>
	<g id="T04">
		<g>
			
				<text transform="matrix(1.0626 0 0 1 6891.2954 1063.3674)" class="st4" style="font-family:'Nunito-Black'; font-size:159.6642px;">PLANIFICA MEJOR</text>
		</g>
		<g>
			<g>
				<path class="st0" d="M6843.93,888.38c0-19.92-17.15-36.06-38.32-36.06h-66.84v18.34c0,14.9,12.84,26.98,28.67,26.98h28.33v19.97
					c0,16.51,14.22,29.89,31.76,29.89h16.4v-54.81c0-0.99-0.05-1.96-0.12-2.93C6843.88,889.32,6843.93,888.86,6843.93,888.38
					L6843.93,888.38z"/>
			</g>
			<path class="st4" d="M6665.98,908.71c-54.39,0-98.49,41.3-98.49,92.24c0,0.73,0.01,1.45,0.03,2.18
				c-0.02,0.19-0.03,0.38-0.03,0.58v152.1h10.34c27.81,0,50.36-21.12,50.36-47.17l0.32-21.66l-0.15-0.76
				c11.59,4.49,24.29,6.97,37.61,6.97c54.39,0,98.49-41.3,98.49-92.24C6764.47,950.01,6720.38,908.71,6665.98,908.71z
				 M6665.98,1050.59c-29.27,0-53-22.22-53-49.64s23.73-49.64,53-49.64c29.27,0,53,22.22,53,49.64S6695.25,1050.59,6665.98,1050.59z
				"/>
		</g>
	</g>
</g>
<g id="Isologo">
	<g id="Isologo_00000078748698906579778680000015350171299426761638_">
		<g class="st10">
			<path class="st11" d="M505.92-362.15H108.08c-24.81,0-44.93-20.12-44.93-44.93v-397.84c0-24.81,20.12-44.93,44.93-44.93h397.84
				c24.81,0,44.93,20.12,44.93,44.93v397.84C550.85-382.27,530.73-362.15,505.92-362.15z"/>
			<g class="st12">
				<g>
					<path class="st0" d="M462.55-726.58h-70.84c-16.83,0-30.48-13.64-30.48-30.48v-20.72h71.06c22.5,0,40.73,18.24,40.73,40.73l0,0
						C473.02-731.27,468.33-726.58,462.55-726.58z"/>
					<path class="st0" d="M421.82-777.76v66.09c0,22.87,18.54,41.41,41.41,41.41h9.79v-56.31
						C473.02-754.84,450.09-777.76,421.82-777.76L421.82-777.76z"/>
				</g>
				<path class="st1" d="M283.85-714.09c-57.82,0-104.7,46.65-104.7,104.19c0,0.82,0.01,1.64,0.03,2.46
					c-0.02,0.21-0.03,0.43-0.03,0.65v171.81h11c29.57,0,53.54-23.85,53.54-53.28l0.34-24.46l-0.16-0.86
					c12.32,5.07,25.82,7.87,39.98,7.87c57.82,0,104.7-46.65,104.7-104.19C388.54-667.44,341.67-714.09,283.85-714.09z
					 M283.85-553.83c-31.12,0-56.34-25.1-56.34-56.07c0-30.96,25.22-56.07,56.34-56.07s56.34,25.1,56.34,56.07
					C340.19-578.93,314.96-553.83,283.85-553.83z"/>
			</g>
		</g>
		<g>
			<path class="st4" d="M505.92-362.15H108.08c-24.81,0-44.93-20.12-44.93-44.93v-397.84c0-24.81,20.12-44.93,44.93-44.93h397.84
				c24.81,0,44.93,20.12,44.93,44.93v397.84C550.85-382.27,530.73-362.15,505.92-362.15z"/>
			<g>
				<g>
					<path class="st0" d="M473.02-737.05c0-22.5-18.24-40.73-40.73-40.73h-71.06v20.72c0,16.83,13.64,30.48,30.48,30.48h30.11v22.56
						c0,18.65,15.12,33.77,33.77,33.77h17.43v-61.91c0-1.11-0.05-2.21-0.13-3.3C472.96-735.98,473.02-736.51,473.02-737.05
						L473.02-737.05z"/>
				</g>
				<path class="st1" d="M283.85-714.09c-57.82,0-104.7,46.65-104.7,104.19c0,0.82,0.01,1.64,0.03,2.46
					c-0.02,0.21-0.03,0.43-0.03,0.65v171.81h11c29.57,0,53.54-23.85,53.54-53.28l0.34-24.46l-0.16-0.86
					c12.32,5.07,25.82,7.87,39.98,7.87c57.82,0,104.7-46.65,104.7-104.19C388.54-667.44,341.67-714.09,283.85-714.09z
					 M283.85-553.83c-31.12,0-56.34-25.1-56.34-56.07c0-30.96,25.22-56.07,56.34-56.07c31.12,0,56.34,25.1,56.34,56.07
					C340.19-578.93,314.96-553.83,283.85-553.83z"/>
			</g>
		</g>
		<g>
			<path class="st1" d="M1516.92-362.15h-397.84c-24.81,0-44.93-20.12-44.93-44.93v-397.84c0-24.81,20.12-44.93,44.93-44.93h397.84
				c24.81,0,44.93,20.12,44.93,44.93v397.84C1561.85-382.27,1541.73-362.15,1516.92-362.15z"/>
			<g>
				<g>
					<path class="st0" d="M1484.02-737.05c0-22.5-18.24-40.73-40.73-40.73h-71.06v20.72c0,16.83,13.64,30.48,30.48,30.48h30.11
						v22.56c0,18.65,15.12,33.77,33.77,33.77h17.43v-61.91c0-1.11-0.05-2.21-0.13-3.3C1483.96-735.98,1484.02-736.51,1484.02-737.05
						L1484.02-737.05z"/>
				</g>
				<path class="st2" d="M1294.85-714.09c-57.82,0-104.7,46.65-104.7,104.19c0,0.82,0.01,1.64,0.03,2.46
					c-0.02,0.21-0.03,0.43-0.03,0.65v171.81h11c29.57,0,53.54-23.85,53.54-53.28l0.34-24.46l-0.16-0.86
					c12.32,5.07,25.82,7.87,39.98,7.87c57.82,0,104.7-46.65,104.7-104.19C1399.54-667.44,1352.67-714.09,1294.85-714.09z
					 M1294.85-553.83c-31.12,0-56.34-25.1-56.34-56.07c0-30.96,25.22-56.07,56.34-56.07c31.12,0,56.34,25.1,56.34,56.07
					C1351.19-578.93,1325.96-553.83,1294.85-553.83z"/>
			</g>
		</g>
		<g>
			<path class="st2" d="M2444.92-362.15h-397.84c-24.81,0-44.93-20.12-44.93-44.93v-397.84c0-24.81,20.12-44.93,44.93-44.93h397.84
				c24.81,0,44.93,20.12,44.93,44.93v397.84C2489.85-382.27,2469.73-362.15,2444.92-362.15z"/>
			<g>
				<g>
					<path class="st0" d="M2412.02-737.05c0-22.5-18.24-40.73-40.73-40.73h-71.06v20.72c0,16.83,13.65,30.48,30.48,30.48h30.11
						v22.56c0,18.65,15.12,33.77,33.77,33.77h17.43v-61.91c0-1.11-0.05-2.21-0.13-3.3C2411.96-735.98,2412.02-736.51,2412.02-737.05
						L2412.02-737.05z"/>
				</g>
				<path class="st1" d="M2222.85-714.09c-57.82,0-104.7,46.65-104.7,104.19c0,0.82,0.01,1.64,0.03,2.46
					c-0.02,0.21-0.03,0.43-0.03,0.65v171.81h11c29.57,0,53.54-23.85,53.54-53.28l0.34-24.46l-0.16-0.86
					c12.32,5.07,25.82,7.87,39.98,7.87c57.82,0,104.7-46.65,104.7-104.19C2327.54-667.44,2280.67-714.09,2222.85-714.09z
					 M2222.85-553.83c-31.12,0-56.34-25.1-56.34-56.07c0-30.96,25.22-56.07,56.34-56.07s56.34,25.1,56.34,56.07
					C2279.19-578.93,2253.96-553.83,2222.85-553.83z"/>
			</g>
		</g>
		<g>
			<path class="st3" d="M3364.92-362.15h-397.84c-24.81,0-44.93-20.12-44.93-44.93v-397.84c0-24.81,20.12-44.93,44.93-44.93h397.84
				c24.81,0,44.93,20.12,44.93,44.93v397.84C3409.85-382.27,3389.73-362.15,3364.92-362.15z"/>
			<g>
				<g>
					<path class="st0" d="M3332.02-737.05c0-22.5-18.24-40.73-40.73-40.73h-71.06v20.72c0,16.83,13.65,30.48,30.48,30.48h30.11
						v22.56c0,18.65,15.12,33.77,33.77,33.77h17.43v-61.91c0-1.11-0.05-2.21-0.13-3.3C3331.96-735.98,3332.02-736.51,3332.02-737.05
						L3332.02-737.05z"/>
				</g>
				<path class="st4" d="M3142.85-714.09c-57.82,0-104.7,46.65-104.7,104.19c0,0.82,0.01,1.64,0.03,2.46
					c-0.02,0.21-0.03,0.43-0.03,0.65v171.81h11c29.57,0,53.54-23.85,53.54-53.28l0.34-24.46l-0.16-0.86
					c12.32,5.07,25.82,7.87,39.98,7.87c57.82,0,104.7-46.65,104.7-104.19C3247.54-667.44,3200.67-714.09,3142.85-714.09z
					 M3142.85-553.83c-31.12,0-56.34-25.1-56.34-56.07c0-30.96,25.22-56.07,56.34-56.07s56.34,25.1,56.34,56.07
					C3199.19-578.93,3173.96-553.83,3142.85-553.83z"/>
			</g>
		</g>
	</g>
	<g>
		<g>
			<g>
				<path class="st0" d="M532.98,109.78c0-32.75-26.55-59.29-59.29-59.29H370.25v30.16c0,24.5,19.86,44.36,44.36,44.36h43.84v32.84
					c0,27.15,22.01,49.15,49.15,49.15h25.38V116.9c0-1.62-0.08-3.22-0.19-4.81C532.9,111.33,532.98,110.57,532.98,109.78
					L532.98,109.78z"/>
			</g>
			<path class="st1" d="M257.6,143.21c-84.17,0-152.41,67.91-152.41,151.67c0,1.2,0.02,2.39,0.04,3.58
				c-0.03,0.31-0.04,0.63-0.04,0.95v250.1h16.01c43.04,0,77.93-34.72,77.93-77.56l0.49-35.61l-0.23-1.25
				c17.93,7.38,37.59,11.46,58.2,11.46c84.17,0,152.41-67.91,152.41-151.67S341.77,143.21,257.6,143.21z M257.6,376.5
				c-45.29,0-82.01-36.54-82.01-81.62s36.72-81.62,82.01-81.62s82.01,36.54,82.01,81.62S302.89,376.5,257.6,376.5z"/>
		</g>
		<g>
			<g>
				<path class="st0" d="M1531.89,109.78c0-32.75-26.55-59.29-59.29-59.29h-103.44v30.16c0,24.5,19.86,44.36,44.36,44.36h43.84
					v32.84c0,27.15,22.01,49.15,49.15,49.15h25.38V116.9c0-1.62-0.08-3.22-0.19-4.81C1531.81,111.33,1531.89,110.57,1531.89,109.78
					L1531.89,109.78z"/>
			</g>
			<path class="st2" d="M1256.52,143.21c-84.17,0-152.41,67.91-152.41,151.67c0,1.2,0.02,2.39,0.04,3.58
				c-0.03,0.31-0.04,0.63-0.04,0.95v250.1h16.01c43.04,0,77.93-34.72,77.93-77.56l0.49-35.61l-0.23-1.25
				c17.93,7.38,37.59,11.46,58.2,11.46c84.17,0,152.41-67.91,152.41-151.67S1340.69,143.21,1256.52,143.21z M1256.52,376.5
				c-45.29,0-82.01-36.54-82.01-81.62s36.72-81.62,82.01-81.62c45.29,0,82.01,36.54,82.01,81.62S1301.81,376.5,1256.52,376.5z"/>
		</g>
		<g>
			<g>
				<path class="st0" d="M2460.89,109.78c0-32.75-26.55-59.29-59.29-59.29h-103.44v30.16c0,24.5,19.86,44.36,44.36,44.36h43.84
					v32.84c0,27.15,22.01,49.15,49.15,49.15h25.38V116.9c0-1.62-0.08-3.22-0.19-4.81C2460.81,111.33,2460.89,110.57,2460.89,109.78
					L2460.89,109.78z"/>
			</g>
			<path class="st4" d="M2185.52,143.21c-84.17,0-152.41,67.91-152.41,151.67c0,1.2,0.02,2.39,0.04,3.58
				c-0.03,0.31-0.04,0.63-0.04,0.95v250.1h16.01c43.04,0,77.93-34.72,77.93-77.56l0.49-35.61l-0.23-1.25
				c17.93,7.38,37.59,11.46,58.2,11.46c84.17,0,152.41-67.91,152.41-151.67S2269.69,143.21,2185.52,143.21z M2185.52,376.5
				c-45.29,0-82.01-36.54-82.01-81.62s36.72-81.62,82.01-81.62c45.29,0,82.01,36.54,82.01,81.62S2230.81,376.5,2185.52,376.5z"/>
		</g>
	</g>
</g>
</svg>
