<svg width="600" height="600" viewBox="0 0 600 600" fill="none" xmlns="http://www.w3.org/2000/svg">
<g clip-path="url(#clip0_280_61)">
<path d="M461.6 52.49C493.236 52.4902 518.89 78.135 518.89 109.78C518.89 110.436 518.823 111.092 518.72 111.803L518.69 112.015L518.705 112.228C518.813 113.795 518.89 115.344 518.89 116.9V205H495.51C469.474 205 448.36 183.895 448.36 157.85V123.01H402.52C379.125 123.01 360.16 104.046 360.16 80.6501V52.49H461.6Z" stroke="#1AD6B4" stroke-width="4"/>
<path d="M245.52 145.21C328.594 145.21 395.919 212.234 395.919 294.88C395.919 377.526 328.585 444.55 245.51 444.55C225.166 444.55 205.764 440.523 188.071 433.24L184.679 431.845L185.343 435.452L185.538 436.511L185.05 471.923V471.95C185.05 513.676 151.064 547.51 109.12 547.51H95.1099V299.41C95.1099 299.129 95.1184 298.877 95.1401 298.652L95.1519 298.54L95.1499 298.427C95.1299 297.234 95.1099 296.06 95.1099 294.88C95.1099 212.234 162.445 145.21 245.52 145.21ZM245.52 211.26C199.135 211.26 161.51 248.686 161.51 294.88C161.51 341.074 199.135 378.5 245.52 378.5C291.905 378.5 329.53 341.073 329.53 294.88C329.53 248.686 291.905 211.26 245.52 211.26Z" stroke="#1AD6B4" stroke-width="4"/>
</g>
<defs>
<clipPath id="clip0_280_61">
<rect width="600" height="600" fill="white"/>
</clipPath>
</defs>
</svg>
