<svg width="771" height="661" viewBox="0 0 771 661" fill="none" xmlns="http://www.w3.org/2000/svg">
<path d="M386.876 660.249H476C439.377 600.46 417.747 621.104 382.003 560.749C344.573 497.497 310.5 434 293 357.5C286 332 248.529 238.382 206.5 180.5C185.131 151.071 174.502 119.362 149.514 93.4842C82.6101 24.1979 7.32906 -22.6862 7.32906 -22.6862L386.876 660.249Z" fill="#AFF5E9"/>
<path d="M386.876 660.249H771.5V581.099C771.5 581.099 787.006 643.095 617.663 634.07C571.657 631.618 526.22 613.681 450.737 550.141C416.932 521.684 376.523 458.166 376.523 458.166C376.523 458.166 338.39 425.25 306.6 396.722C271.841 365.53 250.762 355.268 227.065 289.553C198.035 219.5 194.706 173.5 194.706 173.5C191.5 137.5 213.916 121.142 191.5 86C159.393 35.758 7.32906 -22.6862 7.32906 -22.6862L386.876 660.249Z" fill="#6494FE"/>
<path d="M0 660.249H771.5V581.099C578.117 769.919 446.581 566.517 345.762 469.513C304.669 429.976 269.943 402.711 244.977 367.054C211.016 318.56 202.832 263.19 196.637 207.262C189.757 145.171 207.011 93.1385 156 45C25.2168 9.5 7.32906 -22.6862 7.32906 -22.6862L0 -22.6862V660.249Z" fill="#F7F6F5"/>
</svg>
